<svg width="511" height="1080" viewBox="0 0 511 1080" fill="none" xmlns="http://www.w3.org/2000/svg">
<g opacity="0.2" clip-path="url(#clip0_346_19022)">
<path d="M254.197 -16.217C214.655 3.33687 177.034 25.0948 142.407 48.4917L131.391 55.9515L137.323 44.1401C138.509 41.7665 139.695 39.5059 140.938 37.1888L141.503 36.1716L141.616 34.9848L143.254 33.911C176.243 12.0966 212 -8.36156 249.395 -26.8982C356.779 -80.078 535.338 -145.013 776.261 -152.021H777.955L778.972 -150.777C780.158 -149.251 781.457 -147.725 782.757 -146.143L787.615 -140.266L779.65 -140.04C539.236 -133.766 361.298 -69.2273 254.31 -16.217H254.197Z" fill="#E0E0E0"/>
<path d="M250.186 23.4557C200.251 51.2607 153.083 83.1347 109.87 118.23L99.3627 126.764L104.39 114.387C105.633 111.279 106.989 108.227 108.344 105.232L108.74 104.327L109.531 103.706C151.501 70.2495 196.974 39.7883 244.82 13.1136C364.179 -53.46 558.725 -128.68 807.95 -109.239L809.645 -109.126L810.492 -107.77C811.509 -106.131 812.526 -104.436 813.543 -102.74L810.492 -100.423L813.656 -102.514L817.497 -96.1847L809.871 -96.8064C562.17 -117.151 368.811 -42.6093 250.186 23.4557Z" fill="#E0E0E0"/>
<path d="M626.736 -63.6325C497.209 -49.3344 299.218 1.58482 91.6803 162.933L82.0209 170.449L86.2009 159.146C86.9353 157.112 87.7261 155.077 88.517 153.043L89.1949 151.291L89.3078 150.048L90.72 148.974C298.822 -10.7918 496.983 -61.3719 626.623 -75.67C712.881 -85.1644 783.491 -80.5302 827.552 -75.0484L829.303 -74.8223L836.194 -61.5415L828.738 -62.5022C784.451 -68.2667 713.502 -73.1269 626.736 -63.576V-63.6325Z" fill="#E0E0E0"/>
<path d="M609.564 -18.7602C480.375 -13.7305 282.61 30.3506 74.1124 211.818L64.34 220.295L68.4071 208.257C69.3674 205.488 70.2712 202.719 71.2315 199.95L71.3445 198.819L72.5873 197.746C282.215 17.6914 480.714 -25.994 610.355 -30.9108C743.271 -36.0535 837.889 -3.21882 863.704 6.95372L865.003 7.46235L865.512 8.76217C866.133 10.4576 866.755 12.153 867.376 13.905L870.709 23.2863L862.687 19.952C844.837 12.5486 748.864 -24.2421 609.507 -18.8167L609.564 -18.7602Z" fill="#E0E0E0"/>
<path d="M594.199 13.9618C741.746 19.5567 841.222 79.4052 845.459 82.0048L848.509 83.8698L841.335 94.2684L838.397 92.4599C834.33 89.9733 737.058 31.4812 592.504 26.1123C464.333 21.2521 267.641 58.1558 58.4087 261.437L48.8058 270.819L52.534 258.216C53.4378 255.164 54.3981 252.112 55.3584 249.061L55.6408 248.1L56.3752 247.365C266.907 45.7228 465.067 9.15808 594.256 13.9618H594.199Z" fill="#E0E0E0"/>
<path d="M320.909 95.229C405.416 60.925 491.956 48.6614 578.044 58.8339C724.348 76.1838 820.039 153.834 820.943 154.625L823.485 156.829L815.407 166.38L812.695 164.176C811.735 163.385 717.795 87.7126 575.558 70.9279C448.742 55.8952 253.688 85.3955 44.3433 311.283L34.6838 321.738L38.2426 308.287C39.0899 305.01 39.9937 301.788 40.8975 298.567L41.18 297.606L41.8578 296.872C131.053 202.041 224.936 134.167 320.909 95.1725V95.229Z" fill="#E0E0E0"/>
<path d="M438.744 96.8115C647.806 77.8227 794.732 225.607 796.201 227.077L798.63 229.62L789.479 238.379L787.05 235.949C785.638 234.48 642.045 90.4254 438.687 108.962C298.371 121.734 161.5 206.618 31.8593 361.241L22.0303 372.94L25.5891 358.472C26.3799 355.251 27.1143 352.029 27.9052 348.808L28.0181 347.791L28.8654 346.83C159.071 193.959 296.958 109.866 438.687 96.9245L438.744 96.8115Z" fill="#E0E0E0"/>
<path d="M788.744 324.507C687.97 179.887 484.782 84.9999 257.925 199.045C139.921 258.329 90.5507 328.745 33.3846 410.239C27.9617 417.981 22.4259 425.837 16.7771 433.749L7.513 446.747L10.281 431.488C10.9589 427.815 11.5801 424.254 12.258 420.92L12.371 419.903L12.9924 418.999C16.6076 413.912 20.1099 408.882 23.6686 403.853C81.9644 320.89 132.295 249.174 253.237 188.364C486.589 71.0409 695.482 168.471 798.969 317.047C893.586 452.794 886.808 608.943 874.38 689.927L874.155 690.719C871.217 698.518 868.28 706.203 865.229 713.776L858.281 712.307C886.13 569.27 860.767 427.984 788.744 324.563V324.507Z" fill="#E0E0E0"/>
<path d="M293.626 712.985C315.035 657.827 325.202 652.006 332.941 653.928C352.712 658.675 334.41 730.617 334.184 731.352C324.016 770.29 163.138 859.639 94.5047 896.204L91.3979 897.899L85.6926 887.67L89.2514 885.805C197.313 828.104 315.374 756.67 322.548 729.318C330.569 698.517 330.795 674.442 329.1 667.209C325.993 670.656 318.48 681.789 305.036 716.432C273.007 798.999 149.468 847.037 78.6881 868.286L75.9202 869.134L74.6774 866.704C73.8866 865.178 73.1522 863.652 72.3614 862.126L70.4408 858.17L74.9033 856.814C143.932 835.847 264.139 789.279 293.739 712.985H293.626Z" fill="#E0E0E0"/>
<path d="M277.188 693.544C298.879 643.473 315.938 621.489 332.433 622.562C349.266 623.354 360.508 647.881 368.811 702.134C379.996 774.924 174.548 890.213 111.282 923.783L108.401 925.309L106.706 922.879C105.746 921.522 104.899 920.109 104.051 918.753L102.018 915.475L105.689 913.497C232.166 845.963 364.518 755.71 356.723 705.073C347.063 642.229 335.314 634.939 330.456 634.713C326.954 634.713 313.509 639.234 288.259 697.557C262.952 756.557 189.179 807.307 69.0286 848.506L65.9783 849.523L64.7355 846.754C64.3966 846.076 64.1142 845.341 63.7752 844.663C63.4363 843.928 63.0973 843.194 62.7584 842.459L61.1203 838.729L65.2439 837.316C180.423 797.982 253.688 748.306 277.131 693.601L277.188 693.544Z" fill="#E0E0E0"/>
<path d="M260.749 674.103C288.146 616.685 313.396 588.654 338.251 588.428C362.937 588.428 384.12 616.572 403.043 674.555C437.388 779.502 202.454 912.423 129.64 950.683L126.872 952.153L119.868 942.545L123.879 940.454C174.153 913.893 423.322 776.45 391.463 679.189C374.63 627.762 355.875 600.578 336.952 600.578C318.48 600.804 295.885 627.762 271.652 678.568C244.763 734.856 175.678 783.854 60.3294 828.33L57.3354 829.517L55.9798 826.804C55.2454 825.278 54.5675 823.753 54.0027 822.17L52.7034 818.666L56.3752 817.254C168.617 774.02 235.443 727.17 260.693 674.16L260.749 674.103Z" fill="#E0E0E0"/>
<path d="M244.368 654.719C279.56 587.75 314.187 553.332 347.289 552.315C380.109 551.581 410.33 583.341 437.331 647.315C464.276 711.12 421.119 789.223 312.493 873.203C244.876 925.478 170.707 965.434 149.581 976.454L146.982 977.81L145.231 975.719C144.214 974.476 143.198 973.289 142.181 971.989L139.469 968.598L143.65 966.394C200.42 936.781 480.771 782.328 426.09 652.797C401.01 593.401 374.347 563.675 346.611 564.409C318.65 565.257 287.807 597.244 255.044 659.523C217.762 730.335 121.45 778.089 52.2516 807.872L48.8622 809.342L47.0547 804.651C46.6593 803.634 46.2639 802.673 45.9249 801.656L44.7952 798.378L48.1844 796.908C115.518 767.917 209.119 721.632 244.368 654.662V654.719Z" fill="#E0E0E0"/>
<path d="M227.986 635.278C274.081 555.706 316.899 516.372 358.982 515.073C399.654 513.829 437.444 549.32 471.733 620.415C488.905 655.906 489.753 694.335 474.218 734.63C424.113 864.895 213.243 979.732 171.442 1001.43L169.013 1002.68L167.262 1000.81C166.188 999.681 165.171 998.551 163.929 997.195L160.765 993.747L165.228 991.43C206.408 970.124 414.228 857.435 462.864 731.07C477.099 694.109 476.365 658.845 460.605 626.292C428.802 560.453 394.852 527.11 359.604 527.11C359.152 527.11 358.7 527.11 358.192 527.11C321.079 528.24 281.876 565.314 238.324 640.534C200.138 706.542 114.784 753.506 44.6256 787.075L41.1234 788.771L39.8242 785.38C39.2593 783.91 38.7509 782.384 38.2425 780.859L37.2257 777.75L40.389 776.224C108.683 743.446 191.721 697.783 227.873 635.222L227.986 635.278Z" fill="#E0E0E0"/>
<path d="M211.605 615.837C252.107 552.033 307.013 478.564 372.201 477.039H374.121C421.119 477.039 465.519 516.203 506.078 593.458C529.69 638.5 532.288 686.65 513.816 736.495C460.04 881.793 239.115 1002.51 195.336 1025.23L193.02 1026.41L191.269 1024.77C190.026 1023.64 188.784 1022.51 187.597 1021.33L183.982 1017.88L188.784 1015.39C231.94 993.182 449.815 875.181 502.406 733.161C519.578 686.706 517.149 641.834 495.062 599.787C456.029 525.245 414.397 487.833 371.24 489.076C312.38 490.489 260.354 560.623 221.603 621.602C182.287 683.598 106.593 729.318 37.6776 765.882L33.9494 767.86L32.7067 764.13C32.1983 762.548 31.6899 761.022 31.2945 759.44L30.5036 756.558L33.328 755.088C100.379 719.315 174.04 674.782 211.492 615.837H211.605Z" fill="#E0E0E0"/>
<path d="M195.28 596.283L196.296 594.927C236.798 536.774 304.528 439.4 386.888 438.439H388.017C442.189 438.439 493.537 481.56 540.592 566.614C571.039 621.319 575.615 679.19 554.319 738.699C499.073 892.757 285.943 1014.21 221.942 1047.77L219.796 1048.91L217.649 1047.21C216.406 1046.25 215.164 1045.29 213.977 1044.21L209.967 1040.82L214.994 1038.22C260.015 1014.77 487.436 890.1 542.908 735.534C563.018 679.472 558.612 624.88 529.803 573.169C484.499 491.224 436.032 449.912 385.927 450.59C310.233 451.494 244.989 545.308 206.069 601.313L205.109 602.67C164.098 661.614 90.7765 709.255 31.5204 744.124L27.5663 746.442L24.2899 734.856L26.9449 733.274C84.6193 699.252 155.907 652.911 195.336 596.283H195.28Z" fill="#E0E0E0"/>
<path d="M178.898 576.956C180.932 574.243 183.078 571.417 185.338 568.422L190.704 561.301C235.669 501.001 310.967 400.066 401.744 399.84C463.034 399.84 521.273 446.917 574.937 539.713C612.332 604.478 618.941 672.408 594.595 741.525C536.751 905.925 317.125 1033.53 251.203 1068.69L249.226 1069.76L238.098 1062.36L243.69 1059.42C308.934 1024.94 526.357 899.878 583.127 738.473C606.231 672.804 599.904 608.208 564.26 546.495C512.687 457.259 457.667 411.991 400.445 411.991C316.447 412.16 243.69 509.704 200.194 567.97C196.014 573.621 192.06 578.934 188.388 583.737C145.401 640.195 78.914 687.045 25.8152 721.519L21.635 724.232L20.4487 719.71C20.0533 718.128 19.6579 716.489 19.2625 714.85L18.6976 712.307L21.0136 710.781C72.6438 677.155 137.21 631.605 178.898 576.956Z" fill="#E0E0E0"/>
<path d="M140.938 564.862C248.887 403.344 345.312 368.814 407.167 368.306C480.375 367.966 544.546 413.686 587.703 497.666C638.768 596.962 645.434 694.392 607.587 787.245C542.117 947.745 360.508 1051.34 285.435 1088.47L283.797 1089.26L282.271 1088.52C280.464 1087.67 278.656 1086.71 276.849 1085.75L270.804 1082.53L277.413 1079.31C335.483 1051 530.085 945.993 596.346 783.515C632.837 694.166 626.228 600.07 576.801 503.883C535.847 424.255 475.687 380.4 407.449 380.4H406.206C347.515 380.852 255.553 414.252 150.88 570.909C118.795 619.002 61.4027 662.405 18.9236 690.38L14.5175 693.262L13.4442 687.95C13.1053 686.424 12.8228 684.898 12.5404 683.428L12.0885 680.942L14.2915 679.472C55.189 652.402 110.378 610.525 140.995 564.749L140.938 564.862Z" fill="#E0E0E0"/>
<path d="M126.194 538.978C170.651 473.139 213.695 426.571 261.653 392.437C326.389 346.378 392.762 327.954 453.6 339.2C519.804 351.464 578.156 398.597 617.868 471.896C705.876 634.035 660.403 769.669 606.796 854.892C523.702 988.096 371.353 1070.32 309.725 1099.49L308.256 1100.16L306.844 1099.6C304.81 1098.81 302.89 1098.02 300.912 1097.11L293.908 1093.95L301.364 1090.5C362.654 1062.02 514.099 981.427 596.685 849.184C648.541 766.786 692.432 635.561 607.078 478.338C568.892 407.922 513.252 362.767 450.437 351.181C393.045 340.557 330.004 358.189 268.206 402.157C221.603 435.274 179.632 480.712 136.137 545.138C111.056 582.324 70.1018 622.167 14.4044 663.535L9.82889 666.926L8.8121 661.67C8.47311 659.918 8.1907 658.166 7.90823 656.301L7.62589 654.097L9.54642 652.684C63.0973 612.672 102.413 574.412 126.308 538.978H126.194Z" fill="#E0E0E0"/>
<path d="M111.451 513.151C160.878 440.587 205.448 394.302 260.354 358.359C331.36 311.961 403.947 294.328 470.377 307.496C542.004 321.625 605.158 370.792 648.089 446.012C721.297 574.469 720.055 722.14 644.643 851.219C561.154 994.143 401.97 1079.08 337.404 1108.98L336.105 1109.54L334.805 1109.21C332.659 1108.64 330.625 1107.96 328.479 1107.28L319.271 1104.29L328.027 1100.33C392.423 1071.12 551.155 987.813 634.136 845.85C677.124 772.325 734.685 623.41 637.3 452.681C596.007 380.23 535.508 332.871 466.988 319.364C403.721 306.874 334.354 323.829 266.342 368.305C212.96 403.175 169.578 448.386 121.28 519.311C96.8772 555.141 59.595 593.966 10.5069 634.657L5.59236 638.726L4.68855 632.792C4.40608 630.87 4.23665 629.062 4.0107 627.14L3.84126 625.162L5.47939 623.806C52.421 584.755 88.0651 547.512 111.395 513.208L111.451 513.151Z" fill="#E0E0E0"/>
<path d="M96.7077 487.268C136.023 430.075 182.852 370.736 258.998 324.281C454.843 204.754 607.248 301.28 678.254 420.185C756.038 550.451 757.619 710.216 682.377 847.489C602.955 992.561 452.64 1078.18 370.111 1116.27L369.037 1116.78L367.908 1116.61C365.196 1116.16 362.485 1115.65 359.717 1115.14L348.927 1112.99L359.434 1108.25C442.133 1070.95 592.73 986.74 671.757 842.459C744.853 709.029 743.271 553.728 667.577 427.08C599.227 312.639 452.696 219.673 264.591 334.453C190.761 379.495 144.949 437.479 106.48 493.484C82.5292 528.41 49.3143 565.37 7.62598 603.404L2.25952 608.321L1.63824 601.426C1.46875 599.448 1.35577 597.47 1.2428 595.492L4.85803 594.871L1.18634 595.379L1.0733 593.571L2.48553 592.271C42.1403 555.706 73.7736 520.385 96.5383 487.211L96.7077 487.268Z" fill="#E0E0E0"/>
<path d="M81.9643 461.384C130.544 391.363 179.011 335.47 257.586 290.259C348.193 238.097 440.664 223.799 525.001 248.947C598.549 270.931 663.68 322.529 708.418 394.358C791.908 528.24 796.257 696.257 720.168 843.815C643.4 992.617 493.989 1080.44 411.742 1119.6L410.951 1120H410.104C406.489 1120 402.93 1120 399.315 1119.77L385.193 1118.98L398.524 1112.82C481.618 1074.56 632.498 988.096 709.435 839.068C783.547 695.466 779.198 531.857 697.911 401.423C623.686 282.234 465.18 184.295 262.896 300.658C186.411 344.626 139.187 399.162 91.7933 467.601C68.7461 500.887 39.9936 535.191 6.21371 569.439L0.28244 575.486L0.056427 567.461C-9.15527e-05 565.313 -3.05176e-05 563.109 -3.05176e-05 560.905V559.323L1.12973 558.136C33.1585 525.245 60.3294 492.693 81.9079 461.384H81.9643Z" fill="#E0E0E0"/>
<path d="M67.2209 435.557C110.66 373.335 161.048 308.287 256.117 256.294C353.221 203.227 452.527 189.777 543.247 217.469C621.539 241.318 690.907 295.006 738.583 368.588C843.481 530.388 817.327 718.297 757.902 840.198C690.398 978.545 564.373 1065.63 470.547 1114.29L469.643 1114.74H469.078C464.276 1115.65 459.305 1116.44 454.334 1117.06L433.773 1119.66L452.753 1110.22C549.348 1062.3 678.762 975.832 747.056 835.734C805.069 716.884 830.602 533.666 728.246 375.878C641.423 241.94 463.372 156.321 261.314 266.806C168.73 317.442 119.529 381.077 77.1063 441.887C55.4149 472.969 31.6899 503.035 6.60913 531.292L0.0564575 538.695L0.338928 528.297C0.395447 526.149 0.451965 524.002 0.564941 521.685L0.677856 520.385L1.52521 519.368C24.8549 492.749 46.9982 464.549 67.2209 435.557Z" fill="#E0E0E0"/>
<path d="M3.89771 476.643L4.01074 475.512L4.745 474.608C22.9907 451.211 39.1464 428.662 52.4776 409.617C100.38 341.517 151.897 275.961 254.705 222.273C475.913 106.532 672.322 199.384 768.748 342.761C880.538 508.912 853.141 712.589 795.636 836.525C755.077 924.348 687.687 1001.72 595.611 1066.14L594.538 1066.88C580.755 1075.13 566.746 1082.42 552.906 1088.52L549.969 1082.19C660.347 1014.49 739.317 930.395 784.621 832.286C840.77 711.289 867.658 512.416 758.467 350.164C664.809 210.913 474.218 120.66 259.563 232.897C159.579 285.229 109.135 349.373 62.1935 416.003C48.5233 435.444 30.1647 461.101 9.43353 487.38L1.97711 496.762L2.9939 485.289C3.21985 482.407 3.55884 479.525 3.84125 476.643H3.89771Z" fill="#E0E0E0"/>
</g>
<defs>
<clipPath id="clip0_346_19022">
<rect width="922" height="1392" fill="white" transform="matrix(-1 0 0 1 922 -272)"/>
</clipPath>
</defs>
</svg>
