<svg width="684" height="1032" viewBox="0 0 684 1032" fill="none" xmlns="http://www.w3.org/2000/svg">
<g opacity="0.08" clip-path="url(#clip0_8_2249)">
<path d="M444.001 66.3252L454.352 68.2106L445.803 61.5907C443.498 59.8309 441.193 58.0712 438.846 56.3534L438.301 55.9344L437.673 55.8087C384.577 45.6274 319.957 26.9407 245.531 0.251391L244.902 0L244.232 0.0837968C241.759 0.418984 239.287 0.837968 236.856 1.29885L227.553 3.10048L236.856 6.45236C317.946 35.865 387.636 56.0182 444.001 66.2833V66.3252Z" fill="#E0E0E0"/>
<path d="M482.262 100.263L490.601 102.232L484.525 95.8636C482.932 94.2295 481.298 92.5955 479.621 91.0033L479.035 90.4168L478.239 90.2492C404.148 72.6518 310.361 46.8424 199.601 13.617L198.638 13.3237L197.757 13.7427C196.123 14.4549 194.531 15.251 192.896 16.0471L186.946 19.0219L193.693 21.0749C309.355 55.8087 406.411 82.498 482.22 100.347L482.262 100.263Z" fill="#E0E0E0"/>
<path d="M517.463 140.527L525.677 143.46L520.271 136.463C519.475 135.416 518.636 134.41 517.84 133.405L516.751 132.064L516.667 131.016L514.823 130.388C450.748 107.763 337.935 72.7356 164.4 34.4405L163.226 34.1891L162.304 34.8595C161.047 35.7812 159.79 36.703 158.533 37.6667L154.049 41.1861L159.958 42.485C337.851 81.66 452.55 117.441 517.421 140.569L517.463 140.527Z" fill="#E0E0E0"/>
<path d="M549.899 187.202L558.28 191.518L553.209 183.557C551.994 181.63 550.779 179.744 549.522 177.817L549.061 177.147L548.348 176.769C471.198 137.93 336.804 86.1431 134.562 59.9985L133.305 59.8309L132.467 60.6689C131.377 61.7164 130.288 62.8057 129.24 63.937L125.552 67.8335L131.168 68.5458C337.139 94.8161 472.539 147.608 549.899 187.244V187.202Z" fill="#E0E0E0"/>
<path d="M495.42 189.632C524.755 204.129 552.665 220.26 578.353 237.606L586.525 243.136L582.125 234.38C581.245 232.62 580.365 230.944 579.443 229.226L579.024 228.472L578.94 227.592L577.725 226.796C553.251 210.623 526.724 195.456 498.982 181.713C419.318 142.287 286.851 94.1457 108.119 88.9503H106.862L106.108 89.8721C105.227 91.0033 104.264 92.1346 103.3 93.3078L99.6958 97.6652L105.605 97.8328C283.959 102.484 415.965 150.331 495.336 189.632H495.42Z" fill="#E0E0E0"/>
<path d="M123.624 171.742L126.306 171.951V162.985L123.624 162.775C96.8461 160.513 73.6299 164.745 58.8787 168.683L57.7473 168.976L57.2863 170.024C56.6577 171.448 56.0291 172.915 55.3586 174.381L53.0537 179.87L58.8368 178.236C73.588 174.046 96.7623 169.479 123.624 171.784V171.742Z" fill="#E0E0E0"/>
<path d="M498.396 219.045C535.441 239.659 570.433 263.29 602.492 289.309L610.286 295.635L606.557 286.459C605.635 284.155 604.629 281.893 603.623 279.672L603.33 279.002L602.743 278.541C571.607 253.737 537.872 231.154 502.377 211.377C413.828 162.021 269.502 106.254 84.6096 120.667L83.3524 120.751L82.7238 121.757C81.9694 122.972 81.2151 124.229 80.4608 125.486L82.7238 127.204L80.377 125.653L77.5273 130.346L83.1847 129.885C266.945 114.802 410.392 170.066 498.396 219.045Z" fill="#E0E0E0"/>
<path d="M219.046 154.479C315.138 165.08 462.021 202.83 615.986 322.45L623.152 328.023L620.051 319.643C619.506 318.135 618.919 316.626 618.332 315.118L617.829 313.819L617.746 312.897L616.698 312.101C462.314 193.655 315.306 156.155 219.13 145.555C155.138 138.516 102.755 141.952 70.068 146.016L68.7689 146.184L63.6562 156.03L69.1879 155.317C102.043 151.044 154.677 147.441 219.046 154.521V154.479Z" fill="#E0E0E0"/>
<path d="M44.1276 501.901L35.5368 498.382L34.6567 500.812C34.4891 501.315 16.7207 554.149 9.30322 626.591V627.01L9.34513 627.429C10.1414 631.2 11.0214 634.971 11.9433 638.741L15.8826 655.082L17.2655 638.783C23.8448 561.606 42.9962 505.044 43.2057 504.415L44.0857 501.901H44.1276Z" fill="#E0E0E0"/>
<path d="M30.0889 349.852L30.0051 347.17L20.9951 346.626L21.079 349.307C22.6295 405.828 16.1759 474.458 0.0837402 571.872V572.29V572.668C0.58662 576.815 1.17331 580.922 1.76001 584.986L4.31631 602.038L7.12405 585.489C24.641 481.622 31.7232 408.97 30.1308 349.81L30.0889 349.852Z" fill="#E0E0E0"/>
<path d="M54.6883 473.368L66.2545 436.959L57.6217 433.649L46.0974 470.017L54.6883 473.368Z" fill="#E0E0E0"/>
<path d="M31.5137 326.095C34.9501 298.233 53.5985 280.217 53.7661 280.091L55.7358 278.331L49.1983 271.586L47.3125 273.262C47.3125 273.262 26.3592 292.996 22.5457 324.252L22.2104 326.891L31.1785 328.777L31.5137 326.137V326.095Z" fill="#E0E0E0"/>
<path d="M35.0758 400.214L44.1277 401.303L44.2115 398.622C45.0496 374.195 69.5231 340.131 70.5708 338.623L72.0375 336.528L64.62 330.872L63.0695 332.925C61.9799 334.391 36.0816 369.628 35.1178 397.49L35.0339 400.172L35.0758 400.214Z" fill="#E0E0E0"/>
<path d="M87.8364 357.142L89.7641 355.299L82.8914 348.679L81.0894 350.606C77.8626 354.042 49.1146 386.262 33.8606 452.126L33.2739 454.724L42.1162 457.405L42.7029 454.849C58.1246 388.189 87.5849 357.394 87.8783 357.142H87.8364Z" fill="#E0E0E0"/>
<path d="M93.0327 391.289L85.2381 386.094L65.542 418.146L73.3785 423.342L93.0327 391.289Z" fill="#E0E0E0"/>
<path d="M98.0615 280.929L100.576 280.133L97.2233 271.502L94.7089 272.298C92.7812 272.884 47.6897 287.675 35.2015 334.266L34.531 336.821L43.2476 339.796L43.9181 337.282C55.3167 294.923 96.3433 281.474 98.1034 280.929H98.0615Z" fill="#E0E0E0"/>
<path d="M111.43 222.02L114.07 221.643L111.933 212.76L109.335 213.137C66.6736 219.338 42.3677 234.715 29.4605 246.53L28.5804 247.368L28.6643 248.122L23.2583 266.767L31.2206 258.136C40.9848 247.536 64.4106 228.807 111.388 221.978L111.43 222.02Z" fill="#E0E0E0"/>
<path d="M231.786 187.747C327.626 191.476 474.341 224.157 629.019 358.692L636.268 364.977L633.251 356.053C632.539 354 631.868 351.947 631.156 349.894L631.072 349.056L630.15 348.26C474.635 214.771 327.375 182.384 231.199 178.739C132.593 174.926 62.399 199.269 43.2477 206.811L42.2838 207.188L41.9067 208.151C41.4457 209.408 40.9847 210.665 40.5238 211.964L38.0513 218.919L44.002 216.447C57.2445 210.959 128.444 183.683 231.828 187.705L231.786 187.747Z" fill="#E0E0E0"/>
<path d="M243.184 212.006C133.724 216.154 59.9265 260.524 56.7835 262.452L54.5205 263.834L59.8426 271.544L62.0218 270.203C65.0391 268.359 137.202 224.995 244.441 221.014C339.527 217.411 485.446 244.771 640.669 395.479L647.793 402.434L645.027 393.091C644.356 390.828 643.644 388.566 642.931 386.303L642.722 385.591L642.177 385.046C485.991 235.553 338.983 208.445 243.142 212.006H243.184Z" fill="#E0E0E0"/>
<path d="M445.928 272.256C383.236 246.824 319.035 237.732 255.169 245.273C146.631 258.136 75.6415 315.705 74.971 316.291L73.0852 317.925L79.0779 325.006L81.0894 323.372C81.8018 322.785 151.493 266.683 257.013 254.24C351.094 243.095 495.797 264.966 651.103 432.434L658.269 440.185L655.629 430.213C655.001 427.783 654.33 425.395 653.66 423.006L653.45 422.294L652.947 421.75C586.777 351.444 517.128 301.124 445.928 272.214V272.256Z" fill="#E0E0E0"/>
<path d="M358.511 273.429C203.415 259.351 94.4157 368.916 93.3262 370.005L91.5242 371.89L98.313 378.385L100.115 376.583C101.163 375.494 207.689 268.695 358.553 282.437C462.649 291.906 564.189 354.838 660.365 469.472L667.657 478.145L665.016 467.419C664.43 465.031 663.885 462.642 663.298 460.254L663.214 459.5L662.586 458.788C565.991 345.453 463.697 283.108 358.553 273.513L358.511 273.429Z" fill="#E0E0E0"/>
<path d="M98.8576 442.238C173.619 335.02 324.357 264.672 492.654 349.223C580.197 393.175 616.823 445.38 659.233 505.798C663.256 511.538 667.363 517.362 671.554 523.227L678.426 532.864L676.373 521.552C675.87 518.828 675.409 516.189 674.906 513.717L674.822 512.962L674.361 512.292C671.679 508.521 669.081 504.792 666.441 501.063C623.193 439.556 585.855 386.387 496.132 341.305C323.016 254.323 168.045 326.556 91.2725 436.707C21.0789 537.347 26.1077 653.113 35.3272 713.153L35.4948 713.74C37.674 719.522 39.8531 725.22 42.1161 730.834L47.2706 729.745C26.6106 623.7 45.4267 518.954 98.8576 442.28V442.238Z" fill="#E0E0E0"/>
<path d="M466.169 730.248C450.287 689.355 442.744 685.039 437.002 686.464C422.335 689.983 435.913 743.32 436.08 743.864C443.624 772.733 562.974 838.974 613.89 866.082L616.195 867.339L620.428 859.756L617.788 858.373C537.62 815.595 450.035 762.635 444.713 742.356C438.762 719.522 438.595 701.673 439.852 696.31C442.157 698.866 447.73 707.12 457.704 732.803C481.465 794.017 573.115 829.631 625.624 845.384L627.678 846.013L628.6 844.211C629.186 843.08 629.731 841.949 630.318 840.817L631.743 837.885L628.432 836.879C577.222 821.335 488.045 786.81 466.086 730.248H466.169Z" fill="#E0E0E0"/>
<path d="M478.364 715.835C462.272 678.713 449.616 662.414 437.38 663.21C424.891 663.797 416.552 681.981 410.392 722.203C402.094 776.168 554.509 861.641 601.444 886.529L603.581 887.66L604.838 885.858C605.551 884.853 606.179 883.805 606.808 882.8L608.317 880.37L605.593 878.903C511.764 828.835 413.577 761.923 419.36 724.382C426.526 677.791 435.242 672.386 438.846 672.218C441.445 672.218 451.418 675.57 470.151 718.809C488.925 762.551 543.655 800.176 632.79 830.72L635.053 831.474L635.975 829.421C636.227 828.918 636.436 828.374 636.687 827.871C636.939 827.326 637.19 826.782 637.442 826.237L638.657 823.472L635.598 822.424C550.15 793.263 495.797 756.434 478.406 715.876L478.364 715.835Z" fill="#E0E0E0"/>
<path d="M490.559 701.422C470.234 658.853 451.502 638.071 433.063 637.904C414.75 637.904 399.035 658.769 384.996 701.757C359.517 779.562 533.807 878.107 587.824 906.472L589.878 907.562L595.074 900.439L592.099 898.889C554.802 879.197 369.952 777.3 393.587 705.192C406.075 667.065 419.988 646.912 434.027 646.912C447.73 647.079 464.493 667.065 482.471 704.732C502.419 746.462 553.67 782.788 639.244 815.762L641.465 816.642L642.47 814.631C643.015 813.5 643.518 812.369 643.937 811.195L644.901 808.598L642.177 807.55C558.909 775.498 509.333 740.764 490.601 701.463L490.559 701.422Z" fill="#E0E0E0"/>
<path d="M502.712 687.05C476.604 637.401 450.915 611.885 426.358 611.13C402.01 610.586 379.59 634.133 359.559 681.562C339.569 728.865 371.586 786.768 452.172 849.03C502.335 887.786 557.358 917.408 573.031 925.578L574.959 926.583L576.258 925.033C577.012 924.112 577.767 923.232 578.521 922.268L580.532 919.754L577.431 918.12C535.315 896.165 327.333 781.657 367.898 685.626C386.505 641.59 406.285 619.552 426.861 620.097C447.605 620.725 470.486 644.44 494.792 690.612C522.45 743.11 593.901 778.515 645.236 800.595L647.751 801.684L649.092 798.207C649.385 797.453 649.678 796.74 649.93 795.986L650.768 793.556L648.254 792.467C598.301 770.973 528.862 736.658 502.712 687.008V687.05Z" fill="#E0E0E0"/>
<path d="M514.865 672.637C480.669 613.644 448.904 584.483 417.683 583.519C387.511 582.597 359.475 608.91 334.038 661.618C321.298 687.93 320.669 716.421 332.194 746.295C369.365 842.87 525.802 928.008 556.813 944.097L558.615 945.019L559.914 943.636C560.711 942.798 561.465 941.96 562.387 940.955L564.734 938.399L561.423 936.681C530.873 920.885 376.699 837.34 340.617 743.655C330.057 716.253 330.601 690.109 342.293 665.975C365.887 617.164 391.073 592.444 417.222 592.444C417.558 592.444 417.893 592.444 418.27 592.444C445.803 593.282 474.886 620.767 507.196 676.534C535.525 725.471 598.846 760.289 650.894 785.176L653.492 786.433L654.456 783.919C654.875 782.83 655.252 781.699 655.629 780.568L656.384 778.263L654.037 777.132C603.372 752.831 541.769 718.977 514.949 672.595L514.865 672.637Z" fill="#E0E0E0"/>
<path d="M527.018 658.224C496.971 610.921 456.238 556.453 407.877 555.322H406.452C371.586 555.322 338.648 584.357 308.559 641.632C291.042 675.025 289.114 710.723 302.817 747.677C342.712 855.398 506.609 944.893 539.087 961.736L540.805 962.616L542.104 961.401C543.026 960.563 543.948 959.725 544.828 958.845L547.51 956.29L543.948 954.446C511.931 937.98 350.298 850.496 311.282 745.205C298.543 710.765 300.345 677.497 316.73 646.325C345.688 591.061 376.573 563.324 408.59 564.246C452.256 565.294 490.852 617.289 519.6 662.498C548.767 708.46 604.922 742.356 656.048 769.464L658.814 770.931L659.736 768.166C660.113 766.992 660.49 765.861 660.784 764.688L661.371 762.551L659.275 761.462C609.532 734.94 554.886 701.924 527.102 658.224H527.018Z" fill="#E0E0E0"/>
<path d="M539.129 643.727L538.374 642.722C508.327 599.608 458.081 527.417 396.981 526.705H396.143C355.955 526.705 317.862 558.674 282.953 621.731C260.366 662.288 256.971 705.192 272.77 749.311C313.755 863.526 471.869 953.566 519.349 978.454L520.941 979.292L522.534 978.035C523.456 977.323 524.378 976.61 525.258 975.814L528.233 973.3L524.503 971.373C491.104 953.985 322.388 861.557 281.235 746.965C266.317 705.402 269.585 664.928 290.958 626.591C324.567 565.838 360.523 535.21 397.694 535.713C453.849 536.384 502.251 605.935 531.124 647.456L531.837 648.462C562.261 692.162 616.656 727.482 660.616 753.334L663.549 755.051L665.98 746.462L664.01 745.289C621.224 720.066 568.338 685.71 539.087 643.727H539.129Z" fill="#E0E0E0"/>
<path d="M551.282 629.398C549.773 627.387 548.181 625.292 546.504 623.071L542.523 617.792C509.166 573.087 453.304 498.256 385.96 498.088C340.491 498.088 297.286 532.99 257.474 601.787C229.732 649.803 224.829 700.164 242.891 751.406C285.803 873.289 448.736 967.895 497.641 993.956L499.108 994.752L507.364 989.264L503.215 987.085C454.813 961.527 293.514 868.806 251.398 749.144C234.258 700.458 238.952 652.568 265.395 606.815C303.655 540.657 344.472 507.097 386.924 507.097C449.239 507.222 503.215 579.539 535.483 622.736C538.584 626.926 541.517 630.864 544.241 634.426C576.132 676.282 625.456 711.016 664.849 736.574L667.95 738.585L668.83 735.233C669.123 734.06 669.416 732.845 669.71 731.63L670.129 729.745L668.411 728.613C630.108 703.684 582.209 669.914 551.282 629.398Z" fill="#E0E0E0"/>
<path d="M579.443 620.432C499.359 500.686 427.825 475.086 381.937 474.709C327.626 474.458 280.02 508.354 248.003 570.615C210.12 644.23 205.175 716.463 233.252 785.302C281.822 904.294 416.552 981.093 472.246 1008.62L473.461 1009.21L474.592 1008.66C475.934 1008.03 477.275 1007.32 478.616 1006.61L483.1 1004.22L478.196 1001.83C435.116 980.842 290.748 902.995 241.592 782.537C214.52 716.295 219.423 646.535 256.091 575.223C286.474 516.189 331.104 483.675 381.727 483.675H382.649C426.19 484.011 494.414 508.773 572.067 624.915C595.87 660.571 638.447 692.749 669.961 713.488L673.23 715.625L674.026 711.687C674.278 710.555 674.487 709.424 674.697 708.335L675.032 706.491L673.398 705.402C643.057 685.333 602.114 654.286 579.401 620.348L579.443 620.432Z" fill="#E0E0E0"/>
<path d="M590.381 601.242C557.4 552.431 525.467 517.906 489.888 492.6C441.863 458.453 392.623 444.794 347.49 453.131C298.375 462.223 255.086 497.167 225.625 551.509C160.335 671.715 194.07 772.272 233.839 835.455C295.484 934.209 408.506 995.171 454.226 1016.79L455.316 1017.29L456.363 1016.87C457.872 1016.29 459.297 1015.7 460.763 1015.03L465.96 1012.68L460.428 1010.13C414.959 989.012 302.608 929.265 241.34 831.223C202.87 770.135 170.309 672.847 233.629 556.285C261.958 504.08 303.236 470.603 349.837 462.014C392.414 454.137 439.181 467.209 485.027 499.806C519.6 524.359 550.737 558.045 583.005 605.809C601.612 633.378 631.994 662.917 673.314 693.586L676.708 696.1L677.463 692.204C677.714 690.905 677.924 689.606 678.133 688.223L678.343 686.589L676.918 685.542C637.19 655.878 608.023 627.513 590.297 601.242H590.381Z" fill="#E0E0E0"/>
<path d="M601.318 582.095C564.65 528.297 531.586 493.982 490.852 467.335C438.176 432.936 384.326 419.864 335.043 429.626C281.906 440.101 235.054 476.553 203.205 532.319C148.894 627.555 149.816 737.035 205.762 832.731C267.699 938.692 385.792 1001.67 433.692 1023.83L434.656 1024.25L435.619 1024C437.212 1023.58 438.72 1023.08 440.313 1022.57L447.144 1020.35L440.648 1017.42C392.875 995.758 275.117 934 213.556 828.751C181.665 774.241 138.962 663.839 211.209 537.263C241.843 483.55 286.725 448.439 337.558 438.425C384.493 429.166 435.955 441.735 486.41 474.709C526.012 500.56 558.196 534.079 594.026 586.662C612.13 613.225 639.788 642.01 676.205 672.176L679.851 675.193L680.522 670.794C680.731 669.369 680.857 668.028 681.025 666.604L681.15 665.137L679.935 664.132C645.111 635.18 618.667 607.569 601.36 582.137L601.318 582.095Z" fill="#E0E0E0"/>
<path d="M612.256 562.905C583.089 520.504 548.348 476.511 491.858 442.07C346.568 353.455 233.504 425.018 180.827 513.172C123.122 609.748 121.948 728.195 177.768 829.966C236.689 937.519 348.202 1001 409.428 1029.23L410.224 1029.61L411.062 1029.49C413.074 1029.15 415.085 1028.77 417.139 1028.4L425.143 1026.8L417.348 1023.29C355.997 995.632 244.274 933.204 185.646 826.237C131.419 727.315 132.593 612.178 188.748 518.284C239.455 433.439 348.16 364.516 487.709 449.612C542.481 483.005 576.468 525.993 605.006 567.514C622.775 593.407 647.416 620.809 678.343 649.007L682.324 652.652L682.785 647.54C682.91 646.074 682.994 644.607 683.078 643.141L680.396 642.68L683.12 643.057L683.204 641.716L682.156 640.753C652.738 613.644 629.27 587.458 612.382 562.863L612.256 562.905Z" fill="#E0E0E0"/>
<path d="M623.194 543.716C587.154 491.804 551.198 450.366 492.906 416.847C425.688 378.175 357.086 367.575 294.52 386.22C239.957 402.518 191.639 440.771 158.449 494.024C96.5111 593.282 93.2843 717.846 149.732 827.242C206.684 937.561 317.527 1002.67 378.543 1031.71L379.129 1032H379.758C382.44 1032 385.08 1032 387.762 1031.83L398.239 1031.25L388.349 1026.68C326.704 998.314 214.772 934.209 157.695 823.723C102.713 717.259 105.94 595.963 166.244 499.262C221.309 410.898 338.899 338.288 488.967 424.557C545.708 457.154 580.742 497.586 615.902 548.325C633 573.003 654.33 598.435 679.39 623.826L683.791 628.309L683.958 622.359C684 620.767 684 619.133 684 617.499V616.326L683.162 615.446C659.401 591.061 639.244 566.928 623.235 543.716H623.194Z" fill="#E0E0E0"/>
<path d="M634.131 524.568C601.905 478.438 564.524 430.213 493.995 391.666C421.958 352.324 348.286 342.352 280.984 362.882C222.901 380.563 171.44 420.367 136.071 474.919C58.2502 594.874 77.6529 734.186 121.739 824.561C171.817 927.128 265.311 991.694 334.918 1027.77L335.588 1028.1H336.007C339.569 1028.77 343.257 1029.36 346.945 1029.82L362.199 1031.75L348.118 1024.75C276.458 989.222 180.45 925.117 129.785 821.251C86.7467 733.139 67.8049 597.304 143.74 480.323C208.15 381.024 340.24 317.548 490.14 399.459C558.825 437 595.326 484.178 626.797 529.261C642.89 552.305 660.49 574.595 679.097 595.544L683.958 601.033L683.749 593.324C683.707 591.731 683.665 590.139 683.581 588.421L683.497 587.458L682.868 586.704C665.561 566.969 649.134 546.062 634.131 524.568Z" fill="#E0E0E0"/>
<path d="M681.109 555.028L681.025 554.19L680.48 553.52C666.944 536.174 654.959 519.457 645.069 505.337C609.532 454.849 571.313 406.247 495.043 366.444C330.937 280.636 185.227 349.475 113.693 455.771C30.7596 578.952 51.0843 729.954 93.7452 821.838C123.834 886.948 173.829 944.307 242.137 992.071L242.933 992.616C253.158 998.733 263.551 1004.14 273.818 1008.66L275.997 1003.97C194.112 953.776 135.526 891.431 101.917 818.695C60.2618 728.991 40.3143 581.55 121.32 461.26C190.801 358.022 332.194 291.11 491.439 374.32C565.614 413.118 603.036 460.673 637.861 510.071C648.002 524.484 661.622 543.506 677.002 562.989L682.533 569.944L681.779 561.439C681.611 559.302 681.36 557.165 681.15 555.028H681.109Z" fill="#E0E0E0"/>
<path d="M314.928 0.544703C309.313 0.0838202 303.572 0.0419218 297.621 0.87989C330.14 12.5277 385.248 28.6585 403.351 32.1361C386.17 19.6085 336.175 2.30444 314.928 0.502804V0.544703Z" fill="#E0E0E0"/>
</g>
<defs>
<clipPath id="clip0_8_2249">
<rect width="684" height="1032" fill="white"/>
</clipPath>
</defs>
</svg>
