<svg width="33" height="40" viewBox="0 0 33 40" fill="none" xmlns="http://www.w3.org/2000/svg">
<g clip-path="url(#clip0_727_1287)">
<path fill-rule="evenodd" clip-rule="evenodd" d="M12.8119 30.5949C13.8893 30.02 15.0321 29.6118 16.1701 29.6118C17.0273 29.6118 18.0637 29.9418 19.1023 30.3914C20.1679 30.8526 21.3409 31.4873 22.5055 32.1927C24.8329 33.6023 27.1978 35.3373 28.7107 36.6527L27.5431 37.9957C26.1141 36.7534 23.8329 35.0772 21.5836 33.7149C20.4599 33.0344 19.3618 32.443 18.3954 32.0246C17.4019 31.5946 16.6453 31.3915 16.1701 31.3915C15.4434 31.3915 14.6002 31.6578 13.6497 32.165C12.7062 32.6685 11.7205 33.3747 10.7226 34.1754C9.8431 34.8811 8.97737 35.641 8.13608 36.3795C8.02337 36.4784 7.9111 36.577 7.79929 36.6749C6.86508 37.4936 5.95303 38.282 5.13026 38.8746L4.09009 37.4306C4.83279 36.8956 5.68229 36.1638 6.62637 35.3365C6.73678 35.2397 6.84836 35.1418 6.96101 35.0429C7.79917 34.3071 8.69634 33.5196 9.60882 32.7874C10.6433 31.9573 11.7275 31.1736 12.8119 30.5949Z" fill="#1C211D"/>
<path fill-rule="evenodd" clip-rule="evenodd" d="M0.236572 0.855407C0.236572 0.363967 0.634963 -0.0344238 1.1264 -0.0344238H31.2893C31.7807 -0.0344238 32.1791 0.363967 32.1791 0.855407C32.1791 1.34685 31.7807 1.74524 31.2893 1.74524H1.1264C0.634963 1.74524 0.236572 1.34685 0.236572 0.855407Z" fill="#1C211D"/>
<path fill-rule="evenodd" clip-rule="evenodd" d="M0.236572 39.1447C0.236572 38.6533 0.634963 38.2549 1.1264 38.2549H31.2893C31.7807 38.2549 32.1791 38.6533 32.1791 39.1447C32.1791 39.6362 31.7807 40.0345 31.2893 40.0345H1.1264C0.634963 40.0345 0.236572 39.6362 0.236572 39.1447Z" fill="#1C211D"/>
<path fill-rule="evenodd" clip-rule="evenodd" d="M3.38623 12.0373V1.4917H5.16589V12.0373C5.16589 12.8295 5.51589 13.5178 6.14956 14.1679C6.79596 14.831 7.68964 15.4026 8.6576 15.9293C9.11299 16.1771 9.5696 16.4072 10.0141 16.6311L10.0854 16.667C10.5451 16.8987 10.9987 17.1282 11.3931 17.3532C11.7799 17.5738 12.1627 17.8193 12.4573 18.0957C12.738 18.359 13.0783 18.7813 13.0783 19.3576V20.8065C13.0783 21.3827 12.738 21.805 12.4573 22.0684C12.1627 22.3448 11.7799 22.5902 11.3931 22.8109C10.9987 23.0358 10.5451 23.2654 10.0854 23.4971L10.0141 23.533C9.56958 23.7569 9.11298 23.9869 8.6576 24.2347C7.68964 24.7615 6.79596 25.333 6.14956 25.9962C5.51589 26.6462 5.16589 27.3345 5.16589 28.1267V38.937H3.38623V28.1267C3.38623 26.7361 4.02529 25.6258 4.87518 24.7539C5.71236 23.8951 6.79679 23.2213 7.80693 22.6716C8.28799 22.4098 8.76784 22.168 9.20749 21.9466L9.28451 21.9078C9.75202 21.6722 10.1638 21.4633 10.5112 21.2651C10.8662 21.0626 11.1015 20.9001 11.2396 20.7706C11.2662 20.7457 11.2852 20.7257 11.2986 20.7105V19.4536C11.2852 19.4384 11.2662 19.4184 11.2396 19.3935C11.1015 19.2639 10.8662 19.1015 10.5112 18.899C10.1638 18.7008 9.75202 18.4919 9.28451 18.2563C9.25895 18.2434 9.23324 18.2305 9.20739 18.2174C8.76777 17.996 8.28795 17.7543 7.80693 17.4925C6.79679 16.9428 5.71236 16.269 4.87518 15.4101C4.02529 14.5382 3.38623 13.428 3.38623 12.0373ZM11.3268 19.4901C11.3267 19.4901 11.3257 19.4886 11.3241 19.4856C11.3261 19.4886 11.3269 19.4901 11.3268 19.4901ZM11.3268 20.674C11.3269 20.6739 11.3261 20.6754 11.3241 20.6784C11.3257 20.6755 11.3267 20.674 11.3268 20.674Z" fill="#1C211D"/>
<path fill-rule="evenodd" clip-rule="evenodd" d="M28.1394 0.532471C28.6308 0.532471 29.0292 0.930861 29.0292 1.4223V12.0373C29.0292 13.4279 28.3902 14.5382 27.5403 15.4101C26.7031 16.2689 25.6187 16.9427 24.6085 17.4924C24.1275 17.7542 23.6476 17.996 23.208 18.2174C23.1822 18.2304 23.1565 18.2434 23.1309 18.2562C22.6634 18.4918 22.2517 18.7007 21.9042 18.8989C21.5492 19.1014 21.3139 19.2639 21.1758 19.3934C21.1493 19.4183 21.1302 19.4383 21.1168 19.4535V20.7104C21.1302 20.7256 21.1493 20.7456 21.1758 20.7705C21.3139 20.9001 21.5492 21.0625 21.9042 21.265C22.2517 21.4632 22.6634 21.6721 23.1309 21.9077C23.1565 21.9206 23.1822 21.9335 23.2081 21.9466C23.6477 22.168 24.1275 22.4097 24.6085 22.6715C25.6187 23.2212 26.7031 23.895 27.5403 24.7539C28.3902 25.6258 29.0292 26.736 29.0292 28.1267V38.4645C29.0292 38.9559 28.6308 39.3543 28.1394 39.3543C27.648 39.3543 27.2496 38.9559 27.2496 38.4645V28.1267C27.2496 27.3345 26.8996 26.6462 26.2659 25.9961C25.6195 25.333 24.7258 24.7614 23.7579 24.2347C23.3025 23.9869 22.8459 23.7568 22.4013 23.5329L22.3301 23.497C21.8704 23.2653 21.4167 23.0358 21.0224 22.8108C20.6356 22.5902 20.2527 22.3447 19.9581 22.0683C19.6775 21.805 19.3372 21.3827 19.3372 20.8064V19.3575C19.3372 18.7813 19.6775 18.359 19.9581 18.0956C20.2527 17.8192 20.6356 17.5738 21.0224 17.3531C21.4167 17.1282 21.8704 16.8986 22.3301 16.6669C22.3538 16.655 22.3775 16.643 22.4013 16.6311C22.8459 16.4071 23.3025 16.1771 23.7579 15.9293C24.7258 15.4025 25.6195 14.831 26.2659 14.1678C26.8996 13.5178 27.2496 12.8295 27.2496 12.0373V1.4223C27.2496 0.930861 27.648 0.532471 28.1394 0.532471ZM21.0887 20.6739C21.0888 20.6739 21.0898 20.6754 21.0913 20.6784C21.0893 20.6754 21.0885 20.6739 21.0887 20.6739ZM21.0887 19.49C21.0885 19.4901 21.0893 19.4886 21.0913 19.4856C21.0898 19.4885 21.0888 19.49 21.0887 19.49Z" fill="#1C211D"/>
<path fill-rule="evenodd" clip-rule="evenodd" d="M8.90649 10.6372H23.4903V12.4169H8.90649V10.6372Z" fill="#1C211D"/>
<path fill-rule="evenodd" clip-rule="evenodd" d="M15.2411 20.4063C13.3382 17.5586 12.6744 13.7504 12.6282 11.5774L14.4074 11.5396C14.4494 13.5118 15.0707 16.9482 16.7208 19.4175L15.2411 20.4063Z" fill="#1C211D"/>
<path fill-rule="evenodd" clip-rule="evenodd" d="M15.6768 19.4163C17.3072 16.9852 17.9294 13.5798 17.9895 11.6133L19.7684 11.6677C19.7025 13.8211 19.0395 17.5974 17.1548 20.4076L15.6768 19.4163Z" fill="#1C211D"/>
<path fill-rule="evenodd" clip-rule="evenodd" d="M17.1555 3.84473C19.0217 6.63743 19.7137 9.232 19.7684 11.4802L17.9892 11.5235C17.9431 9.62654 17.3626 7.35775 15.6758 4.83352L17.1555 3.84473Z" fill="#1C211D"/>
<path fill-rule="evenodd" clip-rule="evenodd" d="M16.72 4.83478C15.0516 7.32241 14.4649 9.56762 14.4072 11.4473L12.6284 11.3927C12.6968 9.16496 13.3952 6.59722 15.242 3.84351L16.72 4.83478Z" fill="#1C211D"/>
<path fill-rule="evenodd" clip-rule="evenodd" d="M16.1952 5.14075C12.6675 5.14075 9.80261 8.00559 9.80261 11.5334C9.80261 14.3201 11.5825 16.693 14.0709 17.5667C14.1348 17.5891 14.1959 17.6188 14.253 17.655L13.7761 18.4063C14.253 17.655 14.2528 17.6549 14.253 17.655L14.255 17.6563L14.2579 17.6582L14.2664 17.6636L14.2934 17.6813C14.3158 17.696 14.3467 17.7167 14.385 17.7431C14.4615 17.7957 14.5678 17.8712 14.6941 17.967C14.9452 18.1576 15.2827 18.4345 15.6236 18.778C15.8134 18.9693 16.02 19.1969 16.2169 19.4558C16.4076 19.2116 16.6114 18.9875 16.8069 18.7899C17.138 18.4554 17.4657 18.1765 17.7091 17.9821C17.8315 17.8844 17.9343 17.8066 18.0078 17.7523C18.0447 17.7251 18.0742 17.7037 18.0954 17.6886L18.1208 17.6706L18.1285 17.6652L18.131 17.6635L18.132 17.6628C18.1321 17.6627 18.1327 17.6623 18.6395 18.3937L18.1327 17.6623C18.1972 17.6176 18.2673 17.5816 18.3413 17.5553C20.8141 16.6757 22.5878 14.3135 22.5878 11.5334C22.5878 7.99979 19.7235 5.14075 16.1952 5.14075ZM19.0604 19.1873C22.1554 18.0299 24.3675 15.0445 24.3675 11.5334C24.3675 7.01591 20.7054 3.36108 16.1952 3.36108C11.6846 3.36108 8.02295 7.02271 8.02295 11.5334C8.02295 15.0561 10.2484 18.0597 13.3729 19.2069C13.374 19.2077 13.3751 19.2085 13.3763 19.2093C13.4328 19.2481 13.5164 19.3074 13.6181 19.3846C13.8229 19.5401 14.0933 19.7625 14.3603 20.0316C14.9355 20.6112 15.318 21.2295 15.318 21.764V23.4335C15.318 23.9249 15.7164 24.3233 16.2078 24.3233C16.6993 24.3233 17.0976 23.9249 17.0976 23.4335V21.8169C17.1182 21.7418 17.1291 21.6629 17.1291 21.5814C17.1291 21.4266 17.194 21.1998 17.3748 20.9022C17.551 20.6122 17.7999 20.3166 18.0719 20.0417C18.3408 19.77 18.6132 19.5377 18.8198 19.3726C18.9198 19.2928 19.0028 19.2299 19.0604 19.1873Z" fill="#1C211D"/>
<path fill-rule="evenodd" clip-rule="evenodd" d="M16.1699 25.6116C16.6613 25.6116 17.0597 26.01 17.0597 26.5014V27.585C17.0597 28.0764 16.6613 28.4748 16.1699 28.4748C15.6784 28.4748 15.28 28.0764 15.28 27.585V26.5014C15.28 26.01 15.6784 25.6116 16.1699 25.6116Z" fill="#1C211D"/>
</g>
<defs>
<clipPath id="clip0_727_1287">
<rect width="31.7378" height="39.8644" fill="white" transform="translate(0.338867 0.0678711)"/>
</clipPath>
</defs>
</svg>
