<svg width="44" height="32" viewBox="0 0 44 32" fill="none" xmlns="http://www.w3.org/2000/svg">
<path d="M37 16C37 13.536 36.908 11.094 36.724 8.676C36.5825 6.7603 35.7574 4.95919 34.3991 3.60089C33.0408 2.24259 31.2397 1.41751 29.324 1.276C24.4483 0.908162 19.5517 0.908162 14.676 1.276C12.7603 1.41751 10.9592 2.24259 9.60089 3.60089C8.24259 4.95919 7.41751 6.7603 7.276 8.676C7.242 9.116 7.212 9.558 7.184 10M37 16L43 10M37 16L31 10M7 16C7 18.464 7.092 20.906 7.276 23.324C7.41751 25.2397 8.24259 27.0408 9.60089 28.3991C10.9592 29.7574 12.7603 30.5825 14.676 30.724C19.5517 31.092 24.4483 31.092 29.324 30.724C31.2397 30.5825 33.0408 29.7574 34.3991 28.3991C35.7574 27.0408 36.5825 25.2397 36.724 23.324C36.758 22.884 36.788 22.442 36.816 22M7 16L13 22M7 16L1 22" stroke="black" stroke-width="1.5" stroke-linecap="round" stroke-linejoin="round"/>
</svg>
