<svg width="32" height="28" viewBox="0 0 32 28" fill="none" xmlns="http://www.w3.org/2000/svg">
<path d="M16 3.69835L27.9225 24.2975H4.07753L16 3.69835ZM1.33836 22.7142C0.119196 24.82 1.6392 27.4642 4.07753 27.4642H27.9225C30.3609 27.4642 31.8809 24.82 30.6617 22.7142L18.7392 2.11502C17.52 0.00918615 14.48 0.00918615 13.2609 2.11502L1.33836 22.7142ZM14.4167 11.6309V14.7975C14.4167 15.6684 15.1292 16.3809 16 16.3809C16.8709 16.3809 17.5834 15.6684 17.5834 14.7975V11.6309C17.5834 10.76 16.8709 10.0475 16 10.0475C15.1292 10.0475 14.4167 10.76 14.4167 11.6309ZM14.4167 19.5475H17.5834V22.7142H14.4167V19.5475Z" fill="#E02F2F"/>
</svg>
