<svg width="123" height="123" viewBox="0 0 123 123" fill="none" xmlns="http://www.w3.org/2000/svg">
<path fill-rule="evenodd" clip-rule="evenodd" d="M88.5013 81.7754C89.1753 81.3867 89.4065 80.5257 89.0179 79.8516L88.0167 78.1173C87.628 77.4433 86.767 77.2121 86.0929 77.6007C85.4189 77.9894 85.1876 78.8504 85.5763 79.5245L86.5775 81.2588C86.9662 81.9328 87.8272 82.164 88.5013 81.7754Z" fill="#1C211D"/>
<path fill-rule="evenodd" clip-rule="evenodd" d="M77.1429 81.1037C77.8169 80.7151 78.0481 79.854 77.6595 79.18L76.6582 77.4457C76.2696 76.7717 75.4086 76.5404 74.7345 76.9291C74.0605 77.3178 73.8293 78.1788 74.2179 78.8528L75.2191 80.5871C75.6078 81.2612 76.4688 81.4924 77.1429 81.1037Z" fill="#1C211D"/>
<path fill-rule="evenodd" clip-rule="evenodd" d="M99.8616 81.1037C100.536 80.7151 100.767 79.854 100.378 79.18L99.377 77.4457C98.9883 76.7717 98.1273 76.5404 97.4533 76.9291C96.7792 77.3178 96.548 78.1788 96.9367 78.8528L97.9379 80.5871C98.3266 81.2612 99.1876 81.4924 99.8616 81.1037Z" fill="#1C211D"/>
<path fill-rule="evenodd" clip-rule="evenodd" d="M103.01 74.4592C103.684 74.0705 103.915 73.2095 103.527 72.5355L102.525 70.8012C102.137 70.1271 101.276 69.8959 100.602 70.2846C99.9277 70.6733 99.6964 71.5343 100.085 72.2083L101.086 73.9426C101.475 74.6166 102.336 74.8479 103.01 74.4592Z" fill="#1C211D"/>
<path fill-rule="evenodd" clip-rule="evenodd" d="M92.7151 76.5503C93.3892 76.1616 93.6204 75.3006 93.2317 74.6265L92.2305 72.8922C91.8418 72.2182 90.9808 71.987 90.3068 72.3756C89.6328 72.7643 89.4015 73.6253 89.7902 74.2994L90.7914 76.0337C91.1801 76.7077 92.0411 76.9389 92.7151 76.5503Z" fill="#1C211D"/>
<path fill-rule="evenodd" clip-rule="evenodd" d="M82.5726 76.5503C83.2466 76.1616 83.4778 75.3006 83.0892 74.6265L82.0879 72.8922C81.6993 72.2182 80.8383 71.987 80.1642 72.3756C79.4902 72.7643 79.2589 73.6253 79.6476 74.2994L80.6488 76.0337C81.0375 76.7077 81.8985 76.9389 82.5726 76.5503Z" fill="#1C211D"/>
<path fill-rule="evenodd" clip-rule="evenodd" d="M95.9349 69.9082C96.6089 69.5195 96.8401 68.6585 96.4515 67.9845L95.4502 66.2502C95.0616 65.5761 94.2006 65.3449 93.5265 65.7336C92.8525 66.1222 92.6212 66.9832 93.0099 67.6573L94.0111 69.3916C94.3998 70.0656 95.2608 70.2969 95.9349 69.9082Z" fill="#1C211D"/>
<path fill-rule="evenodd" clip-rule="evenodd" d="M103.256 65.3547C103.93 64.966 104.161 64.105 103.773 63.431L102.772 61.6967C102.383 61.0226 101.522 60.7914 100.848 61.1801C100.174 61.5688 99.9425 62.4298 100.331 63.1038L101.332 64.8381C101.721 65.5121 102.582 65.7434 103.256 65.3547Z" fill="#1C211D"/>
<path fill-rule="evenodd" clip-rule="evenodd" d="M86.6761 69.9082C87.3501 69.5195 87.5814 68.6585 87.1927 67.9845L86.1914 66.2502C85.8028 65.5761 84.9418 65.3449 84.2677 65.7336C83.5937 66.1222 83.3625 66.9832 83.7511 67.6573L84.7523 69.3916C85.141 70.0656 86.002 70.2969 86.6761 69.9082Z" fill="#1C211D"/>
<path d="M110.88 51.6279L107.583 48.3709C106.031 46.8408 104.201 46.0314 102.285 46.0314H100.659L105.519 32.0094C105.677 31.5592 105.603 31.0599 105.328 30.6712C105.05 30.2825 104.602 30.0513 104.125 30.0513H99.9845C96.2674 30.0513 92.789 31.7044 90.4397 34.585L86.8997 38.9319C85.1138 41.1237 82.4693 42.3783 79.6427 42.3783H59.9209C58.5876 39.3574 55.5642 37.2468 52.0587 37.2468H45.2519C41.7464 37.2468 38.7231 39.3574 37.3898 42.3783H33.3972C30.1008 42.3783 27.4194 45.0597 27.4194 48.3561V51.0744H20.583L21.936 41.8519C22.7528 37.9946 21.5769 34.0291 18.7848 31.2394C17.8574 30.3096 16.4748 30.034 15.2596 30.5359C14.0468 31.0402 13.2621 32.2136 13.2621 33.5272V51.3647C11.8328 51.9477 10.8242 53.3524 10.8242 54.9883C10.8242 56.6242 11.8328 58.0288 13.2621 58.6119V76.4518C13.2621 77.7654 14.0468 78.9388 15.2596 79.4407C15.663 79.608 16.0837 79.6891 16.5019 79.6891C17.3408 79.6891 18.1649 79.3595 18.7872 78.7396C21.5769 75.9475 22.7528 71.9844 21.936 68.1247L20.583 58.9021H27.4194V58.9858C27.4194 62.2797 30.1008 64.9611 33.3972 64.9611H34.3812C34.76 67.9845 37.3455 70.3288 40.4672 70.3288H77.66C78.2577 70.3288 78.7965 69.9697 79.0228 69.4162C79.2516 68.8651 79.1237 68.228 78.7005 67.8074L77.3229 66.4371C76.5431 65.6622 75.7362 64.9218 74.9023 64.2231C81.131 63.4851 84.6242 62.324 86.9194 61.3597C89.4212 60.3093 92.3978 58.1174 94.9611 55.4089H109.591C110.358 55.4089 111.03 54.9366 111.342 54.174C111.701 53.3007 111.512 52.2528 110.88 51.6279ZM39.6136 45.8346C39.6136 45.6649 39.621 45.4951 39.6382 45.3303C39.7341 44.2233 40.1548 43.2073 40.8042 42.3783C41.835 41.0524 43.4463 40.1988 45.2519 40.1988H52.0587C53.8644 40.1988 55.4757 41.0524 56.5064 42.3783C57.1559 43.2073 57.5765 44.2233 57.6725 45.3303C57.6897 45.4951 57.6971 45.6649 57.6971 45.8346V46.3438H39.6136V45.8346ZM16.2141 33.5272C16.2141 33.478 16.2141 33.3378 16.3887 33.264C16.5634 33.1927 16.6667 33.2935 16.6987 33.3255C18.7897 35.4165 19.6655 38.3907 19.0406 41.2787C19.0332 41.3107 19.0259 41.3451 19.0234 41.3771L17.5991 51.0744H16.2141V33.5272ZM19.0234 68.6019C19.0259 68.6339 19.0332 68.6659 19.0406 68.6979C19.6655 71.5884 18.7897 74.5625 16.6987 76.651C16.6643 76.6855 16.5634 76.7863 16.3887 76.7125C16.2141 76.6412 16.2141 76.4985 16.2141 76.4518V58.9021H17.5991L19.0234 68.6019ZM14.7381 55.9501C14.2067 55.9501 13.7762 55.5196 13.7762 54.9883C13.7762 54.4569 14.2067 54.0264 14.7381 54.0264H27.4194V55.9501H14.7381ZM40.4672 67.3769C38.9765 67.3769 37.7219 66.3486 37.3775 64.9611C37.316 64.7151 37.284 64.4593 37.284 64.1936V61.9993C37.284 60.3609 38.514 58.9981 40.145 58.8333C40.1696 58.8308 40.1917 58.8283 40.2138 58.8234C42.0121 58.5553 43.9358 58.3609 46.1006 58.2256C46.1203 58.2232 46.1375 58.2232 46.1572 58.2207C47.3946 58.0953 48.6246 58.0338 49.8521 58.0338C55.5396 58.0338 61.0894 59.372 66.0881 61.9083C67.6502 62.6979 69.1582 63.6057 70.5998 64.6266C71.7904 65.4654 72.9368 66.3855 74.029 67.3769H40.4672ZM85.7755 58.6389C83.2958 59.6795 79.2934 60.9636 71.4165 61.6057C63.9627 56.634 54.9886 54.361 45.8866 55.281C43.6628 55.4212 41.6751 55.623 39.8104 55.9009C36.6862 56.2355 34.332 58.8529 34.332 61.9993V62.0091H33.3972C31.7268 62.0091 30.3714 60.6537 30.3714 58.9858V48.3561C30.3714 46.6882 31.7268 45.3303 33.3972 45.3303H36.6764C36.6665 45.4976 36.6616 45.6649 36.6616 45.8346V47.8198C36.6616 48.6341 37.3233 49.2958 38.1376 49.2958H59.1731C59.9873 49.2958 60.6491 48.6341 60.6491 47.8198V45.8346C60.6491 45.6649 60.6441 45.4976 60.6343 45.3303H79.6427C83.3622 45.3303 86.8407 43.6772 89.1875 40.7965L92.7275 36.4497C94.5134 34.2603 97.1579 33.0033 99.9845 33.0033H102.051L97.5343 46.0314H86.6488C85.2122 46.0314 83.9526 47.0597 83.3647 48.7177C82.7423 50.4717 82.9809 52.5111 83.9748 53.9157C84.6537 54.88 85.6058 55.4089 86.6488 55.4089H90.6586C88.912 56.9095 87.1556 58.0608 85.7755 58.6389ZM86.6488 52.4569C86.6267 52.4569 86.516 52.3979 86.3856 52.2134C86.0117 51.6845 85.8099 50.6538 86.1445 49.7067C86.3265 49.1925 86.5824 48.9957 86.6488 48.9834H102.285C103.406 48.9834 104.521 49.4976 105.507 50.4717L107.517 52.4569H86.6488Z" fill="#1C211D"/>
</svg>
