<svg width="123" height="122" viewBox="0 0 123 122" fill="none" xmlns="http://www.w3.org/2000/svg">
<path d="M46.4327 101.792C46.4327 101.792 46.4278 101.804 46.4253 101.812C44.5582 102.163 42.5755 102.563 40.9912 102.895C40.9937 102.885 40.9961 102.875 40.9986 102.866C42.8436 102.465 44.6541 102.107 46.4327 101.792Z" fill="#1C211D"/>
<path d="M95.9117 87.4269C91.1845 85.6872 86.6823 84.3042 82.3147 83.2665C82.7185 80.9526 83.2109 77.1012 82.9166 73.2956C83.3724 73.6199 83.8513 73.9099 84.336 74.1502C86.1745 75.0658 87.9958 75.2738 89.6055 74.7511C93.2635 73.5646 95.2097 70.0032 94.1327 66.4665C93.6077 64.7459 92.4057 63.4507 90.746 62.8174C88.9863 62.1459 86.94 62.3462 85.2706 63.3458C84.1321 64.0306 83.1109 64.6143 81.9877 65.032C82.0954 63.5728 82.08 62.2069 81.9377 60.9308C82.8762 61.7186 83.9571 62.2947 85.2341 62.1898C88.4401 61.917 90.9248 59.5955 91.4172 56.4137C91.673 54.7693 91.1806 53.0811 90.1286 52.0129C89.2305 51.0954 87.9766 50.6871 86.5957 50.8588C84.6283 51.1049 82.6512 51.6886 80.7376 52.2609C80.3819 50.6814 80.1453 49.1268 79.9607 47.4347C81.0357 48.2779 82.1762 48.9627 84.0186 49.5636C85.7034 50.1149 87.69 49.8306 89.0805 48.8444C89.9883 48.1997 91.0749 46.9578 91.1018 44.705C91.1345 41.6243 88.3843 39.0777 84.9706 39.0243C83.4532 38.9976 82.155 39.0872 80.9338 39.3047C81.5358 38.1182 81.9416 36.8363 82.107 35.5487C82.3377 33.7365 81.8473 32.0636 80.7242 30.8332C79.5895 29.5914 77.8894 28.9104 76.0739 28.958C72.2525 29.063 69.7792 31.3063 69.6196 34.8143C69.5504 36.3346 70.0177 37.647 70.6601 38.8297C69.4196 38.431 68.081 38.2708 66.7406 38.6122C64.9712 39.0586 63.5942 40.2451 62.9653 41.8627C62.373 43.385 62.548 45.0903 63.4365 46.4237C64.4866 47.9994 67.8003 49.5216 70.4043 48.2302C71.0985 47.8868 71.6351 47.5587 72.1121 47.2707C72.6833 46.9254 73.1025 46.6698 73.5641 46.5172C73.6718 48.2168 73.8622 49.9356 74.0641 51.6314C72.3582 50.5593 70.2947 49.9146 68.3811 50.3667C66.5117 50.8092 65.0135 51.8584 64.1596 53.3215C63.3461 54.7178 63.1634 56.3755 63.6461 57.9931C64.1404 59.6565 65.2616 60.9556 66.8021 61.6557C68.508 62.4282 70.5697 62.4187 72.3198 61.6309C73.416 61.1368 74.0545 60.4825 74.6199 59.9083C74.8123 59.7118 74.9892 59.5287 75.1757 59.3647C75.7892 61.133 75.97 62.184 75.895 63.878C73.8583 62.7887 71.4178 62.6438 69.5311 62.9547C67.3233 63.3171 65.5386 64.4483 64.6347 66.0564C63.8885 67.3803 63.8038 68.8968 64.3923 70.3313C65.529 73.0915 68.1253 75.9643 71.7005 74.9762C73.0968 74.5909 74.1738 73.5589 75.2142 72.5593C75.7181 72.0748 76.2066 71.6074 76.697 71.245C76.7701 73.3853 76.1527 75.2757 75.5065 77.2557C75.0488 78.6597 74.5757 80.1037 74.3084 81.7175C70.0119 81.0861 65.7982 80.7943 61.5768 80.8267C57.3361 80.8591 53.0435 81.2063 48.5278 81.8988C49.4587 78.6006 50.0164 74.0625 49.4067 69.2859C51.6646 71.3289 54.4263 72.6623 56.9957 72.0309C61.2729 70.9741 64.0039 66.911 63.3423 62.5732C63.0173 60.4291 61.8249 58.7237 59.9863 57.7699C57.9554 56.717 55.386 56.7532 53.1147 57.8653C52.857 57.9912 52.6031 58.1152 52.3512 58.2392C50.753 59.0289 49.226 59.7805 47.4932 60.4062C47.2585 58.0656 46.9547 55.4389 46.5335 52.8999C48.8836 55.0841 51.0992 56.2019 53.1455 56.2286C55.8841 56.2591 58.1977 55.4274 59.6497 53.8804C60.8075 52.6462 61.3344 51.0286 61.1748 49.2011C60.8575 45.5405 58.0765 43.1904 53.7378 42.9119C51.1992 42.7498 48.6663 43.6139 46.4316 44.3769C46.0642 44.5028 45.7065 44.6249 45.3584 44.7374C45.218 42.4426 45.1238 39.3314 45.3584 36.4433C46.5143 38.2651 47.8682 40.1574 49.9299 41.0463C53.2685 42.4865 57.5169 41.9982 59.492 37.668C60.3228 35.8425 60.3382 33.6659 59.5324 31.8442C58.7554 30.0873 57.2957 28.8169 55.311 28.1664C53.4474 27.556 51.7877 27.4549 50.2741 27.6228C51.4473 26.4687 52.4339 25.1162 52.8704 23.3994C53.4762 21.0092 53.2205 18.8384 52.1319 17.1178C51.1761 15.6089 49.6087 14.5655 47.7182 14.182C43.0333 13.2302 39.3792 16.1583 38.5522 19.5423C38.1156 21.3259 38.0233 23.7561 38.508 26.1139C36.1732 24.7862 33.7634 24.3246 32.0537 24.5382C30.1382 24.7786 28.4958 25.7915 27.4265 27.3938C26.2437 29.166 25.8956 31.4646 26.4899 33.5438C27.1168 35.7318 28.4554 37.4524 30.2536 38.3872C31.9075 39.2436 33.8365 39.3715 35.6808 38.7458C37.3098 38.1926 38.3714 37.2827 39.2753 36.2984C39.0368 38.515 38.9965 40.6896 39.1484 42.9005C36.6925 41.0577 33.4942 39.9685 30.7074 40.9338C25.6763 42.6735 24.207 47.3737 25.3821 50.9122C26.0918 53.0487 27.7399 54.6797 29.9035 55.3855C32.0268 56.0798 34.2711 55.7536 36.0616 54.4966C37.3002 53.6248 38.0868 52.5699 38.783 51.639C39.1426 51.1583 39.4792 50.7062 39.8504 50.3114C40.3715 52.9228 40.6235 55.5419 40.86 58.2697C38.4003 56.6941 35.3001 56.0875 32.6864 56.8238C27.7034 58.2278 26.4899 62.4778 27.4957 66.0678C28.0823 68.1681 29.3766 69.7647 31.1382 70.5583C32.8557 71.3365 34.902 71.2793 36.7521 70.4057C38.0579 69.7895 39.0984 68.7518 40.1023 67.7465C40.8523 66.9968 41.5735 66.2758 42.3582 65.7703C43.264 70.5812 41.8909 75.1059 40.4408 79.8729C40.0619 81.1243 39.6715 82.4119 39.3195 83.7148C35.2424 84.6838 30.9305 85.9104 26.2879 87.4097C25.6917 87.6024 25.3648 88.2395 25.559 88.8328C25.7533 89.4241 26.3956 89.7484 26.9918 89.5557C31.8133 87.9953 36.2693 86.7402 40.4677 85.7654C40.4792 85.7654 40.4889 85.7616 40.5004 85.7597C41.6985 85.4888 44.6161 84.8784 47.0777 84.4282C47.1104 84.4225 47.1412 84.4148 47.172 84.4053C52.2108 83.5431 56.9399 83.1158 61.5979 83.0814C72.2813 83.007 82.9301 85.052 95.1213 89.5405C95.2521 89.5901 95.3867 89.611 95.5175 89.611C95.979 89.611 96.4137 89.3306 96.5829 88.8766C96.8022 88.2929 96.5021 87.6443 95.9136 87.4288L95.9117 87.4269ZM46.0161 82.3299C44.5776 82.6007 43.0506 82.9079 41.8313 83.1635C41.8332 83.1558 41.8351 83.1482 41.837 83.1406C42.0909 82.2574 42.3582 81.3799 42.6198 80.5215C44.2199 75.2452 45.8777 69.7876 44.2449 63.8513C44.1641 63.5556 43.9641 63.3057 43.6929 63.1588C43.5237 63.0672 43.3371 63.0196 43.1467 63.0196C43.0333 63.0196 42.9198 63.0367 42.8082 63.073C41.0158 63.63 39.7292 64.9138 38.4868 66.1575C37.5791 67.0655 36.7232 67.922 35.7732 68.3684C34.5135 68.9616 33.2018 69.0112 32.0806 68.5038C30.9228 67.9811 30.0959 66.9301 29.6843 65.4593C28.3688 60.7744 32.1248 59.3246 33.3057 58.9908C35.9943 58.2335 39.3849 59.3551 41.3697 61.6633C41.6909 62.0353 42.2197 62.1592 42.6755 61.9704C43.1313 61.7796 43.4121 61.3161 43.3679 60.8278C43.3025 60.1372 43.2429 59.4486 43.1833 58.7581C42.8775 55.2519 42.5621 51.6257 41.6678 48.049C41.5832 47.7094 41.3466 47.429 41.0216 47.2879C40.7004 47.1467 40.3292 47.162 40.0196 47.3317C38.583 48.11 37.7541 49.2221 36.9521 50.2942C36.302 51.1678 35.6866 51.9919 34.7443 52.6538C33.548 53.4932 32.0422 53.7087 30.6132 53.2395C29.142 52.7588 28.0207 51.6524 27.5399 50.2007C26.6841 47.6198 27.7515 44.3388 31.4537 43.0588C33.8846 42.2175 37.5137 43.7627 39.7157 46.5782C40.0331 46.9846 40.585 47.1257 41.0581 46.9254C41.5332 46.7251 41.8139 46.2311 41.7389 45.7237C41.0985 41.4011 41.2081 37.3456 42.0832 32.9563C42.1794 32.4775 41.9524 31.9911 41.5235 31.7526C41.0927 31.5161 40.5581 31.5771 40.1965 31.9091C39.4907 32.5576 38.933 33.2157 38.3945 33.8529C37.3425 35.0947 36.5136 36.0752 34.9404 36.6093C33.6903 37.0347 32.3979 36.9546 31.3017 36.3861C30.0613 35.7414 29.1266 34.5129 28.6727 32.9258C28.2534 31.4703 28.4958 29.8661 29.317 28.6357C29.8093 27.8955 30.7324 26.9723 32.3306 26.7739C34.725 26.4744 37.9925 27.947 40.1465 30.28C40.1908 30.3582 40.2581 30.4612 40.3581 30.5585C40.7543 30.94 41.3793 30.9877 41.8255 30.6634C42.2832 30.3315 42.4294 29.7192 42.1678 29.1927C42.1024 29.0668 42.0293 28.9771 41.9582 28.9008C40.3715 26.3466 40.1465 22.5448 40.7504 20.0726C41.4793 17.0873 44.6276 15.855 47.2508 16.3872C48.5471 16.6504 49.5644 17.3181 50.1953 18.3138C50.9472 19.5022 51.1069 21.0684 50.6549 22.8462C50.0799 25.12 48.0143 26.69 46.02 28.2084C45.545 28.5689 45.093 28.9123 44.6641 29.2652C44.5545 29.3186 44.4064 29.4082 44.2718 29.5647C43.9006 29.9824 43.9622 30.4345 44.0083 30.61C44.0987 30.9724 44.368 31.27 44.7295 31.4055C45.0411 31.5199 45.4796 31.5199 45.8604 31.2204L45.895 31.2071C48.5875 30.1617 51.1319 29.1736 54.5917 30.3048C55.9649 30.755 56.9265 31.5771 57.4457 32.7503C57.9881 33.9749 57.9765 35.5048 57.413 36.7371C55.986 39.8655 53.0781 39.9456 50.8318 38.9766C49.1548 38.2536 47.9817 36.3728 46.847 34.5549C46.4335 33.8929 46.0084 33.21 45.5565 32.5843C45.293 32.2162 44.8353 32.0407 44.3891 32.138C43.9468 32.2333 43.6006 32.5805 43.516 33.025C42.6602 37.3838 42.9409 43.219 43.1852 46.3112C43.2102 46.6431 43.3833 46.9464 43.6564 47.141C43.9314 47.3336 44.2756 47.3966 44.6026 47.3146C45.4103 47.1085 46.2623 46.8167 47.1643 46.5077C49.1971 45.8133 51.505 45.0293 53.5859 45.1609C56.7976 45.365 58.6862 46.8682 58.9054 49.3919C59.0093 50.5841 58.6977 51.5761 57.9785 52.3429C56.9842 53.4054 55.2321 53.993 53.1705 53.972C51.7069 53.9529 49.1875 52.9839 45.5123 48.4725C45.1776 48.0623 44.6026 47.9364 44.1256 48.1692C43.6506 48.4019 43.3987 48.9303 43.5217 49.4434C44.4737 53.3959 45.0065 58.2449 45.3623 62.0276C45.3949 62.3653 45.5757 62.6705 45.8604 62.8593C46.145 63.0482 46.4989 63.0997 46.8239 63.0024C49.3087 62.2527 51.2742 61.2856 53.357 60.2593C53.607 60.1353 53.859 60.0113 54.1147 59.8873C55.7379 59.0919 57.538 59.048 58.9266 59.7691C59.7593 60.2002 60.8113 61.0948 61.0883 62.9108C61.571 66.0888 59.5728 69.0685 56.4399 69.841C53.8109 70.4896 50.3126 67.6168 48.3567 64.5857C48.0528 64.1145 47.4451 63.9333 46.9316 64.1641C46.4181 64.3949 46.1508 64.9653 46.3065 65.5032C48.1586 71.8897 47.3451 78.3945 46.0142 82.3146C46.0142 82.3203 46.0104 82.3241 46.0084 82.3299H46.0161ZM80.8319 69.1142C80.3376 69.3355 80.0703 69.8734 80.1934 70.3961C80.9377 73.5665 80.8973 78.1141 80.1011 82.7476C78.5471 82.3909 77.6778 82.2135 76.5585 82.0456C76.8028 80.6016 77.2432 79.2587 77.6682 77.9501C78.5144 75.3596 79.3895 72.6795 78.7625 69.3241C78.7048 69.0208 78.526 68.7537 78.2663 68.5858C78.0048 68.4161 77.6855 68.3627 77.3817 68.4332C75.8662 68.7919 74.7315 69.883 73.6333 70.9379C72.7563 71.7772 71.9294 72.5707 71.0889 72.8016C68.333 73.5627 66.779 70.1653 66.4944 69.4767C66.1675 68.6793 66.2078 67.8762 66.6156 67.1514C67.1829 66.1461 68.3791 65.425 69.9004 65.1751C72.8294 64.6944 75.0411 65.7378 76.045 66.7775C76.3508 67.096 76.8162 67.2086 77.2374 67.0655C77.6586 66.9205 77.9528 66.5486 77.9971 66.1098C78.3875 62.1936 78.2221 60.9575 76.8335 57.2873C76.7258 57.005 76.5104 56.778 76.2335 56.654C75.9566 56.5319 75.6412 56.5243 75.3584 56.633C74.2218 57.0718 73.566 57.7413 72.9871 58.3327C72.5044 58.8286 72.0852 59.2559 71.3813 59.5726C70.2389 60.0876 68.8484 60.0972 67.7503 59.5993C67.0887 59.2998 66.2194 58.6665 65.827 57.3503C65.5232 56.3316 65.6328 55.3015 66.1309 54.447C66.6752 53.5122 67.6368 52.8599 68.9119 52.5566C70.812 52.1064 73.3064 53.518 74.6892 55.0765C75.018 55.4484 75.5527 55.5629 76.0085 55.3607C76.4624 55.1604 76.7316 54.6873 76.672 54.1971C76.6201 53.7736 76.5701 53.3501 76.5162 52.9209C76.1989 50.3552 75.87 47.7037 75.7758 45.1762C75.7527 44.5715 75.2488 44.0927 74.6392 44.0927H74.6295C72.9621 44.1079 72.0198 44.6802 70.9274 45.344C70.4716 45.6226 69.9966 45.9106 69.3907 46.2101C67.9541 46.9216 65.8463 45.9392 65.3366 45.1762C64.8462 44.4399 64.7558 43.5261 65.0885 42.6715C65.4501 41.7426 66.2598 41.0577 67.3079 40.7926C68.8176 40.4111 70.7312 41.0043 73.1506 42.6086C73.1871 42.6487 73.2295 42.6868 73.2833 42.7288C73.7641 43.1141 74.4815 43.0473 74.8757 42.5781C75.2584 42.1241 75.2181 41.4431 74.7892 41.0101C74.7738 40.9929 74.7603 40.9795 74.7449 40.9643C74.4699 40.5236 74.1738 40.0887 73.8833 39.6671C72.8198 38.1125 71.8159 36.6475 71.8948 34.9116C72.0005 32.5958 73.5083 31.2815 76.1431 31.209C77.2951 31.1727 78.3606 31.5905 79.0471 32.344C79.728 33.0879 80.0068 34.097 79.8587 35.2626C79.7453 36.1553 79.2837 38.4253 77.4451 40.4054C77.3567 40.4721 77.2355 40.5809 77.1355 40.7411C76.9124 41.0921 76.8874 41.5156 77.0682 41.8761C77.2451 42.229 77.6124 42.4713 78.0105 42.5037C78.2259 42.5228 78.5837 42.4922 78.9048 42.1889C80.7703 41.4946 82.4935 41.239 84.9456 41.2733C86.8342 41.3019 88.8593 42.6086 88.8363 44.6745C88.8228 45.7256 88.4632 46.5077 87.765 47.0055C86.8361 47.6656 85.5437 47.6827 84.7341 47.4176C82.5147 46.6946 81.5762 45.8724 80.0164 44.5123C79.7972 44.3216 79.5683 44.1194 79.3222 43.9115C78.9741 43.6101 78.4779 43.5509 78.0663 43.757C77.6528 43.9611 77.4086 44.396 77.4451 44.85C77.7182 48.2683 78.0413 50.9847 78.8202 53.9605C78.8971 54.2562 79.0933 54.508 79.3626 54.6568C79.6299 54.8075 79.9472 54.8456 80.2434 54.7579C80.603 54.653 80.9627 54.5442 81.3261 54.4374C83.1724 53.8861 85.0802 53.3177 86.8861 53.0926C87.5689 53.0067 88.0997 53.1651 88.5055 53.579C89.0517 54.136 89.3228 55.1356 89.1767 56.0646C88.8459 58.1991 87.1861 59.7557 85.0475 59.9369C84.0205 60.0266 82.8955 58.7695 81.8993 57.6631C81.4665 57.1862 81.0627 56.7341 80.6453 56.3622C80.253 56.0131 79.6703 55.9749 79.2375 56.2744C78.8029 56.572 78.6337 57.1252 78.826 57.6116C79.7953 60.0666 80.0318 62.867 79.5645 66.4265C79.5164 66.7889 79.6491 67.1494 79.9203 67.3993C80.1895 67.6454 80.5646 67.7503 80.9242 67.6759C83.0647 67.2334 84.6937 66.3254 86.4515 65.2705C87.5246 64.6276 88.8247 64.4941 89.9344 64.9176C90.9249 65.2953 91.646 66.0755 91.9615 67.1151C92.6827 69.4862 91.3979 71.7963 88.9036 72.6051C86.6726 73.33 83.7571 71.5845 82.23 69.4786C81.9127 69.0417 81.33 68.8891 80.8376 69.1104L80.8319 69.1142Z" fill="#1C211D"/>
<path d="M67.2657 32.8267C67.2619 33.3722 66.808 33.8243 66.2541 33.832H66.2387C65.6848 33.832 65.2348 33.4047 65.2136 32.8553C65.1925 32.2964 65.6233 31.8405 66.1906 31.8157C66.206 31.8157 66.2233 31.8157 66.2387 31.8157C66.5195 31.8157 66.783 31.9225 66.9753 32.1152C67.1657 32.304 67.2695 32.5577 67.2657 32.8267Z" fill="#1C211D"/>
<path d="M58.5645 24.5288C58.5607 25.0744 58.1068 25.5265 57.5529 25.5341H57.5375C56.9837 25.5341 56.5336 25.1068 56.5125 24.5574C56.4913 23.9985 56.9221 23.5426 57.4895 23.5178C57.5048 23.5178 57.5221 23.5178 57.5375 23.5178C57.8183 23.5178 58.0818 23.6246 58.2741 23.8173C58.4645 24.0062 58.5684 24.2599 58.5645 24.5288Z" fill="#1C211D"/>
<path d="M66.2384 18.4646C66.2345 19.0102 65.7806 19.4623 65.2267 19.4699H65.2114C64.6575 19.4699 64.2074 19.0426 64.1863 18.4932C64.1651 17.9343 64.5959 17.4784 65.1633 17.4536C65.1787 17.4536 65.196 17.4536 65.2114 17.4536C65.4921 17.4536 65.7556 17.5604 65.9479 17.7531C66.1383 17.942 66.2422 18.1957 66.2384 18.4646Z" fill="#1C211D"/>
</svg>
