<svg width="48" height="48" viewBox="0 0 48 48" fill="none" xmlns="http://www.w3.org/2000/svg">
<path d="M18 34.5V36.514C18.0001 37.3022 17.8449 38.0827 17.5432 38.8109C17.2416 39.5391 16.7994 40.2007 16.242 40.758L15 42H33L31.758 40.758C31.2006 40.2007 30.7584 39.5391 30.4568 38.8109C30.1551 38.0827 29.9999 37.3022 30 36.514V34.5M42 10.5V30C42 31.1935 41.5259 32.3381 40.682 33.182C39.8381 34.0259 38.6935 34.5 37.5 34.5H10.5C9.30653 34.5 8.16193 34.0259 7.31802 33.182C6.47411 32.3381 6 31.1935 6 30V10.5M42 10.5C42 9.30653 41.5259 8.16193 40.682 7.31802C39.8381 6.47411 38.6935 6 37.5 6H10.5C9.30653 6 8.16193 6.47411 7.31802 7.31802C6.47411 8.16193 6 9.30653 6 10.5M42 10.5V24C42 25.1935 41.5259 26.3381 40.682 27.182C39.8381 28.0259 38.6935 28.5 37.5 28.5H10.5C9.30653 28.5 8.16193 28.0259 7.31802 27.182C6.47411 26.3381 6 25.1935 6 24V10.5" stroke="#1C211D" stroke-width="1.5" stroke-linecap="round" stroke-linejoin="round"/>
</svg>
