<svg width="26" height="24" viewBox="0 0 26 24" fill="none" xmlns="http://www.w3.org/2000/svg">
<path d="M1 7V20C1 20.7957 1.31607 21.5587 1.87868 22.1213C2.44129 22.6839 3.20435 23 4 23H22C22.7957 23 23.5587 22.6839 24.1213 22.1213C24.6839 21.5587 25 20.7957 25 20V7M1 7V4C1 3.20435 1.31607 2.44129 1.87868 1.87868C2.44129 1.31607 3.20435 1 4 1H22C22.7957 1 23.5587 1.31607 24.1213 1.87868C24.6839 2.44129 25 3.20435 25 4V7M1 7H25M4 4H4.01067V4.01067H4V4ZM7 4H7.01067V4.01067H7V4ZM10 4H10.0107V4.01067H10V4Z" stroke="#00BA00" stroke-width="1.5" stroke-linecap="round" stroke-linejoin="round"/>
</svg>
