<svg width="26" height="26" viewBox="0 0 26 26" fill="none" xmlns="http://www.w3.org/2000/svg">
<path fill-rule="evenodd" clip-rule="evenodd" d="M11.7706 7.86323e-08C10.5479 7.86323e-08 9.50525 0.884 9.30391 2.08933L9.06658 3.51867C9.03991 3.67867 8.91325 3.86533 8.67058 3.98267C8.21371 4.20228 7.77422 4.45635 7.35591 4.74267C7.13458 4.896 6.91058 4.91067 6.75591 4.85333L5.39991 4.344C4.84557 4.13632 4.23551 4.13208 3.67833 4.33205C3.12116 4.53202 2.65302 4.92321 2.35725 5.436L1.12791 7.56533C0.832032 8.07781 0.727532 8.67863 0.833003 9.26092C0.938473 9.8432 1.24708 10.3692 1.70391 10.7453L2.82391 11.668C2.95058 11.772 3.05058 11.9733 3.02925 12.2413C2.99125 12.7468 2.99125 13.2545 3.02925 13.76C3.04925 14.0267 2.95058 14.2293 2.82525 14.3333L1.70391 15.256C1.24708 15.6321 0.938473 16.1581 0.833003 16.7404C0.727532 17.3227 0.832032 17.9235 1.12791 18.436L2.35725 20.5653C2.65323 21.0779 3.12146 21.4688 3.67861 21.6685C4.23577 21.8682 4.84572 21.8638 5.39991 21.656L6.75858 21.1467C6.91191 21.0893 7.13591 21.1053 7.35858 21.256C7.77458 21.5413 8.21325 21.796 8.67191 22.016C8.91458 22.1333 9.04125 22.32 9.06791 22.4827L9.30525 23.9107C9.50658 25.116 10.5492 26 11.7719 26H14.2306C15.4519 26 16.4959 25.116 16.6972 23.9107L16.9346 22.4813C16.9612 22.3213 17.0866 22.1347 17.3306 22.016C17.7892 21.796 18.2279 21.5413 18.6439 21.256C18.8666 21.104 19.0906 21.0893 19.2439 21.1467L20.6039 21.656C21.1579 21.863 21.7674 21.8668 22.324 21.6669C22.8805 21.467 23.3482 21.0762 23.6439 20.564L24.8746 18.4347C25.1705 17.9222 25.275 17.3214 25.1695 16.7391C25.064 16.1568 24.7554 15.6308 24.2986 15.2547L23.1786 14.332C23.0519 14.228 22.9519 14.0267 22.9732 13.7587C23.0112 13.2532 23.0112 12.7455 22.9732 12.24C22.9519 11.9733 23.0519 11.7707 23.1772 11.6667L24.2972 10.744C25.2412 9.968 25.4852 8.624 24.8746 7.564L23.6452 5.43467C23.3493 4.92212 22.881 4.5312 22.3239 4.33149C21.7667 4.13177 21.1568 4.1362 20.6026 4.344L19.2426 4.85333C19.0906 4.91067 18.8666 4.89467 18.6439 4.74267C18.226 4.45639 17.787 4.20233 17.3306 3.98267C17.0866 3.86667 16.9612 3.68 16.9346 3.51867L16.6959 2.08933C16.5987 1.50542 16.2974 0.974954 15.8457 0.592356C15.394 0.209758 14.8212 -0.00014832 14.2292 7.86323e-08H11.7719H11.7706ZM12.9999 18C14.326 18 15.5978 17.4732 16.5354 16.5355C17.4731 15.5979 17.9999 14.3261 17.9999 13C17.9999 11.6739 17.4731 10.4021 16.5354 9.46447C15.5978 8.52678 14.326 8 12.9999 8C11.6738 8 10.4021 8.52678 9.46438 9.46447C8.5267 10.4021 7.99991 11.6739 7.99991 13C7.99991 14.3261 8.5267 15.5979 9.46438 16.5355C10.4021 17.4732 11.6738 18 12.9999 18Z" fill="#00BA00"/>
</svg>
