<svg width="98" height="97" viewBox="0 0 98 97" fill="none" xmlns="http://www.w3.org/2000/svg">
<path fill-rule="evenodd" clip-rule="evenodd" d="M78.343 29.7033C76.6124 28.4655 74.6034 28.514 73.0569 29.4336C71.532 30.3415 70.4932 32.0604 70.4932 34.0877V34.819C70.4932 36.3167 70.1698 38.4876 69.3917 40.5673C68.6058 42.6586 67.4141 44.5074 65.7834 45.5569C65.2816 45.8809 64.8053 45.8285 64.333 45.4755C63.8136 45.0875 63.3686 44.3425 63.2804 43.4811L63.0825 41.5799C62.9296 40.1075 62.0868 38.8698 60.9088 38.2315C59.6995 37.5777 58.1766 37.5913 56.8908 38.5613C53.4765 41.1357 49.8682 45.6889 49.8682 52.4633C49.8682 60.8597 53.0434 66.2451 57.13 69.5101C61.1656 72.7344 65.9911 73.8033 69.2388 73.8033C72.8884 73.8033 78.3391 72.7499 82.9118 69.5567C87.5472 66.3188 91.2065 60.9237 91.2065 52.4653C91.2065 41.6634 84.372 34.0178 78.3411 29.7052L78.343 29.7033ZM75.0169 69.8748C73.7057 70.8895 72.1083 71.2367 71.0695 71.2367C69.8249 71.2367 67.9374 70.8739 66.3988 69.8283C64.9229 68.8272 63.7058 67.1685 63.7058 64.3517C63.7058 62.6173 64.2526 61.106 65.0817 59.8315C65.9049 58.553 67.0103 57.5132 68.1177 56.7178C68.2275 56.6402 68.3118 56.6227 68.3647 56.6208C68.4235 56.6188 68.494 56.6324 68.5685 56.677C68.7175 56.7682 68.8743 56.9738 68.8743 57.292V57.3114C68.8743 57.8313 68.8743 58.584 68.9684 59.3659C69.0154 59.7539 69.0899 60.1787 69.2075 60.6016C69.329 61.0265 69.4936 61.4494 69.7249 61.8413C70.0326 62.3612 70.4893 62.7744 71.0871 62.9491C71.6771 63.1217 72.2494 63.0169 72.71 62.7997C73.594 62.3884 74.2584 61.4979 74.5367 60.5337C74.5936 60.3378 74.7406 60.1865 74.8954 60.1205C75.0306 60.0623 75.1149 60.0856 75.1816 60.1341H75.1835C76.285 60.9586 77.367 62.3282 77.367 64.3517C77.367 67.2326 76.2733 68.899 75.0169 69.8748ZM88.8251 52.4633C88.8251 60.1341 85.5598 64.8192 81.5378 67.6283C80.5794 68.2996 79.5739 68.8622 78.5547 69.3375C79.2917 68.0338 79.7484 66.3887 79.7484 64.3517C79.7484 61.3776 78.1255 59.3775 76.6163 58.2504H76.6143C75.7696 57.6218 74.7562 57.6121 73.9468 57.9574C73.5489 58.1281 73.1902 58.3881 72.8962 58.716C72.6022 59.0438 72.3788 59.4415 72.2494 59.8858C72.1886 60.0934 72.0906 60.2777 71.977 60.4193C71.8986 60.5182 71.8241 60.5822 71.7672 60.6249C71.5516 60.2486 71.4105 59.717 71.3341 59.0846C71.2576 58.4521 71.2557 57.8216 71.2557 57.2901C71.2557 56.1649 70.6794 55.1852 69.8014 54.6594C68.8978 54.1182 67.714 54.0929 66.7202 54.8088C64.1997 56.6188 61.3263 59.8101 61.3263 64.3497C61.3263 66.9687 62.175 68.932 63.4314 70.354C61.8104 69.7584 60.1503 68.8893 58.6274 67.6729C55.1386 64.889 52.2515 60.1962 52.2515 52.4614C52.2515 46.6143 55.3385 42.6935 58.3373 40.4334C58.8371 40.0551 59.3408 40.0648 59.7701 40.2976C60.0014 40.4237 60.2189 40.6196 60.3855 40.8757C60.556 41.1337 60.6756 41.4519 60.7148 41.8186L60.9128 43.7198C61.0637 45.1689 61.8046 46.5347 62.8982 47.3534C64.0448 48.2109 65.6168 48.4747 67.0848 47.5299C69.3133 46.0943 70.75 43.7178 71.6242 41.3859C72.5022 39.0405 72.8746 36.5922 72.8746 34.819V34.0877C72.8746 32.8713 73.4901 31.9246 74.2839 31.4531C75.0522 30.9972 76.0263 30.9526 76.9495 31.6122C82.6668 35.7017 88.8271 42.7284 88.8271 52.4595L88.8251 52.4633Z" fill="#1C211D"/>
<path d="M21.46 19.792V19.7959H31.5363L21.46 19.792Z" fill="#1C211D"/>
<path d="M21.46 77.926V77.9299H68.694V77.926H21.46Z" fill="#1C211D"/>
<path d="M72.5198 77.9259H71.2399V77.0568C71.2399 76.3584 70.6695 75.7958 69.9659 75.7958C69.2623 75.7958 68.6919 76.3584 68.6919 77.0568V77.9317H21.4598V64.1015H47.8159C48.5215 64.0995 49.0899 63.535 49.0899 62.8385C49.0899 62.1421 48.5215 61.5775 47.8159 61.5775H21.4598L17.6319 61.5795C16.7186 61.5795 15.9757 60.8442 15.9757 59.9382C15.9757 59.0323 16.7186 58.2989 17.6319 58.2989H45.9265C46.6301 58.2989 47.2005 57.7344 47.2005 57.0379C47.2005 56.3415 46.6301 55.7769 45.9265 55.7769H21.4598V41.9486H49.8347C50.5384 41.9467 51.1087 41.3841 51.1087 40.6857C51.1087 39.9873 50.5384 39.4247 49.8347 39.4247H21.4598L17.6319 39.4266C17.1909 39.4266 16.7735 39.2559 16.4599 38.9474C16.1482 38.639 15.9757 38.2258 15.9757 37.7854C15.9757 36.8813 16.7186 36.1461 17.6319 36.1461H66.7084C67.412 36.1461 67.9824 35.5835 67.9824 34.8851C67.9824 34.1867 67.412 33.6241 66.7084 33.6241H21.4598V19.7938H31.5362L68.6919 19.8093V26.8671C68.6919 27.5655 69.2623 28.1281 69.9659 28.1281C70.6695 28.1281 71.2399 27.5655 71.2399 26.8671V19.7958H72.5198C74.8385 19.7958 76.724 17.9295 76.724 15.6345C76.724 13.3394 74.8385 11.4751 72.5198 11.4751H17.63C15.3113 11.4751 13.4258 13.3414 13.4258 15.6345V15.6383C13.4258 16.75 13.8629 17.7937 14.6567 18.5813C15.4505 19.367 16.5069 19.7996 17.63 19.7996H18.9099V33.626H17.63C15.3113 33.626 13.4258 35.4923 13.4258 37.7912C13.4258 38.9028 13.8629 39.9465 14.6567 40.7342C15.4505 41.5179 16.5069 41.9506 17.63 41.9506H18.9099V55.7789H17.63C15.3113 55.7789 13.4258 57.6452 13.4258 59.9421C13.4258 62.2391 15.3113 64.1034 17.63 64.1034H18.9099V77.9298H17.63C15.3113 77.9298 13.4258 79.798 13.4258 82.0911V82.095C13.4258 84.3881 15.3113 86.2543 17.63 86.2543H72.5198C74.8385 86.2524 76.724 84.3861 76.724 82.0911C76.724 79.7961 74.8385 77.9298 72.5198 77.9298V77.9259ZM17.63 17.2738C17.189 17.2738 16.7715 17.103 16.4579 16.7926C16.1463 16.4842 15.9738 16.0748 15.9738 15.6345V15.6306C15.9738 14.7285 16.7166 13.9932 17.63 13.9932H72.5198C73.4331 13.9932 74.176 14.7285 74.176 15.6306C74.176 16.5327 73.4331 17.2699 72.5198 17.2699L29.8584 17.2738H17.63ZM72.5198 83.7265H17.63C16.7166 83.7285 15.9738 82.9951 15.9738 82.0911V82.0872C15.9738 81.1832 16.7166 80.4479 17.63 80.4479H72.5198C73.4331 80.4479 74.176 81.1832 74.176 82.0872C74.176 82.9913 73.4331 83.7265 72.5198 83.7265Z" fill="#1C211D"/>
<path d="M29.8584 17.2737H20.1035C20.129 17.2698 20.1564 17.2698 20.1839 17.2698L29.8565 17.2737H29.8584Z" fill="#1C211D"/>
<path d="M70.0541 80.448C70.0267 80.4519 69.9973 80.4519 69.9679 80.4519H20.1858C20.1564 80.4519 20.127 80.4519 20.0996 80.448H70.0561H70.0541Z" fill="#1C211D"/>
</svg>
