<svg width="26" height="26" viewBox="0 0 26 26" fill="none" xmlns="http://www.w3.org/2000/svg">
<path fill-rule="evenodd" clip-rule="evenodd" d="M13 2.42375C10.195 2.42375 7.5049 3.53803 5.52147 5.52147C3.53803 7.5049 2.42375 10.195 2.42375 13C2.42375 14.3889 2.69731 15.7642 3.22882 17.0474C3.76033 18.3306 4.53937 19.4965 5.52147 20.4786C6.50356 21.4607 7.66948 22.2397 8.95266 22.7712C10.2358 23.3027 11.6111 23.5763 13 23.5763C14.3889 23.5763 15.7642 23.3027 17.0474 22.7712C18.3306 22.2397 19.4965 21.4607 20.4786 20.4786C21.4607 19.4965 22.2397 18.3306 22.7712 17.0474C23.3027 15.7642 23.5763 14.3889 23.5763 13C23.5763 10.195 22.462 7.5049 20.4786 5.52147C18.4951 3.53803 15.805 2.42375 13 2.42375ZM4.37092 4.37092C6.6595 2.08234 9.76348 0.796631 13 0.796631C16.2366 0.796631 19.3405 2.08234 21.6291 4.37092C23.9177 6.6595 25.2034 9.76348 25.2034 13C25.2034 14.6026 24.8878 16.1895 24.2745 17.6701C23.6612 19.1506 22.7623 20.4959 21.6291 21.6291C20.4959 22.7623 19.1506 23.6612 17.6701 24.2745C16.1895 24.8878 14.6026 25.2034 13 25.2034C11.3974 25.2034 9.81057 24.8878 8.32998 24.2745C6.8494 23.6612 5.50411 22.7623 4.37092 21.6291C3.23773 20.4959 2.33884 19.1506 1.72556 17.6701C1.11228 16.1895 0.796631 14.6026 0.796631 13C0.796631 9.76348 2.08234 6.6595 4.37092 4.37092ZM12.1865 8.25426C12.1865 7.80494 12.5507 7.4407 13 7.4407H13.0101C13.4595 7.4407 13.8237 7.80494 13.8237 8.25426V8.26438C13.8237 8.7137 13.4595 9.07794 13.0101 9.07794H13C12.5507 9.07794 12.1865 8.7137 12.1865 8.26438V8.25426ZM12.5413 12.7398C12.5155 12.7371 12.4895 12.7418 12.4663 12.7533L12.4594 12.7568L12.4076 12.7821C12.0037 12.9791 11.5167 12.8114 11.3197 12.4076C11.1227 12.0037 11.2903 11.5167 11.6942 11.3197L11.7431 11.2958C12.0435 11.1467 12.3802 11.0863 12.7137 11.1219C13.0487 11.1576 13.3665 11.2885 13.6294 11.4992C13.8922 11.7099 14.0892 11.9915 14.197 12.3107C14.3048 12.6299 14.3188 12.9733 14.2375 13.3002L13.3412 16.8905C13.3349 16.9157 13.3359 16.9421 13.3442 16.9667C13.3525 16.9913 13.3676 17.013 13.3879 17.0292C13.4081 17.0454 13.4326 17.0555 13.4584 17.0583C13.4834 17.061 13.5088 17.0566 13.5315 17.0457L13.5783 17.0217C13.9782 16.8168 14.4684 16.975 14.6733 17.3749C14.8781 17.7748 14.72 18.2651 14.32 18.4699L14.2682 18.4965L14.2612 18.5C13.9596 18.6508 13.6211 18.712 13.2858 18.6762C12.9505 18.6405 12.6325 18.5093 12.3695 18.2983C12.1065 18.0872 11.9096 17.8052 11.8021 17.4856C11.6946 17.1662 11.6809 16.8227 11.7627 16.4958C11.7627 16.4959 11.7627 16.4957 11.7627 16.4958C11.7627 16.4957 11.7628 16.4953 11.7628 16.4952L12.6585 12.9074C12.6585 12.9074 12.6585 12.9073 12.6585 12.9074C12.6647 12.8823 12.6637 12.8558 12.6554 12.8313C12.6471 12.8067 12.632 12.785 12.6117 12.7688C12.5915 12.7526 12.5671 12.7426 12.5413 12.7398Z" fill="black"/>
</svg>
