<svg width="32" height="32" viewBox="0 0 32 32" fill="none" xmlns="http://www.w3.org/2000/svg">
<path d="M16 8.08341C16.8709 8.08341 17.5834 8.79591 17.5834 9.66675V16.0001C17.5834 16.8709 16.8709 17.5834 16 17.5834C15.1292 17.5834 14.4167 16.8709 14.4167 16.0001V9.66675C14.4167 8.79591 15.1292 8.08341 16 8.08341ZM15.9842 0.166748C7.24419 0.166748 0.166687 7.26008 0.166687 16.0001C0.166687 24.7401 7.24419 31.8334 15.9842 31.8334C24.74 31.8334 31.8334 24.7401 31.8334 16.0001C31.8334 7.26008 24.74 0.166748 15.9842 0.166748ZM16 28.6667C9.00169 28.6667 3.33335 22.9984 3.33335 16.0001C3.33335 9.00175 9.00169 3.33341 16 3.33341C22.9984 3.33341 28.6667 9.00175 28.6667 16.0001C28.6667 22.9984 22.9984 28.6667 16 28.6667ZM17.5834 23.9167H14.4167V20.7501H17.5834V23.9167Z" fill="#EB8D00"/>
</svg>
