<svg width="118" height="118" viewBox="0 0 118 118" fill="none" xmlns="http://www.w3.org/2000/svg">
<path fill-rule="evenodd" clip-rule="evenodd" d="M28.75 70.6001C28.75 69.9097 29.3096 69.3501 30 69.3501H88C88.6904 69.3501 89.25 69.9097 89.25 70.6001C89.25 71.2905 88.6904 71.8501 88 71.8501H30C29.3096 71.8501 28.75 71.2905 28.75 70.6001ZM37.45 79.3001C37.45 78.6097 38.0096 78.0501 38.7 78.0501H79.3C79.9904 78.0501 80.55 78.6097 80.55 79.3001C80.55 79.9905 79.9904 80.5501 79.3 80.5501H38.7C38.0096 80.5501 37.45 79.9905 37.45 79.3001ZM46.15 88.0001C46.15 87.3097 46.7096 86.7501 47.4 86.7501H70.6C71.2904 86.7501 71.85 87.3097 71.85 88.0001C71.85 88.6905 71.2904 89.2501 70.6 89.2501H47.4C46.7096 89.2501 46.15 88.6905 46.15 88.0001Z" fill="#1C211D"/>
<path fill-rule="evenodd" clip-rule="evenodd" d="M59.0005 40.35C55.4112 40.3498 51.8981 41.3854 48.8827 43.3324L59.0005 40.35ZM59.0005 42.85C55.8923 42.8498 52.8501 43.7466 50.2389 45.4327C47.6277 47.1187 45.5586 49.5225 44.2798 52.3555C43.001 55.1884 42.5669 58.3302 43.0295 61.4038C43.4646 64.294 44.6751 67.0083 46.5275 69.2601H71.4736C73.326 67.0083 74.5366 64.294 74.9716 61.4038C75.4343 58.3302 75.0001 55.1884 73.7213 52.3555C72.4425 49.5225 70.3734 47.1187 67.7623 45.4327C65.1511 43.7466 62.1087 42.8498 59.0005 42.85ZM59.0005 40.35C62.5898 40.3498 66.1031 41.3854 69.1184 43.3324C72.1338 45.2795 74.5232 48.0554 76 51.3269C77.4767 54.5984 77.978 58.2266 77.4438 61.7759C76.9095 65.3253 75.3624 68.6451 72.988 71.3369L72.6148 71.7601H45.3864L45.0131 71.3369C42.6388 68.6451 41.0916 65.3253 40.5574 61.7759C40.0231 58.2266 40.5244 54.5984 42.0012 51.3269C43.478 48.0554 45.8674 45.2795 48.8827 43.3324" fill="#1C211D"/>
<path fill-rule="evenodd" clip-rule="evenodd" d="M59 28.75C59.6904 28.75 60.25 29.3096 60.25 30V32.9C60.25 33.5904 59.6904 34.15 59 34.15C58.3096 34.15 57.75 33.5904 57.75 32.9V30C57.75 29.3096 58.3096 28.75 59 28.75ZM37.6102 37.6102C38.0984 37.1221 38.8898 37.1221 39.378 37.6102L40.5177 38.7499C41.0058 39.2381 41.0058 40.0295 40.5177 40.5177C40.0295 41.0058 39.2381 41.0058 38.7499 40.5177L37.6102 39.378C37.1221 38.8898 37.1221 38.0984 37.6102 37.6102ZM80.3858 37.612C80.8745 38.0995 80.8755 38.891 80.388 39.3798L79.2512 40.5195C78.7637 41.0082 77.9722 41.0092 77.4834 40.5217C76.9947 40.0342 76.9937 39.2427 77.4812 38.7539L78.618 37.6142C79.1055 37.1255 79.897 37.1245 80.3858 37.612ZM28.75 59C28.75 58.3096 29.3096 57.75 30 57.75H32.9C33.5904 57.75 34.15 58.3096 34.15 59C34.15 59.6904 33.5904 60.25 32.9 60.25H30C29.3096 60.25 28.75 59.6904 28.75 59ZM83.85 59C83.85 58.3096 84.4096 57.75 85.1 57.75H88C88.6904 57.75 89.25 58.3096 89.25 59C89.25 59.6904 88.6904 60.25 88 60.25H85.1C84.4096 60.25 83.85 59.6904 83.85 59Z" fill="#1C211D"/>
</svg>
