<svg width="106" height="106" viewBox="0 0 106 106" fill="none" xmlns="http://www.w3.org/2000/svg">
<path d="M57.6859 85.2643C57.6435 85.188 57.6075 85.1053 57.582 85.0205C57.6096 85.1053 57.6435 85.188 57.6859 85.2643Z" fill="#1C211D"/>
<path d="M84.4084 86.2734C85.5887 86.2734 86.5454 85.3167 86.5454 84.1365C86.5454 82.9563 85.5887 81.9995 84.4084 81.9995C83.2282 81.9995 82.2715 82.9563 82.2715 84.1365C82.2715 85.3167 83.2282 86.2734 84.4084 86.2734Z" fill="#1C211D"/>
<path d="M12.6418 64.4121C13.8221 64.4121 14.7788 63.4554 14.7788 62.2751C14.7788 61.0949 13.8221 60.1382 12.6418 60.1382C11.4616 60.1382 10.5049 61.0949 10.5049 62.2751C10.5049 63.4554 11.4616 64.4121 12.6418 64.4121Z" fill="#1C211D"/>
<path d="M64.8323 18.8596C66.0125 18.8596 66.9692 17.9029 66.9692 16.7227C66.9692 15.5424 66.0125 14.5857 64.8323 14.5857C63.6521 14.5857 62.6953 15.5424 62.6953 16.7227C62.6953 17.9029 63.6521 18.8596 64.8323 18.8596Z" fill="#1C211D"/>
<path d="M80.0901 25.3809C81.2703 25.3809 82.227 24.4241 82.227 23.2439C82.227 22.0637 81.2703 21.1069 80.0901 21.1069C78.9099 21.1069 77.9531 22.0637 77.9531 23.2439C77.9531 24.4241 78.9099 25.3809 80.0901 25.3809Z" fill="#1C211D"/>
<path d="M94.5521 35.8367V66.9879C94.5521 67.978 93.7507 68.7772 92.7628 68.7772C91.7749 68.7772 90.9735 67.978 90.9735 66.9879V35.8367C90.9735 34.6855 89.6824 33.7124 88.1518 33.7124H76.6275C75.0968 33.7124 73.8057 34.6855 73.8057 35.8367V60.7127C73.8057 61.7028 73.0044 62.502 72.0165 62.502C71.0285 62.502 70.2272 61.7028 70.2272 60.7127V28.8513C70.2272 27.3715 68.9594 26.1695 67.4055 26.1695H55.8811C54.3251 26.1695 53.0573 27.3715 53.0573 28.8513V45.0247C53.0573 46.0148 52.2581 46.814 51.268 46.814C50.278 46.814 49.4787 46.0148 49.4787 45.0247V42.8221C49.4787 42.097 48.247 41.2575 46.657 41.2575H35.1327C33.5448 41.2575 32.311 42.097 32.311 42.8221V51.5416C32.311 52.5317 31.5096 53.3309 30.5217 53.3309C29.5338 53.3309 28.7324 52.5317 28.7324 51.5416V42.8221C28.7324 39.941 31.5435 37.6811 35.1306 37.6811H46.6549C47.6725 37.6811 48.6286 37.8613 49.4766 38.1899V28.8513C49.4766 25.3999 52.3492 22.593 55.8769 22.593H67.4012C70.9289 22.593 73.7994 25.3999 73.7994 28.8513V30.719C74.6516 30.3459 75.6099 30.1339 76.6211 30.1339H88.1454C91.6731 30.1339 94.5436 32.6927 94.5436 35.8345L94.5521 35.8367Z" fill="#1C211D"/>
<path d="M59.7606 85.1902C59.4829 85.7351 59.3282 86.3478 59.3282 86.9986C59.3282 87.482 59.4151 87.9462 59.572 88.3766C53.5787 88.0204 48.4865 85.3132 44.0387 80.1362C43.6974 79.7397 43.1653 79.515 42.6141 79.5447C42.33 79.5574 41.8 79.6528 41.4566 80.1425C39.3302 83.1614 36.5657 86.4898 30.6806 87.7533C29.8156 87.9378 28.9698 87.3887 28.7853 86.5258C28.5988 85.6651 29.15 84.8171 30.0107 84.6306C34.7701 83.613 36.9834 80.9481 38.8447 78.3045C39.6673 77.1385 40.9859 76.4262 42.4593 76.3562C43.9857 76.282 45.4782 76.9159 46.4576 78.0522C50.3627 82.5954 54.6154 84.885 59.7585 85.1881L59.7606 85.1902Z" fill="#1C211D"/>
<path d="M69.9052 73.475C70.2084 74.2531 70.3738 75.0968 70.3738 75.9809C70.3738 76.2353 70.3589 76.4854 70.3335 76.7314C67.8213 77.6769 65.0483 78.1539 62.0189 78.1539C55.4172 78.1539 49.8797 75.4445 45.0885 69.871C44.7472 69.4725 44.2151 69.2499 43.6639 69.2774C43.3798 69.2923 42.8498 69.3877 42.5064 69.8774C40.38 72.8963 37.6155 76.2247 31.7304 77.484C30.8654 77.6705 30.0196 77.1193 29.8351 76.2586C29.6486 75.3979 30.1998 74.5478 31.0605 74.3633C35.8199 73.3415 38.0353 70.6809 39.8945 68.0372C40.7192 66.8691 42.0357 66.1589 43.5091 66.0868C45.0355 66.0148 46.528 66.6486 47.5074 67.785C51.7135 72.68 56.3245 74.959 62.0167 74.959C64.9614 74.959 67.5817 74.4693 69.9031 73.475H69.9052Z" fill="#1C211D"/>
<path d="M94.2026 76.2585C94.0182 77.1192 93.1702 77.6704 92.3073 77.4839C86.8441 76.3158 84.0839 73.3987 81.9193 70.4201C81.5335 69.8922 80.9272 69.7968 80.6007 69.7883C79.9371 69.7692 79.2778 70.0533 78.8814 70.5345C78.5358 70.9543 78.1818 71.3571 77.8129 71.7408C77.4801 70.5939 77.0115 69.5063 76.4307 68.493C77.4546 67.257 79.051 66.5447 80.6961 66.5956C82.2458 66.6422 83.6302 67.3503 84.4994 68.5417C86.5727 71.3931 88.8072 73.4728 92.9751 74.3654C93.8359 74.5498 94.3871 75.3978 94.2005 76.2606L94.2026 76.2585Z" fill="#1C211D"/>
<path d="M68.0435 32.029C68.0435 32.3449 67.9608 32.6417 67.8166 32.9003C67.5092 33.4473 66.9262 33.8183 66.2542 33.8183H56.8244C56.2838 33.8183 55.7984 33.5766 55.4719 33.1971C55.1984 32.8834 55.0352 32.4721 55.0352 32.029C55.0352 31.5859 55.1984 31.1747 55.4719 30.8609C55.7984 30.4793 56.2838 30.2397 56.8244 30.2397H66.2542C66.9241 30.2397 67.5114 30.6086 67.8166 31.1577C67.9608 31.4163 68.0435 31.7131 68.0435 32.029Z" fill="#1C211D"/>
<path d="M60.5029 39.6781C60.5029 40.666 59.7016 41.4674 58.7136 41.4674H56.9328C56.3286 41.4674 55.7965 41.1685 55.4743 40.7127C55.2644 40.4201 55.1436 40.0661 55.1436 39.6802C55.1436 39.2944 55.2644 38.9382 55.4743 38.6478C55.7944 38.192 56.3286 37.8931 56.9328 37.8931H58.7136C59.7016 37.8931 60.5029 38.6944 60.5029 39.6823V39.6781Z" fill="#1C211D"/>
<path d="M68.0439 39.678C68.0439 39.9938 67.9613 40.2906 67.8171 40.5493C67.5139 41.0962 66.9267 41.4672 66.2546 41.4672H64.4739C63.4859 41.4672 62.6846 40.6659 62.6846 39.678C62.6846 38.69 63.4859 37.8887 64.4739 37.8887H66.2546C66.9246 37.8887 67.5118 38.2576 67.8171 38.8066C67.9613 39.0653 68.0439 39.3621 68.0439 39.678Z" fill="#1C211D"/>
<path d="M68.0434 47.2209C68.0434 47.5368 67.9608 47.8336 67.8166 48.0922C67.5134 48.6392 66.9262 49.0102 66.2542 49.0102H64.3059C63.318 49.0102 62.5166 48.211 62.5166 47.2209C62.5166 46.2309 63.318 45.4316 64.3059 45.4316H66.2542C66.9241 45.4316 67.5092 45.8005 67.8166 46.3496C67.9608 46.6082 68.0434 46.905 68.0434 47.2209Z" fill="#1C211D"/>
<path d="M81.1707 39.4872C81.1707 40.4751 80.3694 41.2765 79.3814 41.2765H77.6006C77.0431 41.2765 76.5491 41.0221 76.2205 40.6256C75.9661 40.3161 75.8135 39.9176 75.8135 39.4893C75.8135 39.0611 75.9682 38.6625 76.2205 38.353C76.5491 37.9544 77.0431 37.7021 77.6006 37.7021H79.3814C80.3694 37.7021 81.1707 38.5035 81.1707 39.4914V39.4872Z" fill="#1C211D"/>
<path d="M88.7139 39.4872C88.7139 39.7437 88.6609 39.9875 88.5612 40.2059C88.2835 40.8355 87.656 41.2744 86.9246 41.2744H85.1438C84.1559 41.2744 83.3545 40.473 83.3545 39.4851C83.3545 38.4972 84.1559 37.6958 85.1438 37.6958H86.9246C87.656 37.6958 88.2835 38.1346 88.5612 38.7643C88.6609 38.9848 88.7139 39.2286 88.7139 39.483V39.4872Z" fill="#1C211D"/>
<path d="M81.1707 47.0324C81.1707 48.0203 80.3694 48.8216 79.3814 48.8216H77.6006C77.0431 48.8216 76.5491 48.5672 76.2205 48.1708C75.9661 47.8613 75.8135 47.4627 75.8135 47.0345C75.8135 46.6062 75.9682 46.2077 76.2205 45.8982C76.5491 45.4996 77.0431 45.2473 77.6006 45.2473H79.3814C80.3694 45.2473 81.1707 46.0466 81.1707 47.0366V47.0324Z" fill="#1C211D"/>
<path d="M88.7139 47.0324C88.7139 47.2889 88.6609 47.5327 88.5612 47.751C88.2835 48.3807 87.656 48.8195 86.9246 48.8195H85.1438C84.1559 48.8195 83.3545 48.0182 83.3545 47.0302C83.3545 46.0423 84.1559 45.241 85.1438 45.241H86.9246C87.656 45.241 88.2835 45.6777 88.5612 46.3073C88.6609 46.5278 88.7139 46.7716 88.7139 47.0281V47.0324Z" fill="#1C211D"/>
<path d="M81.1707 54.5753C81.1707 55.5632 80.3694 56.3646 79.3814 56.3646H77.6006C77.0431 56.3646 76.5491 56.1102 76.2205 55.7138C75.9661 55.4042 75.8135 55.0099 75.8135 54.5774C75.8135 54.145 75.9682 53.7506 76.2205 53.4411C76.5491 53.0426 77.0431 52.7903 77.6006 52.7903H79.3814C80.3694 52.7903 81.1707 53.5916 81.1707 54.5796V54.5753Z" fill="#1C211D"/>
<path d="M88.7139 54.5753C88.7139 54.834 88.6609 55.0778 88.5612 55.2961C88.2835 55.9237 87.656 56.3625 86.9246 56.3625H85.1438C84.1559 56.3625 83.3545 55.5611 83.3545 54.5732C83.3545 53.5853 84.1559 52.7839 85.1438 52.7839H86.9246C87.656 52.7839 88.2835 53.2228 88.5612 53.8503C88.6609 54.0708 88.7139 54.3146 88.7139 54.5711V54.5753Z" fill="#1C211D"/>
<path d="M81.1709 62.1207C81.1709 63.1086 80.3695 63.9099 79.3816 63.9099H77.6008C76.7231 63.9099 75.996 63.2803 75.8433 62.4493C75.8221 62.3433 75.8115 62.233 75.8115 62.1207C75.8115 61.6967 75.9578 61.3045 76.2101 60.9992C76.5344 60.5943 77.0348 60.3335 77.6008 60.3335H79.3816C80.3695 60.3335 81.1709 61.1349 81.1709 62.1228V62.1207Z" fill="#1C211D"/>
<path d="M88.7139 62.1203C88.7139 62.3789 88.6609 62.6227 88.5612 62.8411C88.2835 63.4686 87.656 63.9074 86.9246 63.9074H85.1438C84.1559 63.9074 83.3545 63.1061 83.3545 62.1181C83.3545 61.1302 84.1559 60.3289 85.1438 60.3289H86.9246C87.656 60.3289 88.2835 60.7677 88.5612 61.3952C88.6609 61.6157 88.7139 61.8595 88.7139 62.116V62.1203Z" fill="#1C211D"/>
<path fill-rule="evenodd" clip-rule="evenodd" d="M76.0063 75.9809C76.0063 76.1801 76.0021 76.3815 75.9915 76.5787C75.9872 76.6826 75.9809 76.7843 75.9745 76.8861C75.9682 76.9667 75.9618 77.0451 75.9554 77.1235C75.9342 77.3525 75.9067 77.5793 75.8749 77.8041C75.8622 77.8846 75.8516 77.9631 75.8367 78.0436C75.8219 78.1411 75.8049 78.2365 75.7858 78.3298C75.7625 78.4634 75.7328 78.5948 75.7053 78.7263C75.6883 78.8005 75.6713 78.8725 75.6544 78.9489C75.648 78.9722 75.6395 78.9976 75.6353 79.0209C75.612 79.1185 75.5866 79.2117 75.5611 79.305C75.5314 79.411 75.5018 79.5191 75.4699 79.623C75.4424 79.7163 75.4127 79.8117 75.3809 79.905C75.277 80.2315 75.1562 80.5495 75.0269 80.8611C74.9824 80.9629 74.94 81.0646 74.8976 81.1621C74.8954 81.1664 74.8912 81.1749 74.8912 81.1791C74.8064 81.3657 74.7174 81.5501 74.6241 81.7324C74.5202 81.9317 74.4142 82.1289 74.2997 82.3218C74.2467 82.4151 74.1916 82.5083 74.1322 82.5995C74.0792 82.6843 74.0262 82.7691 73.9732 82.8539C73.9012 82.9641 73.827 83.0765 73.7485 83.1846C73.6955 83.2588 73.6446 83.3351 73.5895 83.4072C73.5259 83.4941 73.4644 83.5789 73.3987 83.6616C73.3987 83.6659 73.3966 83.668 73.3924 83.6722C73.3288 83.757 73.2652 83.8397 73.1973 83.9203C73.1295 84.0051 73.0595 84.0877 72.9896 84.1683C72.9196 84.251 72.8496 84.3315 72.7776 84.4121C72.6355 84.5711 72.4871 84.728 72.3345 84.8806C72.2603 84.9569 72.184 85.0333 72.1055 85.1075C72.0271 85.1817 71.9465 85.258 71.8638 85.3322C71.707 85.4742 71.5458 85.6141 71.3784 85.7498C71.2109 85.8855 71.0434 86.0169 70.8696 86.1463C70.6088 86.3392 70.3417 86.5236 70.0661 86.6932C70.064 86.6932 70.064 86.6953 70.0618 86.6953C69.7332 86.901 69.3983 87.0918 69.0506 87.2656C68.9828 87.2995 68.9128 87.3356 68.8428 87.3674C68.6414 87.4649 68.44 87.5561 68.2344 87.6409C68.1623 87.6727 68.0902 87.7002 68.0139 87.7299C67.9228 87.7659 67.8295 87.802 67.7362 87.8359C67.6556 87.8677 67.5772 87.8953 67.4945 87.9207C67.467 87.9334 67.4394 87.9419 67.4118 87.9504C67.3292 87.9801 67.2444 88.0055 67.1617 88.0331C67.1256 88.0458 67.0896 88.0564 67.0557 88.067C66.9836 88.0882 66.9094 88.1094 66.8352 88.1327C66.8119 88.1369 66.7886 88.1454 66.7674 88.1518C66.6105 88.1942 66.4536 88.2366 66.2946 88.2726C66.2119 88.2917 66.1314 88.3108 66.0487 88.3277C65.9236 88.3574 65.7985 88.3807 65.6692 88.4019C65.525 88.4316 65.3766 88.4549 65.2304 88.4761C65.1752 88.4825 65.1222 88.491 65.0671 88.4973C64.9844 88.5101 64.9039 88.5185 64.8212 88.5291C64.7661 88.5355 64.7067 88.544 64.6495 88.5482C64.5244 88.5609 64.3993 88.5715 64.27 88.58C64.1598 88.5906 64.0453 88.597 63.9329 88.5991C63.8524 88.6033 63.776 88.6055 63.6955 88.6097C63.581 88.6118 63.4686 88.6139 63.3542 88.6139C63.316 88.6139 63.2736 88.6118 63.2354 88.6097C63.2121 88.6076 63.1867 88.6055 63.1634 88.6033C63.1167 88.5991 63.0743 88.5906 63.0298 88.5821C62.9832 88.5715 62.9386 88.5631 62.8941 88.5482C62.7648 88.5101 62.6376 88.4549 62.5252 88.385C62.4956 88.368 62.468 88.3489 62.4383 88.3299C62.4108 88.3108 62.3832 88.2917 62.3556 88.2705C62.3344 88.2535 62.309 88.2345 62.2878 88.2154C62.2348 88.1666 62.1818 88.1157 62.1352 88.0606C62.1161 88.0394 62.097 88.0182 62.08 87.9928C62.0567 87.9631 62.0334 87.9334 62.0101 87.8995C61.9868 87.8613 61.9592 87.8189 61.938 87.7765C61.8892 87.6896 61.8511 87.5963 61.8193 87.4988C61.8172 87.4946 61.815 87.4861 61.8129 87.4776C61.7896 87.3949 61.7684 87.3101 61.7578 87.2232C61.7578 87.219 61.7557 87.2126 61.7557 87.2063C61.7536 87.1766 61.7493 87.149 61.7493 87.1172C61.7472 87.0812 61.7451 87.0451 61.7451 87.0091C61.7451 86.1187 62.4659 85.4 63.3542 85.4C63.4708 85.4 63.5852 85.3979 63.6997 85.3937C63.8078 85.3915 63.9138 85.3831 64.0241 85.3767C64.0432 85.3767 64.0622 85.3746 64.0813 85.3746C64.1831 85.3682 64.2848 85.3576 64.3824 85.3449C64.4693 85.3343 64.5562 85.3258 64.641 85.3131C64.6919 85.3067 64.7428 85.2983 64.7936 85.2919C64.8996 85.2749 65.0056 85.258 65.1095 85.2389C65.1816 85.2241 65.2558 85.2092 65.33 85.1923C65.6395 85.1265 65.9427 85.0481 66.2395 84.9527C66.2882 84.9357 66.337 84.9209 66.3815 84.9039C66.4727 84.8743 66.566 84.8403 66.6571 84.8064C66.7504 84.7704 66.8458 84.7343 66.937 84.6962C66.9688 84.6856 66.9963 84.6729 67.0281 84.6601C67.1914 84.5902 67.3567 84.516 67.5157 84.4375C67.8189 84.287 68.1136 84.1238 68.3976 83.9457C68.3998 83.9457 68.3998 83.9436 68.4019 83.9436C68.8004 83.6934 69.1757 83.4093 69.5318 83.1041C69.5891 83.0553 69.6463 83.0044 69.7014 82.9535C69.7566 82.9027 69.8117 82.8518 69.8689 82.7988C70.064 82.6122 70.2526 82.4193 70.4286 82.2179C70.4858 82.1585 70.5367 82.0949 70.5897 82.0313C70.7042 81.8957 70.8123 81.7579 70.9183 81.6179C70.965 81.5586 71.0074 81.495 71.0519 81.4335C71.09 81.3805 71.1261 81.3296 71.1621 81.2766C71.389 80.9417 71.5967 80.5919 71.779 80.2293C71.8363 80.1149 71.8935 80.0004 71.9465 79.8838C72.0207 79.7248 72.0886 79.5594 72.1522 79.3962C72.1755 79.3389 72.1988 79.2796 72.22 79.2223C72.273 79.0782 72.3218 78.9319 72.3663 78.7856C72.3854 78.7284 72.4023 78.669 72.4193 78.6118C72.5783 78.0669 72.6864 77.4988 72.7458 76.9179C72.7564 76.831 72.7627 76.7419 72.767 76.6529C72.7776 76.5321 72.7818 76.4112 72.786 76.2883C72.7882 76.1886 72.7903 76.0911 72.7903 75.9893C72.7903 75.8685 72.7882 75.7477 72.7839 75.6268C72.7818 75.5399 72.7776 75.4551 72.7712 75.3703C72.767 75.3131 72.7606 75.2537 72.7564 75.1965C72.7521 75.1244 72.7436 75.0544 72.7373 74.9823C72.7224 74.8424 72.7034 74.7025 72.6822 74.5647C72.6631 74.4248 72.6376 74.287 72.6101 74.1492C72.5952 74.0792 72.5804 74.0114 72.5677 73.9435C72.538 73.8079 72.5041 73.6722 72.468 73.5407V73.5365C72.432 73.4029 72.3938 73.2715 72.3493 73.1401C72.3111 73.0107 72.2645 72.8814 72.22 72.7542C72.2179 72.7542 72.2179 72.7521 72.2179 72.75C72.1712 72.6249 72.1246 72.4998 72.0716 72.3769C72.0716 72.3747 72.0695 72.3726 72.0695 72.3705C72.0652 72.3557 72.0568 72.3429 72.0525 72.3302C72.0144 72.2391 71.972 72.1458 71.9296 72.0546C71.8808 71.9507 71.832 71.8469 71.779 71.7451C71.7388 71.6645 71.6964 71.5861 71.654 71.5077C71.6349 71.4695 71.6158 71.4335 71.5904 71.3932C71.5437 71.3084 71.4971 71.2257 71.4462 71.1451C71.3826 71.037 71.3169 70.9331 71.2469 70.8293C71.1918 70.7423 71.1324 70.6575 71.0731 70.5728C71.0688 70.5621 71.0604 70.5537 71.054 70.5431C70.9989 70.4667 70.9438 70.3883 70.8844 70.3141C70.8484 70.2653 70.8123 70.2166 70.7742 70.1721C70.7318 70.1169 70.6851 70.0618 70.6385 70.0046C70.5706 69.9219 70.5007 69.8371 70.4286 69.7587C70.3714 69.6929 70.312 69.6293 70.2526 69.5658C70.1827 69.4894 70.1085 69.411 70.03 69.3368C69.977 69.2838 69.924 69.2308 69.8689 69.1799C69.8138 69.1269 69.7587 69.076 69.7014 69.0251C69.6103 68.9403 69.5149 68.8577 69.4216 68.7813C69.3559 68.7262 69.2944 68.6732 69.2266 68.6202C69.1502 68.5566 69.0697 68.4973 68.9891 68.44C68.9382 68.404 68.8874 68.3658 68.8365 68.3298C68.6817 68.2217 68.5248 68.1157 68.3658 68.016C68.1729 67.8952 67.9758 67.7786 67.7722 67.6726C67.6705 67.6196 67.5666 67.5666 67.4648 67.5178C67.361 67.4669 67.255 67.4182 67.1511 67.3737C66.9518 67.2867 66.7504 67.2062 66.5448 67.132C66.337 67.0578 66.125 66.9899 65.9109 66.9327C65.86 66.9157 65.8091 66.903 65.7561 66.8903C65.6671 66.867 65.578 66.8437 65.489 66.8246C65.3915 66.8034 65.2961 66.7822 65.1986 66.761C65.048 66.7313 64.9018 66.7059 64.7491 66.6847C64.6474 66.6698 64.5456 66.655 64.446 66.6465C64.3357 66.6317 64.2212 66.6232 64.1089 66.6126C64.094 66.6126 64.0792 66.6105 64.0665 66.6105C63.9562 66.5999 63.8439 66.5956 63.7336 66.5914H63.7209C63.6001 66.5871 63.4792 66.585 63.3584 66.585C63.1019 66.585 62.8348 66.5999 62.557 66.6211C62.5125 66.6253 62.468 66.6274 62.4235 66.6274C62.3387 66.6274 62.256 66.6232 62.1754 66.6062C62.1648 66.6062 62.1564 66.6041 62.1458 66.602C62.1267 66.602 62.1076 66.5977 62.0885 66.5914C62.0525 66.585 62.0143 66.5744 61.9783 66.5617C61.9486 66.5553 61.921 66.5447 61.8914 66.532C61.8638 66.5257 61.8384 66.5129 61.8108 66.5023C61.7514 66.479 61.6921 66.4493 61.637 66.4175C61.6073 66.4027 61.5818 66.3857 61.5543 66.3688C61.5161 66.3455 61.478 66.3179 61.4398 66.2882C61.4016 66.2585 61.3656 66.2289 61.3317 66.1971C61.001 65.8939 60.8123 65.4635 60.8123 65.0141V64.9717C60.8123 57.946 55.101 52.2453 48.0499 52.2453C42.5951 52.2453 37.9375 55.6607 36.1122 60.4667C35.932 60.9437 35.5355 61.3062 35.0437 61.4461C35.0076 61.4567 34.9716 61.4652 34.9356 61.4737C34.8635 61.4885 34.7914 61.497 34.7214 61.5034C34.6833 61.5055 34.6472 61.5076 34.607 61.5076C34.5667 61.5076 34.5264 61.5055 34.4861 61.5034C34.4755 61.5034 34.467 61.5013 34.4564 61.5013C34.4204 61.4991 34.3822 61.4949 34.3462 61.4864C34.3038 61.4801 34.2614 61.4716 34.219 61.4589H34.2169C34.1745 61.4461 34.1321 61.4355 34.0897 61.4207C34.0261 61.3995 33.9667 61.3741 33.9052 61.3465C33.8438 61.3189 33.7865 61.2829 33.7314 61.2469C33.6954 61.2235 33.6593 61.196 33.6233 61.1705C32.5188 60.3141 31.1344 59.8053 29.6292 59.8053C26.0231 59.8053 23.1081 62.7203 23.1081 66.3073C23.1081 66.7143 23.1462 67.115 23.2226 67.5157C23.3095 67.98 23.1886 68.4549 22.894 68.8216C22.5993 69.1884 22.1583 69.4067 21.6877 69.4195C17.3586 69.5467 13.9136 72.9917 13.9136 77.4055C13.9136 81.8193 17.4986 85.4 21.9294 85.4C22.8176 85.4 23.5384 86.1187 23.5384 87.0091C23.5384 87.8995 22.8176 88.6182 21.9294 88.6182C15.7262 88.6182 10.6934 83.6023 10.6934 77.4055C10.6934 71.8087 14.6662 67.3228 19.8899 66.3773C19.8878 66.3539 19.8878 66.3285 19.8878 66.3052C19.8878 60.9331 24.2529 56.5829 29.6313 56.5829C31.162 56.5829 32.6099 56.9369 33.8989 57.5644C36.5722 52.4891 41.9104 49.0229 48.0541 49.0229C56.3391 49.0229 63.1549 55.313 63.9562 63.3753C64.1004 63.3817 64.2467 63.3923 64.3887 63.405C64.393 63.4029 64.3951 63.405 64.4014 63.405C64.5308 63.4156 64.6601 63.4262 64.7873 63.4411C64.9654 63.4601 65.1434 63.4835 65.3215 63.5131C65.436 63.5301 65.5484 63.5492 65.6586 63.5704C65.6777 63.5725 65.6968 63.5746 65.7137 63.581C65.843 63.6043 65.9724 63.6319 66.1017 63.6573C66.2204 63.6849 66.3412 63.7124 66.4578 63.7442C66.5151 63.7569 66.5744 63.7739 66.6317 63.7866C66.8797 63.8523 67.1256 63.9265 67.3673 64.0071C67.4818 64.0453 67.5942 64.0834 67.7086 64.1279C67.8507 64.1788 67.9906 64.2318 68.1305 64.2891C68.2408 64.3357 68.3531 64.3802 68.4634 64.4311C68.6224 64.5011 68.7814 64.5731 68.9382 64.6516C69.0485 64.7067 69.1587 64.7618 69.2668 64.8191C69.3898 64.8848 69.5128 64.9526 69.6336 65.0226C69.7672 65.0968 69.8965 65.1773 70.0279 65.2558C70.1318 65.3194 70.2357 65.3851 70.3374 65.4529C70.3396 65.4529 70.3417 65.4551 70.3438 65.4572C70.4477 65.525 70.5516 65.5971 70.6554 65.6692C70.6766 65.684 70.6957 65.6989 70.719 65.7116C70.8208 65.7837 70.9204 65.8579 71.018 65.9342C71.1261 66.0169 71.2321 66.1017 71.3381 66.1843C71.461 66.284 71.5798 66.3836 71.6985 66.4875C71.7854 66.5638 71.8723 66.6423 71.9571 66.7207C71.9677 66.7249 71.9741 66.7355 71.9847 66.744C72.0822 66.8309 72.1755 66.9221 72.2666 67.0154C72.3663 67.1087 72.4617 67.2104 72.5571 67.3122C72.6546 67.4118 72.7458 67.5115 72.8369 67.6153C72.9175 67.7044 72.9938 67.7955 73.0701 67.8888C73.0913 67.91 73.1104 67.9355 73.1274 67.9588C73.297 68.1623 73.4581 68.3701 73.6128 68.5842C73.6955 68.6944 73.7739 68.8089 73.8524 68.9213C73.9287 69.0379 74.005 69.1523 74.0792 69.2689C74.2255 69.5021 74.3654 69.7438 74.499 69.9876C74.5626 70.1042 74.6241 70.2208 74.6856 70.3395C74.6877 70.3438 74.6898 70.3523 74.6919 70.3565C74.6962 70.3629 74.6983 70.3735 74.7046 70.3798C74.764 70.4985 74.8212 70.6194 74.8764 70.7402C74.9209 70.8335 74.9612 70.9289 75.0014 71.0222C75.0247 71.0794 75.0502 71.1388 75.0735 71.196C75.1265 71.319 75.1753 71.4441 75.2198 71.5734C75.2664 71.6942 75.3088 71.8151 75.3491 71.938C75.3852 72.0419 75.4191 72.1458 75.4509 72.2497C75.4615 72.2772 75.4678 72.3027 75.4742 72.3302C75.489 72.3769 75.5018 72.4193 75.5124 72.4638C75.5442 72.5655 75.5696 72.6673 75.5972 72.7669C75.6353 72.9069 75.6692 73.0489 75.701 73.1909C75.7031 73.1952 75.7032 73.2037 75.7053 73.21C75.735 73.3351 75.7604 73.4665 75.7858 73.5938C75.788 73.6001 75.788 73.6107 75.7901 73.6171C75.7922 73.6234 75.7922 73.634 75.7943 73.6404C75.8113 73.7273 75.8261 73.8163 75.841 73.9054C75.8622 74.0262 75.8791 74.1492 75.8961 74.2721C75.9067 74.3442 75.9152 74.4163 75.9236 74.4863C75.9342 74.5668 75.9427 74.6453 75.9512 74.7258C75.9576 74.7958 75.966 74.8679 75.9703 74.9399C75.9745 74.9866 75.9766 75.0311 75.983 75.0799C75.9894 75.1795 75.9957 75.277 76 75.3767C76.0021 75.4085 76.0021 75.4403 76.0042 75.4699C76.0106 75.6395 76.0148 75.807 76.0148 75.9787L76.0063 75.9809Z" fill="#1C211D"/>
<path fill-rule="evenodd" clip-rule="evenodd" d="M61.9381 87.766C61.8893 87.6791 61.849 87.5858 61.8193 87.4883C61.8511 87.5858 61.8893 87.6791 61.9381 87.766Z" fill="#1C211D"/>
<path fill-rule="evenodd" clip-rule="evenodd" d="M74.4901 69.9855C74.3565 69.7417 74.2166 69.5 74.0703 69.2668C74.2208 69.5 74.3607 69.7417 74.4901 69.9855Z" fill="#1C211D"/>
<path d="M61.8193 87.4882C61.849 87.5858 61.8893 87.679 61.9381 87.766C61.8893 87.679 61.8511 87.5858 61.8193 87.4882ZM74.0708 69.2668C74.2171 69.5 74.357 69.7417 74.4906 69.9855C74.3613 69.7417 74.2213 69.5 74.0708 69.2668Z" fill="white"/>
</svg>
