<svg width="14" height="14" viewBox="0 0 14 14" fill="none" xmlns="http://www.w3.org/2000/svg">
<path d="M7.66742 1.46043V1.47376C7.66742 1.92043 7.96742 2.29376 8.38742 2.4271C10.2874 3.02043 11.6674 4.7871 11.6674 6.88043C11.6674 7.2271 11.6274 7.55376 11.5541 7.87376C11.4608 8.30043 11.6341 8.74043 12.0141 8.9671L12.0208 8.97376C12.5941 9.3071 13.3408 9.0071 13.4941 8.3671C13.6074 7.8871 13.6674 7.3871 13.6674 6.88043C13.6674 3.88043 11.6808 1.33376 8.94742 0.50043C8.31409 0.307096 7.66742 0.793763 7.66742 1.46043ZM6.29409 11.4938C4.30076 11.2071 2.68076 9.5871 2.38742 7.60043C2.02742 5.20043 3.49409 3.0871 5.60742 2.4271C6.03409 2.30043 6.33409 1.92043 6.33409 1.47376V1.46043C6.33409 0.793763 5.68742 0.307096 5.04742 0.50043C2.04076 1.42043 -0.0592438 4.4071 0.39409 7.8071C0.787423 10.7271 3.14742 13.0871 6.06742 13.4804C8.16076 13.7604 10.0941 13.0738 11.4874 11.7938C11.9808 11.3404 11.8941 10.5338 11.3141 10.2004C10.9274 9.97376 10.4474 10.0471 10.1141 10.3471C9.13409 11.2404 7.77409 11.7138 6.29409 11.4938Z" fill="#1C211D"/>
</svg>
