<svg width="24" height="28" viewBox="0 0 24 28" fill="none" xmlns="http://www.w3.org/2000/svg">
<path d="M15.6533 10.0002L15.192 22.0002M8.808 22.0002L8.34667 10.0002M21.6373 5.72021C22.0933 5.78954 22.5467 5.86287 23 5.94154M21.6373 5.72021L20.2133 24.2309C20.1552 24.9845 19.8148 25.6884 19.26 26.2019C18.7053 26.7153 17.9772 27.0004 17.2213 27.0002H6.77867C6.02279 27.0004 5.2947 26.7153 4.73997 26.2019C4.18525 25.6884 3.84479 24.9845 3.78667 24.2309L2.36267 5.72021M21.6373 5.72021C20.0985 5.48756 18.5517 5.311 17 5.19087M2.36267 5.72021C1.90667 5.78821 1.45333 5.86154 1 5.94021M2.36267 5.72021C3.90151 5.48757 5.44831 5.311 7 5.19087M17 5.19087V3.96954C17 2.39621 15.7867 1.08421 14.2133 1.03487C12.7382 0.987724 11.2618 0.987724 9.78667 1.03487C8.21333 1.08421 7 2.39754 7 3.96954V5.19087M17 5.19087C13.6716 4.93364 10.3284 4.93364 7 5.19087" stroke="black" stroke-width="1.5" stroke-linecap="round" stroke-linejoin="round"/>
</svg>
