<svg width="32" height="32" viewBox="0 0 32 32" fill="none" xmlns="http://www.w3.org/2000/svg">
<g id="at-symbol/mini">
<path id="Vector" d="M21.3664 18.5234L21.8167 18.9213C22.3793 19.4185 23.0735 19.7427 23.8158 19.855C24.5581 19.9673 25.3171 19.863 26.0016 19.5545C26.6861 19.246 27.267 18.7465 27.6746 18.116C28.0821 17.4855 28.299 16.7508 28.2992 16L21.3664 18.5234ZM21.3664 18.5234L21.057 19.0385M21.3664 18.5234L21.057 19.0385M21.057 19.0385C20.3222 20.2618 19.1691 21.1773 17.811 21.6155C16.453 22.0538 14.9822 21.9849 13.671 21.4218C12.3598 20.8587 11.2972 19.8395 10.6799 18.553C10.0626 17.2665 9.93243 15.7998 10.3136 14.4247C10.6948 13.0495 11.5614 11.8592 12.7529 11.074C13.9445 10.2889 15.3802 9.96216 16.7942 10.1544C18.2081 10.3467 19.5045 11.0449 20.4431 12.1197C21.3818 13.1945 21.8991 14.573 21.8992 16L21.057 19.0385ZM8.14562 23.5623V23.5579C6.95232 22.318 6.06882 20.8124 5.56867 19.1638C5.04826 17.4484 4.95894 15.6312 5.30863 13.8731C5.65831 12.1149 6.4362 10.4702 7.57338 9.08452C8.71056 7.69884 10.1719 6.61502 11.8281 5.92905C13.4842 5.24308 15.2839 4.97614 17.0678 5.15188C18.8518 5.32762 20.5648 5.94061 22.0552 6.93656C23.5457 7.93251 24.7675 9.28066 25.6124 10.8616C26.4573 12.4425 26.8993 14.2074 26.8992 16L8.14562 23.5623ZM8.14562 23.5623L8.29204 23.7087M8.14562 23.5623L8.29204 23.7087M8.29204 23.7087C9.30422 24.721 10.5059 25.5241 11.8284 26.0719C13.151 26.6198 14.5685 26.9018 16 26.9018C17.4316 26.9018 18.8491 26.6198 20.1716 26.0719C21.491 25.5253 22.6902 24.7248 23.7008 23.7159C23.8329 23.5955 24.006 23.5301 24.1848 23.5332C24.3662 23.5364 24.5392 23.6099 24.6675 23.7381C24.7957 23.8664 24.8692 24.0394 24.8724 24.2208C24.8755 24.3995 24.8102 24.5726 24.6899 24.7046C22.6786 26.7128 20.0338 27.9625 17.2052 28.2412C14.3732 28.5202 11.5321 27.8086 9.166 26.2277C6.79987 24.6468 5.0551 22.2944 4.22896 19.5713C3.40283 16.8482 3.54645 13.9229 4.63536 11.2938C5.72426 8.66472 7.69108 6.49453 10.2007 5.15302C12.7103 3.8115 15.6074 3.38165 18.3984 3.93672C21.1894 4.49179 23.7016 5.99742 25.507 8.19709C27.3123 10.3967 28.2991 13.1543 28.2992 15.9999L8.29204 23.7087ZM26.167 17.7678C26.6358 17.2989 26.8992 16.6631 26.8992 16L21.8992 16C21.8992 16.6631 22.1626 17.2989 22.6315 17.7678C23.1003 18.2366 23.7362 18.5 24.3992 18.5C25.0623 18.5 25.6981 18.2366 26.167 17.7678ZM15.9992 11.5C14.8057 11.5 13.6612 11.9741 12.8172 12.818C11.9733 13.6619 11.4992 14.8065 11.4992 16C11.4992 17.1935 11.9733 18.3381 12.8172 19.182C13.6612 20.0259 14.8057 20.5 15.9992 20.5C17.1927 20.5 18.3373 20.0259 19.1812 19.182C20.0251 18.3381 20.4992 17.1935 20.4992 16C20.4992 14.8065 20.0251 13.6619 19.1812 12.818C18.3373 11.9741 17.1927 11.5 15.9992 11.5Z" fill="white" stroke="white"/>
</g>
</svg>
