<svg width="10" height="12" viewBox="0 0 10 12" fill="none" xmlns="http://www.w3.org/2000/svg">
<path d="M8.06004 4.33337H7.00004V1.00004C7.00004 0.633374 6.70004 0.333374 6.33337 0.333374H3.66671C3.30004 0.333374 3.00004 0.633374 3.00004 1.00004V4.33337H1.94004C1.34671 4.33337 1.04671 5.05337 1.46671 5.47337L4.52671 8.53337C4.78671 8.79337 5.20671 8.79337 5.46671 8.53337L8.52671 5.47337C8.94671 5.05337 8.65337 4.33337 8.06004 4.33337ZM0.333374 11C0.333374 11.3667 0.633374 11.6667 1.00004 11.6667H9.00004C9.36671 11.6667 9.66671 11.3667 9.66671 11C9.66671 10.6334 9.36671 10.3334 9.00004 10.3334H1.00004C0.633374 10.3334 0.333374 10.6334 0.333374 11Z" fill="white"/>
</svg>
