<svg width="25" height="25" viewBox="0 0 25 25" fill="none" xmlns="http://www.w3.org/2000/svg">
<g id="at-symbol/mini">
<path id="Vector" d="M8.20801 4.47461C9.94875 3.54409 11.942 3.20696 13.8857 3.50684L14.2734 3.5752C16.2092 3.96018 17.9641 4.96297 19.2764 6.42773L19.5322 6.72754C20.8679 8.35491 21.5985 10.3947 21.5986 12.5L21.5908 12.7012C21.557 13.1695 21.4065 13.6234 21.1504 14.0195C20.8944 14.4156 20.5429 14.7397 20.1299 14.9629L19.9492 15.0518C19.4579 15.2732 18.9128 15.3481 18.3799 15.2676C17.847 15.187 17.3482 14.9545 16.9443 14.5977L16.4941 14.1992L16.1846 14.7148C15.6826 15.5505 14.9127 16.1896 14.0029 16.5293L13.8193 16.5928C12.8296 16.9121 11.7574 16.8616 10.8018 16.4512C9.84617 16.0408 9.07197 15.298 8.62207 14.3604C8.20041 13.4815 8.08996 12.4875 8.30664 11.541L8.35449 11.3516C8.61499 10.412 9.18668 9.59093 9.97266 9.02051L10.1328 8.91016C10.947 8.37369 11.9175 8.13049 12.8848 8.21777L13.0781 8.23926C14.044 8.37065 14.9343 8.82668 15.6055 9.52832L15.7373 9.67188C16.4214 10.4552 16.7987 11.46 16.7988 12.5L16.8086 12.6973C16.8475 13.0898 17.001 13.4625 17.251 13.7676L17.3838 13.9141C17.7589 14.2891 18.2684 14.5 18.7988 14.5C19.263 14.4999 19.7105 14.3386 20.0664 14.0469L20.2129 13.9141C20.5878 13.539 20.7988 13.0303 20.7988 12.5L20.7949 12.2441C20.7582 11.0525 20.4649 9.8827 19.9355 8.81445L19.8184 8.58691C19.175 7.38338 18.245 6.3569 17.1104 5.59863C16.0464 4.88769 14.8331 4.4329 13.5664 4.26855L13.3125 4.23926C12.0389 4.11379 10.7543 4.28496 9.55957 4.7373L9.32227 4.83105C8.14007 5.32072 7.0884 6.07715 6.24805 7.03906L6.08203 7.23438C5.27031 8.22357 4.69971 9.38635 4.41211 10.6309L4.35742 10.8809C4.10792 12.1357 4.15246 13.4301 4.48535 14.6631L4.55566 14.9092C4.93157 16.1482 5.5926 17.2807 6.4834 18.2178V18.2236L6.62988 18.3701C7.40057 19.1409 8.31529 19.7528 9.32227 20.1699C10.3293 20.5871 11.409 20.8018 12.499 20.8018C13.5891 20.8018 14.6687 20.5871 15.6758 20.1699C16.6774 19.755 17.5873 19.1468 18.3555 18.3818C18.4123 18.3289 18.4832 18.2946 18.5586 18.2812L18.6357 18.2754C18.7132 18.2768 18.7881 18.3002 18.8516 18.3428L18.9111 18.3916C18.9662 18.4467 19.0036 18.5167 19.0195 18.5918L19.0283 18.668C19.0301 18.7706 18.9912 18.8688 18.9219 18.9443C17.5278 20.334 15.7243 21.2331 13.7822 21.5098L13.3906 21.5566C11.4264 21.7501 9.4564 21.2991 7.77539 20.2783L7.44336 20.0674C5.80221 18.9709 4.56493 17.3721 3.91309 15.5166L3.79004 15.1426C3.21706 13.2539 3.27509 11.2335 3.94824 9.38574L4.09082 9.01855C4.84612 7.19494 6.17243 5.66928 7.86523 4.66797L8.20801 4.47461ZM12.498 9C11.5699 9.0001 10.6797 9.36911 10.0234 10.0254C9.36718 10.6817 8.99806 11.5718 8.99805 12.5C8.99805 13.4282 9.3672 14.3183 10.0234 14.9746C10.6797 15.6309 11.5699 15.9999 12.498 16C13.3683 16 14.2056 15.6761 14.8477 15.0947L14.9736 14.9746C15.6298 14.3183 15.998 13.4281 15.998 12.5C15.998 11.6298 15.674 10.7934 15.0928 10.1514L14.9736 10.0254C14.3173 9.36901 13.4263 9 12.498 9Z" fill="white" stroke="white"/>
</g>
</svg>
