<svg width="16" height="16" viewBox="0 0 16 16" fill="none" xmlns="http://www.w3.org/2000/svg">
<path d="M11.7612 4.23439C10.6746 3.14772 9.13456 2.52105 7.44123 2.69439C4.99456 2.94105 2.98123 4.92772 2.7079 7.37439C2.34123 10.6077 4.84123 13.3344 7.99456 13.3344C10.1212 13.3344 11.9479 12.0877 12.8012 10.2944C13.0146 9.84772 12.6946 9.33439 12.2012 9.33439C11.9546 9.33439 11.7212 9.46772 11.6146 9.68772C10.8612 11.3077 9.05456 12.3344 7.08123 11.8944C5.60123 11.5677 4.40789 10.3611 4.09456 8.88105C3.53456 6.29439 5.50123 4.00105 7.99456 4.00105C9.10123 4.00105 10.0879 4.46105 10.8079 5.18772L9.80123 6.19439C9.38123 6.61439 9.67456 7.33439 10.2679 7.33439H12.6612C13.0279 7.33439 13.3279 7.03439 13.3279 6.66772V4.27439C13.3279 3.68105 12.6079 3.38105 12.1879 3.80105L11.7612 4.23439Z" fill="white"/>
</svg>
