<svg xmlns="http://www.w3.org/2000/svg" x="0px" y="0px" width="100" height="100" viewBox="0,0,256,256">
<g fill="#0aa82d" fill-rule="nonzero" stroke="none" stroke-width="1" stroke-linecap="butt" stroke-linejoin="miter" stroke-miterlimit="10" stroke-dasharray="" stroke-dashoffset="0" font-family="none" font-weight="none" font-size="none" text-anchor="none" style="mix-blend-mode: normal"><g transform="scale(5.12,5.12)"><path d="M34,0c-8.82031,0 -16,7.17578 -16,16c0,1.96094 0.38281,3.82422 1.03125,5.5625l-18.75,18.71875l-0.28125,0.3125v6.8125l0.28125,0.3125l2,2l0.3125,0.28125h6.8125l0.3125,-0.28125l3,-3l0.28125,-0.3125v-2.40625h2.40625l0.3125,-0.28125l3,-3l0.28125,-0.3125v-1.40625h1.40625l0.3125,-0.28125l2,-2l0.28125,-0.3125v-1.40625h1.40625l0.3125,-0.28125l3.71875,-3.75c1.73828,0.64844 3.60156,1.03125 5.5625,1.03125c8.82031,0 16,-7.17969 16,-16c0,-8.82422 -7.17969,-16 -16,-16zM34,2c7.73828,0 14,6.25781 14,14c0,7.73828 -6.26172,14 -14,14c-1.92187,0 -3.74219,-0.36328 -5.40625,-1.0625c-0.01172,-0.01172 -0.01953,-0.01953 -0.03125,-0.03125c-5.02734,-2.125 -8.5625,-7.10156 -8.5625,-12.90625c0,-7.74219 6.26172,-14 14,-14zM34,5c-2.81641,0 -5.63672,1.07422 -7.78125,3.21875l-0.71875,0.71875l0.71875,0.6875l14.15625,14.15625l0.6875,0.71875l0.71875,-0.71875c4.28906,-4.28516 4.28906,-11.27734 0,-15.5625c-2.14453,-2.14453 -4.96484,-3.21875 -7.78125,-3.21875zM34,7c2.30078,0 4.61328,0.86328 6.375,2.625c3.27344,3.27344 3.375,8.37109 0.5625,11.90625l-12.46875,-12.46875c1.63281,-1.29687 3.55469,-2.0625 5.53125,-2.0625zM19.875,23.53125c1.49609,2.79688 3.79688,5.09766 6.59375,6.59375l-2.90625,2.875h-2.5625v2.5625l-1.4375,1.4375h-2.5625v2.5625l-2.4375,2.4375h-3.5625v3.5625l-2.4375,2.4375h-5.125l-1,-1l16.5625,-16.5625c0.35938,-0.30859 0.45703,-0.82422 0.23047,-1.23828c-0.22656,-0.41797 -0.71484,-0.61719 -1.16797,-0.48047c-0.19141,0.04297 -0.36328,0.14063 -0.5,0.28125l-15.5625,15.59375v-3.15625z"></path></g></g>
</svg>
