<svg width="20" height="20" viewBox="0 0 20 20" fill="none" xmlns="http://www.w3.org/2000/svg">
<path d="M10 0.999999C12.755 0.999999 15.455 1.232 18.083 1.678C18.616 1.768 19 2.234 19 2.774V3.818C19 4.11347 18.9418 4.40606 18.8287 4.67904C18.7157 4.95203 18.5499 5.20007 18.341 5.409L12.909 10.841C12.7001 11.0499 12.5343 11.298 12.4213 11.571C12.3082 11.8439 12.25 12.1365 12.25 12.432V15.359C12.2501 15.777 12.1337 16.1867 11.914 16.5422C11.6943 16.8978 11.3799 17.1851 11.006 17.372L7.75 19V12.432C7.75 12.1365 7.69181 11.8439 7.57874 11.571C7.46566 11.298 7.29993 11.0499 7.091 10.841L1.659 5.409C1.45007 5.20007 1.28434 4.95203 1.17126 4.67904C1.05819 4.40606 0.999997 4.11347 1 3.818V2.774C1 2.234 1.384 1.768 1.917 1.678C4.58757 1.22585 7.29143 0.999054 10 0.999999Z" stroke="black" stroke-width="1.5" stroke-linecap="round" stroke-linejoin="round"/>
</svg>
