<svg width="58" height="58" viewBox="0 0 50 58" fill="none" xmlns="http://www.w3.org/2000/svg">
<g clip-path="url(#clip0_170_5404)">
<path fill-rule="evenodd" clip-rule="evenodd" d="M15.566 28.3922C15.566 27.1668 16.9268 26.479 17.9154 27.1325L17.9225 27.1372L17.9225 27.1373L31.422 36.1938V29.6452H31.419V28.3952C31.419 27.1698 32.7798 26.482 33.7685 27.1355L33.7756 27.1402L33.7756 27.1402L33.783 27.1452H33.922V27.2385L49.0995 37.4216C49.1003 37.4221 49.101 37.4226 49.1018 37.4231C49.5201 37.7031 49.772 38.1761 49.772 38.6786V56.7726C49.772 57.5963 49.1057 58.2841 48.2605 58.2841H1.22745C0.40372 58.2841 -0.284088 57.6178 -0.284088 56.7726V28.3952C-0.284088 27.1698 1.07673 26.482 2.06535 27.1355L2.07238 27.1401L2.07237 27.1402L15.566 36.191V28.3922ZM33.922 30.249L47.272 39.206V55.7841H2.21591V30.2467L15.7077 39.2964C16.7122 39.9738 18.066 39.2557 18.066 38.0426V30.244L31.5604 39.2971C31.5614 39.2978 31.5625 39.2986 31.5635 39.2993C32.5681 39.9769 33.922 39.2587 33.922 38.0455V30.249Z" fill="#1C211D"/>
<path fill-rule="evenodd" clip-rule="evenodd" d="M6.41248 20.2297V30.547C6.41248 31.2374 5.85283 31.797 5.16248 31.797C4.47212 31.797 3.91248 31.2374 3.91248 30.547V19.2413C3.91248 18.3961 4.60027 17.7297 5.42402 17.7297H11.9685C12.8137 17.7297 13.4801 18.4175 13.4801 19.2413V35.2667C13.4801 35.9571 12.9204 36.5167 12.2301 36.5167C11.5397 36.5167 10.9801 35.9571 10.9801 35.2667V20.2297H6.41248Z" fill="#1C211D"/>
<path d="M4.74641 10.4586C5.56713 10.4586 6.23245 9.79332 6.23245 8.97261C6.23245 8.15189 5.56713 7.48657 4.74641 7.48657C3.9257 7.48657 3.26038 8.15189 3.26038 8.97261C3.26038 9.79332 3.9257 10.4586 4.74641 10.4586Z" fill="#1C211D"/>
<path d="M35.3528 8.82705C36.1735 8.82705 36.8388 8.16173 36.8388 7.34102C36.8388 6.5203 36.1735 5.85498 35.3528 5.85498C34.5321 5.85498 33.8668 6.5203 33.8668 7.34102C33.8668 8.16173 34.5321 8.82705 35.3528 8.82705Z" fill="#1C211D"/>
<path d="M46.3703 13.0385C47.191 13.0385 47.8563 12.3732 47.8563 11.5524C47.8563 10.7317 47.191 10.0664 46.3703 10.0664C45.5496 10.0664 44.8842 10.7317 44.8842 11.5524C44.8842 12.3732 45.5496 13.0385 46.3703 13.0385Z" fill="#1C211D"/>
<path d="M42.8335 23.6576C43.6542 23.6576 44.3195 22.9923 44.3195 22.1716C44.3195 21.3509 43.6542 20.6855 42.8335 20.6855C42.0128 20.6855 41.3475 21.3509 41.3475 22.1716C41.3475 22.9923 42.0128 23.6576 42.8335 23.6576Z" fill="#1C211D"/>
<path d="M22.9325 22.891C23.7532 22.891 24.4185 22.2257 24.4185 21.405C24.4185 20.5843 23.7532 19.9189 22.9325 19.9189C22.1118 19.9189 21.4465 20.5843 21.4465 21.405C21.4465 22.2257 22.1118 22.891 22.9325 22.891Z" fill="#1C211D"/>
<path d="M11.2077 2.97207C12.0284 2.97207 12.6937 2.30675 12.6937 1.48604C12.6937 0.665321 12.0284 0 11.2077 0C10.387 0 9.72165 0.665321 9.72165 1.48604C9.72165 2.30675 10.387 2.97207 11.2077 2.97207Z" fill="#1C211D"/>
<path d="M28.2929 2.49615C28.8498 1.89328 28.8126 0.953114 28.2097 0.396223C27.6068 -0.160669 26.6667 -0.123401 26.1098 0.479463C25.5529 1.08233 25.5902 2.02249 26.193 2.57939C26.7959 3.13628 27.7361 3.09901 28.2929 2.49615Z" fill="#1C211D"/>
<path d="M18.1802 3.89036C19.0005 3.85767 19.69 4.49666 19.7227 5.31696C19.7554 6.13725 19.1164 6.82677 18.2961 6.85946C17.4758 6.89215 16.7863 6.25316 16.7536 5.43287C16.7209 4.61257 17.3599 3.92305 18.1802 3.89036Z" fill="#1C211D"/>
<path d="M14.3936 13.858C14.9505 13.2551 14.9132 12.3149 14.3104 11.758C13.7075 11.2011 12.7673 11.2384 12.2104 11.8413C11.6535 12.4441 11.6908 13.3843 12.2937 13.9412C12.8965 14.4981 13.8367 14.4608 14.3936 13.858Z" fill="#1C211D"/>
<path d="M27.1015 13.8572C27.6584 13.2544 27.6211 12.3142 27.0183 11.7573C26.4154 11.2004 25.4752 11.2377 24.9183 11.8405C24.3615 12.4434 24.3987 13.3836 25.0016 13.9405C25.6044 14.4974 26.5446 14.4601 27.1015 13.8572Z" fill="#1C211D"/>
<path d="M36.4454 17.9837C37.0023 17.3808 36.9651 16.4407 36.3622 15.8838C35.7593 15.3269 34.8192 15.3641 34.2623 15.967C33.7054 16.5699 33.7427 17.51 34.3455 18.0669C34.9484 18.6238 35.8886 18.5866 36.4454 17.9837Z" fill="#1C211D"/>
<path d="M42.8394 1.06102C43.6597 1.02832 44.3493 1.66732 44.382 2.48761C44.4146 3.3079 43.7757 3.99742 42.9554 4.03012C42.1351 4.06281 41.4455 3.42381 41.4129 2.60352C41.3802 1.78323 42.0192 1.09371 42.8394 1.06102Z" fill="#1C211D"/>
</g>
<defs>
<clipPath id="clip0_170_5404">
<rect width="49.491" height="58" fill="white"/>
</clipPath>
</defs>
</svg>
