<svg width="28" height="26" viewBox="0 0 28 26" fill="none" xmlns="http://www.w3.org/2000/svg">
<path d="M3 1V16C3 16.7956 3.31607 17.5587 3.87868 18.1213C4.44129 18.6839 5.20435 19 6 19H9M3 1H1M3 1H25M9 19H19M9 19L7.66667 23M25 1H27M25 1V16C25 16.7956 24.6839 17.5587 24.1213 18.1213C23.5587 18.6839 22.7957 19 22 19H19M19 19L20.3333 23M7.66667 23H20.3333M7.66667 23L7 25M20.3333 23L21 25M8 13L12 9L14.864 11.864C16.2096 9.93239 17.9629 8.31977 20 7.14" stroke="#00BA00" stroke-width="1.5" stroke-linecap="round" stroke-linejoin="round"/>
</svg>
