<svg width="48" height="48" viewBox="0 0 48 48" fill="none" xmlns="http://www.w3.org/2000/svg">
<path d="M10.5 28.5H37.5M10.5 28.5C8.9087 28.5 7.38258 27.8679 6.25736 26.7426C5.13214 25.6174 4.5 24.0913 4.5 22.5M10.5 28.5C8.9087 28.5 7.38258 29.1321 6.25736 30.2574C5.13214 31.3826 4.5 32.9087 4.5 34.5C4.5 36.0913 5.13214 37.6174 6.25736 38.7426C7.38258 39.8679 8.9087 40.5 10.5 40.5H37.5C39.0913 40.5 40.6174 39.8679 41.7426 38.7426C42.8679 37.6174 43.5 36.0913 43.5 34.5C43.5 32.9087 42.8679 31.3826 41.7426 30.2574C40.6174 29.1321 39.0913 28.5 37.5 28.5M37.5 28.5C39.0913 28.5 40.6174 27.8679 41.7426 26.7426C42.8679 25.6174 43.5 24.0913 43.5 22.5M4.5 22.5C4.5 20.9087 5.13214 19.3826 6.25736 18.2574C7.38258 17.1321 8.9087 16.5 10.5 16.5H37.5C39.0913 16.5 40.6174 17.1321 41.7426 18.2574C42.8679 19.3826 43.5 20.9087 43.5 22.5M4.5 22.5C4.5 20.5527 5.1316 18.6579 6.3 17.1L11.474 10.2C12.1027 9.36168 12.918 8.68125 13.8553 8.21262C14.7926 7.74398 15.8261 7.5 16.874 7.5H31.126C33.25 7.5 35.25 8.5 36.526 10.2L41.7 17.1C42.8684 18.6579 43.5 20.5527 43.5 22.5M37.5 34.5H37.516V34.516H37.5V34.5ZM37.5 22.5H37.516V22.516H37.5V22.5ZM31.5 34.5H31.516V34.516H31.5V34.5ZM31.5 22.5H31.516V22.516H31.5V22.5Z" stroke="black" stroke-width="1.5" stroke-linecap="round" stroke-linejoin="round"/>
</svg>
