<svg width="32" height="32" viewBox="0 0 32 32" fill="none" xmlns="http://www.w3.org/2000/svg">
<g id="globe-europe-africa/mini">
<path id="Vector" fill-rule="evenodd" clip-rule="evenodd" d="M28.7992 16C28.7992 19.3947 27.4507 22.6505 25.0502 25.0509C22.6497 27.4514 19.394 28.7999 15.9992 28.7999C12.6044 28.7999 9.34872 27.4514 6.94825 25.0509C4.54779 22.6505 3.19922 19.3947 3.19922 16C3.19922 12.6052 4.54779 9.34945 6.94825 6.94898C9.34872 4.54852 12.6044 3.19995 15.9992 3.19995C19.394 3.19995 22.6497 4.54852 25.0502 6.94898C27.4507 9.34945 28.7992 12.6052 28.7992 16ZM26.3944 16.3264C26.3342 18.2264 25.7544 20.0737 24.7179 21.6673C23.6814 23.2609 22.228 24.54 20.5155 25.3654C18.8031 26.1909 16.8971 26.5312 15.0048 26.3493C13.1125 26.1675 11.3062 25.4705 9.78229 24.334C8.25837 23.1975 7.0751 21.6651 6.36108 19.9032C5.64706 18.1414 5.42961 16.2175 5.73237 14.3408C6.03512 12.464 6.84649 10.7061 8.0783 9.25816C9.31011 7.8102 10.9152 6.72758 12.7192 6.12795L11.0824 8.99195C10.8357 9.42496 10.7347 9.92578 10.7943 10.4206C10.8538 10.9153 11.0708 11.3779 11.4132 11.74C11.7556 12.1021 12.2052 12.3446 12.6959 12.4317C13.1866 12.5189 13.6923 12.446 14.1384 12.224L14.4184 12.0848C14.5297 12.029 14.6524 12 14.7768 12H15.0104C15.1468 12 15.281 12.0348 15.4001 12.1013C15.5193 12.1678 15.6194 12.2636 15.6911 12.3797C15.7628 12.4958 15.8036 12.6282 15.8096 12.7645C15.8156 12.9008 15.7867 13.0364 15.7256 13.1584L15.6808 13.2464C15.6277 13.3524 15.5462 13.4417 15.4453 13.5041C15.3445 13.5666 15.2282 13.5997 15.1096 13.6H14.3064C13.7113 13.6 13.1254 13.7469 12.6007 14.0277C12.0759 14.3085 11.6286 14.7144 11.2984 15.2095L11.228 15.3151C10.9415 15.7451 10.758 16.2353 10.6919 16.7477C10.6258 17.2601 10.6788 17.7809 10.8467 18.2694C11.0147 18.758 11.2931 19.2013 11.6604 19.5647C12.0276 19.9281 12.4737 20.2019 12.964 20.3647C13.1481 20.4259 13.3083 20.5433 13.4223 20.7003C13.5362 20.8572 13.5981 21.046 13.5992 21.24V22.92C13.599 23.3097 13.72 23.6899 13.9453 24.0079C14.1707 24.3259 14.4893 24.566 14.8571 24.695C15.2249 24.8239 15.6236 24.8354 15.9982 24.7278C16.3728 24.6202 16.7047 24.3989 16.948 24.0944L19.5256 20.872C19.8328 20.4879 19.9992 20.0144 19.9992 19.5247C19.9992 19.0192 20.204 18.5264 20.564 18.1648C20.9196 17.8092 21.1415 17.3416 21.1919 16.8413C21.2423 16.3409 21.1183 15.8385 20.8408 15.4192L20.0984 14.3056C20.0233 14.1898 19.9911 14.0514 20.0074 13.9143C20.0237 13.7773 20.0875 13.6503 20.1877 13.5554C20.2879 13.4605 20.4182 13.4037 20.5559 13.3949C20.6937 13.3861 20.8301 13.4258 20.9416 13.5072L21.4904 13.9184C21.996 14.2976 22.6712 14.3584 23.236 14.0752C23.4122 13.987 23.6116 13.9565 23.8061 13.9881C24.0005 14.0197 24.18 14.1117 24.3192 14.2512L26.3944 16.3264Z" fill="white"/>
</g>
</svg>
