<svg width="32" height="32" viewBox="0 0 32 32" fill="none" xmlns="http://www.w3.org/2000/svg">
<path d="M16 0.166748C7.25996 0.166748 0.166626 7.26008 0.166626 16.0001C0.166626 24.7401 7.25996 31.8334 16 31.8334C24.74 31.8334 31.8333 24.7401 31.8333 16.0001C31.8333 7.26008 24.74 0.166748 16 0.166748ZM16 28.6667C9.01746 28.6667 3.33329 22.9826 3.33329 16.0001C3.33329 9.01758 9.01746 3.33341 16 3.33341C22.9825 3.33341 28.6666 9.01758 28.6666 16.0001C28.6666 22.9826 22.9825 28.6667 16 28.6667ZM22.1433 10.1259L12.8333 19.4359L9.85663 16.4592C9.23913 15.8417 8.24163 15.8417 7.62413 16.4592C7.00663 17.0767 7.00663 18.0742 7.62413 18.6917L11.725 22.7926C12.3425 23.4101 13.34 23.4101 13.9575 22.7926L24.3916 12.3584C25.0091 11.7409 25.0091 10.7434 24.3916 10.1259C23.7741 9.50841 22.7608 9.50841 22.1433 10.1259Z" fill="#00BA00"/>
</svg>
