<svg width="32" height="32" viewBox="0 0 34 34" fill="none" xmlns="http://www.w3.org/2000/svg">
<path d="M12.7919 5.25333C12.9119 4.53067 13.5386 4 14.2719 4H17.7293C18.4626 4 19.0893 4.53067 19.2093 5.25333L19.4933 6.96133C19.5773 7.46 19.9106 7.876 20.3533 8.12133C20.452 8.17467 20.5493 8.232 20.6466 8.29067C21.0786 8.552 21.6066 8.63333 22.0799 8.456L23.7026 7.848C24.0351 7.72294 24.4013 7.71997 24.7358 7.83962C25.0703 7.95926 25.3515 8.19375 25.5293 8.50133L27.2573 11.4973C27.4347 11.8049 27.4972 12.1655 27.4337 12.5149C27.3703 12.8643 27.1849 13.1798 26.9106 13.4053L25.5733 14.508C25.1826 14.828 24.9893 15.3253 24.9986 15.8307C25.0008 15.944 25.0008 16.0573 24.9986 16.1707C24.9893 16.6747 25.1826 17.1707 25.572 17.4907L26.9119 18.5947C27.4773 19.0613 27.624 19.8667 27.2586 20.5013L25.5279 23.4973C25.3504 23.8048 25.0695 24.0394 24.7353 24.1593C24.4011 24.2792 24.0351 24.2766 23.7026 24.152L22.0799 23.544C21.6066 23.3667 21.0799 23.448 20.6453 23.7093C20.5486 23.7681 20.4508 23.825 20.3519 23.88C19.9106 24.124 19.5773 24.54 19.4933 25.0387L19.2093 26.7453C19.0893 27.4693 18.4626 28 17.7293 28H14.2706C13.5373 28 12.9106 27.4693 12.7906 26.7467L12.5066 25.0387C12.4239 24.54 12.0906 24.124 11.6479 23.8787C11.5491 23.8241 11.4513 23.7677 11.3546 23.7093C10.9213 23.448 10.3946 23.3667 9.91995 23.544L8.29728 24.152C7.96492 24.2767 7.5991 24.2795 7.26488 24.1599C6.93066 24.0402 6.6497 23.8059 6.47195 23.4987L4.74262 20.5027C4.56521 20.1951 4.50268 19.8345 4.56616 19.4851C4.62964 19.1357 4.81501 18.8202 5.08928 18.5947L6.42795 17.492C6.81728 17.172 7.01062 16.6747 7.00128 16.1693C6.9992 16.056 6.9992 15.9427 7.00128 15.8293C7.01062 15.3253 6.81728 14.8293 6.42795 14.5093L5.08928 13.4053C4.81533 13.1799 4.63018 12.8646 4.56671 12.5155C4.50324 12.1664 4.56557 11.8061 4.74262 11.4987L6.47195 8.50267C6.64953 8.19485 6.93063 7.96008 7.26517 7.84018C7.5997 7.72029 7.96593 7.72306 8.29862 7.848L9.91995 8.456C10.3946 8.63333 10.9213 8.552 11.3546 8.29067C11.4506 8.232 11.5493 8.17467 11.6479 8.12C12.0906 7.876 12.4239 7.46 12.5066 6.96133L12.7919 5.25333Z" stroke="white" stroke-width="1.5" stroke-linecap="round" stroke-linejoin="round"/>
<path d="M20 16C20 17.0609 19.5786 18.0783 18.8284 18.8284C18.0783 19.5786 17.0609 20 16 20C14.9391 20 13.9217 19.5786 13.1716 18.8284C12.4214 18.0783 12 17.0609 12 16C12 14.9391 12.4214 13.9217 13.1716 13.1716C13.9217 12.4214 14.9391 12 16 12C17.0609 12 18.0783 12.4214 18.8284 13.1716C19.5786 13.9217 20 14.9391 20 16Z" stroke="white" stroke-width="1.5" stroke-linecap="round" stroke-linejoin="round"/>
</svg>
