<svg width="32" height="32" viewBox="0 0 32 32" fill="none" xmlns="http://www.w3.org/2000/svg">
<g id="key/mini">
<path id="Vector" d="M10.5992 26.5999V27.1999C10.5992 27.8895 10.3253 28.5508 9.8377 29.0384L9.13059 28.3313L9.8377 29.0384C9.3501 29.526 8.68878 29.7999 7.99922 29.7999H4.79922C4.10966 29.7999 3.44834 29.526 2.96074 29.0384L3.65461 28.3445L2.96074 29.0384C2.47315 28.5508 2.19922 27.8895 2.19922 27.1999V23.9999V23.9997C2.19937 23.3102 2.47335 22.6491 2.96091 22.1616C2.96095 22.1616 2.96098 22.1615 2.96102 22.1615L12.0047 13.1179C11.8678 12.4881 11.7988 11.8449 11.7992 11.1992M10.5992 26.5999L12.7992 11.1999M10.5992 26.5999H11.1992C11.8888 26.5999 12.5501 26.326 13.0377 25.8384C13.5253 25.3508 13.7992 24.6895 13.7992 23.9999V23.3999H14.3992H14.3994C15.0889 23.3998 15.7501 23.1258 16.2375 22.6382L15.5304 21.9311L16.2376 22.6381M10.5992 26.5999L16.2376 22.6381M11.7992 11.1992L12.7992 11.1999M11.7992 11.1992C11.7992 11.1994 11.7992 11.1995 11.7992 11.1997L12.7992 11.1999M11.7992 11.1992C11.7997 9.31132 12.3939 7.47139 13.4977 5.93977C14.6015 4.40802 16.1592 3.26222 17.9501 2.66453C19.7411 2.06683 21.6747 2.04751 23.4772 2.60931C25.2797 3.17111 26.8599 4.28556 27.9942 5.79495C29.1284 7.30434 29.7592 9.13222 29.7974 11.0199C29.8355 12.9076 29.279 14.7594 28.2067 16.3134C27.1343 17.8674 25.6004 19.0447 23.822 19.6789C22.2332 20.2454 20.5211 20.3527 18.8809 19.9948M12.7992 11.1999C12.7996 9.52164 13.3277 7.88598 14.309 6.52442C15.2902 5.16287 16.6747 4.14438 18.2667 3.6131C19.8587 3.08181 21.5774 3.06464 23.1796 3.56402C24.7819 4.06339 26.1865 5.05402 27.1947 6.3957C28.203 7.73738 28.7637 9.36216 28.7976 11.0401C28.8315 12.718 28.3368 14.3641 27.3836 15.7454C26.4304 17.1267 25.0669 18.1733 23.4861 18.7369C21.9054 19.3006 20.1873 19.3529 18.5752 18.8863M18.8809 19.9948L19.2823 19.5934L18.5752 18.8863M18.8809 19.9948L16.2376 22.6381M18.8809 19.9948C18.6852 19.9522 18.4905 19.9028 18.2972 19.8469L18.5752 18.8863M18.5752 18.8863L16.2376 22.6381M20.6578 7.45849C20.6953 7.42098 20.7462 7.39991 20.7992 7.39991C21.807 7.39991 22.7736 7.80026 23.4862 8.5129C24.1989 9.22554 24.5992 10.1921 24.5992 11.1999C24.5992 11.253 24.5781 11.3038 24.5406 11.3413C24.5031 11.3788 24.4523 11.3999 24.3992 11.3999C24.3462 11.3999 24.2953 11.3788 24.2578 11.3413C24.2203 11.3038 24.1992 11.253 24.1992 11.1999C24.1992 10.2982 23.841 9.43337 23.2034 8.79575L22.4963 9.50285L23.2034 8.79574C22.5658 8.15812 21.701 7.79991 20.7992 7.79991C20.7462 7.79991 20.6953 7.77884 20.6578 7.74133C20.6203 7.70382 20.5992 7.65295 20.5992 7.59991C20.5992 7.54687 20.6203 7.49599 20.6578 7.45849Z" stroke="white" stroke-width="2"/>
</g>
</svg>
