<svg width="58" height="58" viewBox="0 0 58 58" fill="none" xmlns="http://www.w3.org/2000/svg">
<g clip-path="url(#clip0_170_4318)">
<path fill-rule="evenodd" clip-rule="evenodd" d="M29 21.25C24.7198 21.25 21.25 24.7198 21.25 29C21.25 33.2802 24.7198 36.75 29 36.75C33.2802 36.75 36.75 33.2802 36.75 29C36.75 24.7198 33.2802 21.25 29 21.25ZM18.75 29C18.75 23.3391 23.3391 18.75 29 18.75C34.6609 18.75 39.25 23.3391 39.25 29C39.25 34.6609 34.6609 39.25 29 39.25C23.3391 39.25 18.75 34.6609 18.75 29Z" fill="#1C211D"/>
<path fill-rule="evenodd" clip-rule="evenodd" d="M48 6.25C45.9289 6.25 44.25 7.92893 44.25 10C44.25 12.0711 45.9289 13.75 48 13.75C50.0711 13.75 51.75 12.0711 51.75 10C51.75 7.92893 50.0711 6.25 48 6.25ZM41.75 10C41.75 6.54822 44.5482 3.75 48 3.75C51.4518 3.75 54.25 6.54822 54.25 10C54.25 13.4518 51.4518 16.25 48 16.25C44.5482 16.25 41.75 13.4518 41.75 10Z" fill="#1C211D"/>
<path fill-rule="evenodd" clip-rule="evenodd" d="M29 3.25C14.7804 3.25 3.25 14.7804 3.25 29C3.25 43.2196 14.7804 54.75 29 54.75C43.2196 54.75 54.75 43.2196 54.75 29C54.75 23.6007 53.0911 18.6053 50.2584 14.4659C49.8685 13.8962 50.0143 13.1183 50.5841 12.7284C51.1538 12.3385 51.9317 12.4843 52.3216 13.0541C55.4289 17.5947 57.25 23.0793 57.25 29C57.25 44.6004 44.6004 57.25 29 57.25C13.3996 57.25 0.75 44.6004 0.75 29C0.75 13.3996 13.3996 0.75 29 0.75C34.9207 0.75 40.4053 2.57114 44.9459 5.67842C45.5157 6.0683 45.6615 6.84622 45.2716 7.41594C44.8817 7.98566 44.1038 8.13146 43.5341 7.74158C39.3947 4.90886 34.3993 3.25 29 3.25Z" fill="#1C211D"/>
</g>
<defs>
<clipPath id="clip0_170_4318">
<rect width="58" height="58" fill="white"/>
</clipPath>
</defs>
</svg>
