<svg width="25" height="24" viewBox="0 0 25 24" fill="none" xmlns="http://www.w3.org/2000/svg">
<g id="globe-alt/outline">
<path id="Vector" d="M12.5 21C14.495 20.9999 16.4335 20.3372 18.011 19.116C19.5886 17.8948 20.7159 16.1843 21.216 14.253M12.5 21C10.505 20.9999 8.56654 20.3372 6.98898 19.116C5.41141 17.8948 4.28408 16.1843 3.784 14.253M12.5 21C14.985 21 17 16.97 17 12C17 7.03 14.985 3 12.5 3M12.5 21C10.015 21 8 16.97 8 12C8 7.03 10.015 3 12.5 3M21.216 14.253C21.401 13.533 21.5 12.778 21.5 12C21.5025 10.4521 21.1039 8.92999 20.343 7.582M21.216 14.253C18.5492 15.7314 15.5492 16.5048 12.5 16.5C9.338 16.5 6.367 15.685 3.784 14.253M3.784 14.253C3.59475 13.517 3.49933 12.76 3.5 12C3.5 10.395 3.92 8.887 4.657 7.582M12.5 3C14.0962 2.99933 15.6639 3.42336 17.0422 4.22856C18.4205 5.03377 19.5597 6.19117 20.343 7.582M12.5 3C10.9038 2.99933 9.33608 3.42336 7.95781 4.22856C6.57954 5.03377 5.44031 6.19117 4.657 7.582M20.343 7.582C18.1657 9.46793 15.3805 10.5041 12.5 10.5C9.502 10.5 6.76 9.4 4.657 7.582" stroke="white" stroke-width="1.5" stroke-linecap="round" stroke-linejoin="round"/>
</g>
</svg>
