<svg width="119" height="120" viewBox="0 0 119 120" fill="none" xmlns="http://www.w3.org/2000/svg">
<path d="M40.2725 101.304C40.3367 101.239 40.3891 101.165 40.4343 101.086C40.3915 101.167 40.3367 101.242 40.2725 101.304Z" fill="#1C211D"/>
<path d="M33.0845 90.3025C32.8156 90.3025 32.5443 90.2065 32.3253 90.0121C31.8541 89.5897 31.8112 88.8625 32.2301 88.3873L33.2559 87.2233C33.4558 86.9953 33.4558 86.6521 33.2559 86.4241C32.787 85.8937 32.53 85.2073 32.53 84.4945C32.53 83.7817 32.7894 83.0977 33.2583 82.5649C33.4582 82.3369 33.4582 81.9937 33.2583 81.7657L32.5728 80.9881H30.3142C30.7593 82.0033 30.5998 83.2249 29.8335 84.0937C29.7359 84.2041 29.6835 84.3457 29.6835 84.4921C29.6835 84.6385 29.7383 84.7801 29.8335 84.8905C30.8021 85.9897 30.8021 87.6481 29.8335 88.7473L28.8077 89.9113C28.3888 90.3865 27.6677 90.4297 27.1964 90.0073C26.7252 89.5849 26.6823 88.8577 27.1012 88.3825L28.127 87.2185C28.3269 86.9905 28.3269 86.6473 28.127 86.4193C27.6581 85.8865 27.4011 85.2025 27.4011 84.4897C27.4011 83.7769 27.6605 83.0929 28.1294 82.5601C28.3293 82.3321 28.3293 81.9889 28.1294 81.7609L27.4439 80.9833H25.1853C25.6304 81.9985 25.4709 83.2201 24.7046 84.0889C24.607 84.1993 24.5546 84.3409 24.5546 84.4873C24.5546 84.6337 24.607 84.7753 24.7046 84.8857C25.6732 85.9849 25.6732 87.6433 24.7046 88.7425L23.6788 89.9065C23.2599 90.3817 22.5388 90.4249 22.0675 90.0025C21.5963 89.5801 21.5534 88.8529 21.9723 88.3777L22.9981 87.2137C23.198 86.9857 23.198 86.6425 22.9981 86.4145C22.5292 85.8841 22.2722 85.1977 22.2722 84.4849C22.2722 83.7721 22.5316 83.0881 23.0005 82.5553C23.2004 82.3273 23.2004 81.9841 23.0005 81.7561L22.315 80.9785H21.6177C19.966 80.9785 18.6427 79.7425 18.6094 78.1657V77.9401C18.6094 72.0625 23.2623 67.2913 28.9838 67.2913C34.7053 67.2913 39.3606 72.0625 39.3606 77.9281V78.1513C39.3249 79.7401 38.004 80.9761 36.3499 80.9761H35.4479C35.8929 81.9913 35.7335 83.2129 34.9671 84.0817C34.8695 84.1921 34.8172 84.3337 34.8172 84.4801C34.8172 84.6265 34.8695 84.7681 34.9671 84.8785C35.9358 85.9777 35.9358 87.6361 34.9671 88.7353L33.9413 89.8993C33.7152 90.1561 33.4035 90.2857 33.0869 90.2857L33.0845 90.3025ZM33.0917 78.6865H36.3499C36.6998 78.6865 37.0663 78.4777 37.0758 78.1273V77.9281C37.0758 73.3441 33.4463 69.6049 28.9838 69.6049C24.5213 69.6049 20.8894 73.3441 20.8894 77.9401V78.1393C20.8989 78.4753 21.2655 78.6841 21.6153 78.6841H33.0917V78.6865Z" fill="#1C211D"/>
<path d="M77.8309 31.5384V31.6008C77.8666 31.5552 77.8999 31.5072 77.938 31.4592C77.8999 31.488 77.8666 31.5144 77.8309 31.5408V31.5384ZM74.2609 31.4616C74.2966 31.5072 74.3299 31.5528 74.3632 31.5984V31.536C74.3299 31.512 74.2966 31.4856 74.2609 31.4592V31.4616ZM66.395 94.788C66.3522 94.8048 66.3069 94.824 66.2617 94.848C66.4331 94.8144 66.5925 94.7496 66.7353 94.6584C66.6235 94.6992 66.5069 94.7448 66.395 94.7904V94.788Z" fill="#1C211D"/>
<path d="M90.2803 92.6664C88.1169 90.888 85.4227 89.9616 81.798 89.7528C78.1542 89.5416 74.301 90.036 69.6814 91.3104C69.1078 91.4448 68.5509 91.5936 68.0273 91.7472C69.5529 86.8944 70.1145 82.1448 69.7004 77.7168C72.3065 80.1456 75.51 81.7536 78.4898 81.0048C83.3854 79.7784 86.5104 75.0504 85.7559 70.0032C85.3799 67.5072 84.0161 65.5224 81.9146 64.416C79.5893 63.192 76.65 63.2328 74.0511 64.5264C73.756 64.6728 73.4656 64.8192 73.1752 64.9656C71.3474 65.8824 69.6005 66.756 67.6203 67.4832C67.3514 64.764 67.0039 61.716 66.5231 58.7664C69.2125 61.32 71.7068 62.5872 74.0844 62.6184C77.2236 62.6616 79.8678 61.6896 81.529 59.8872C82.8523 58.4496 83.4568 56.568 83.2736 54.444C82.9094 50.184 79.7274 47.4504 74.7603 47.1264C71.8543 46.9392 68.9555 47.9448 66.397 48.8328C65.9781 48.9792 65.5664 49.1208 65.1713 49.2528C65.0094 46.584 64.9023 42.9624 65.1713 39.6024C66.4946 41.7216 68.044 43.9224 70.4049 44.9592C74.2201 46.6344 79.0872 46.068 81.3458 41.028C82.2978 38.904 82.3144 36.372 81.3934 34.2528C80.5033 32.208 78.8325 30.7296 76.5596 29.9736C74.4295 29.2632 72.5279 29.1456 70.7952 29.3424C72.1376 28.0008 73.2681 26.4264 73.7655 24.4248C74.4604 21.6456 74.1677 19.1184 72.9206 17.1192C71.8258 15.3624 70.0336 14.1504 67.8702 13.7016C62.5081 12.5952 58.324 16.0032 57.3792 19.9416C56.8794 22.0152 56.7747 24.8424 57.3292 27.588C54.6588 26.04 51.898 25.5048 49.9441 25.7544C47.7497 26.0328 45.8695 27.2136 44.6462 29.0784C43.2943 31.14 42.8945 33.8136 43.5752 36.2352C44.2939 38.7792 45.8243 40.7808 47.883 41.868C49.7775 42.8664 51.9837 43.0152 54.0972 42.288C55.9607 41.6424 57.1745 40.5816 58.2074 39.4416C57.9361 42.0216 57.8885 44.5512 58.0622 47.1192C55.2538 44.9736 51.591 43.7112 48.4042 44.832C42.6446 46.8576 40.9667 52.3248 42.3114 56.4384C43.123 58.9272 45.0079 60.8232 47.4855 61.644C49.9155 62.4504 52.4835 62.0736 54.5327 60.6096C55.9512 59.5968 56.8532 58.368 57.6457 57.2856C58.0575 56.724 58.4407 56.2008 58.8667 55.74C59.4641 58.7784 59.752 61.824 60.0233 64.9992C57.2102 63.1656 53.6569 62.46 50.6676 63.3168C44.9651 64.9488 43.5752 69.8952 44.7271 74.0712C45.3983 76.5144 46.8834 78.3696 48.8969 79.296C50.8627 80.1984 53.2047 80.136 55.3205 79.1184C56.8151 78.4008 58.0051 77.1912 59.1547 76.0248C60.021 75.1464 60.8516 74.2992 61.7536 73.7112C62.8603 78.96 61.8274 82.3848 60.4446 86.9712C60.0138 88.4088 59.5664 89.8896 59.1332 91.5816C56.3843 90.7128 53.4998 90.1176 50.5438 89.808C47.1476 89.4528 44.3487 89.64 41.7402 90.3936C36.3019 91.9608 33.2031 96.7176 34.0314 102.228C34.5812 105.898 36.9873 108 40.6264 108H87.2767C90.297 108 92.3438 106.534 93.36 103.642C94.6547 99.9744 93.3005 95.1552 90.2803 92.6664ZM77.8305 31.5384C77.8662 31.512 77.8995 31.4856 77.9376 31.4568C77.8995 31.5048 77.8662 31.5528 77.8305 31.5984V31.536V31.5384ZM74.3629 31.536V31.5984C74.3295 31.5528 74.2962 31.5072 74.2605 31.4616C74.2962 31.488 74.3295 31.5144 74.3629 31.5384V31.536ZM62.9341 87.732C64.512 82.4976 65.7568 78.3624 63.8956 71.4912C63.8028 71.148 63.5743 70.8576 63.2649 70.6872C62.9555 70.5144 62.5914 70.4784 62.2534 70.584C60.2019 71.2344 58.7334 72.7272 57.3078 74.1744C56.2701 75.228 55.2895 76.224 54.2043 76.7472C52.7596 77.4384 51.2602 77.496 49.9774 76.9056C48.6541 76.2984 47.7045 75.0744 47.2356 73.3632C45.7338 67.9128 50.0274 66.2256 51.3816 65.8368C54.4589 64.956 58.3383 66.264 60.6112 68.9448C60.9801 69.3792 61.5846 69.5232 62.1082 69.3C62.6318 69.0792 62.9484 68.5416 62.8984 67.9704C62.8246 67.1688 62.7556 66.3648 62.6889 65.5632C62.3391 61.4832 61.9797 57.264 60.9563 53.1048C60.8587 52.7088 60.585 52.38 60.2138 52.2192C59.8449 52.056 59.4236 52.0728 59.0666 52.2672C57.422 53.1744 56.4748 54.4656 55.5585 55.7184C54.8135 56.7336 54.1091 57.6936 53.0309 58.464C51.6624 59.4408 49.9393 59.688 48.3019 59.1456C46.6192 58.5864 45.3388 57.2976 44.7842 55.6104C43.8037 52.608 45.0294 48.7896 49.2634 47.2992C52.0456 46.32 56.1987 48.12 58.7191 51.3936C59.0833 51.8664 59.714 52.0296 60.259 51.7968C60.804 51.564 61.1229 50.9904 61.0349 50.4C60.3018 45.372 60.4279 40.6512 61.4323 35.544C61.5418 34.9872 61.2824 34.4232 60.7897 34.1448C60.2971 33.8664 59.6854 33.9408 59.2713 34.3272C58.4621 35.0784 57.8242 35.8464 57.2102 36.588C56.0059 38.0328 55.0563 39.1752 53.257 39.7944C51.8266 40.2888 50.3463 40.1976 49.0944 39.5352C47.6712 38.7864 46.6025 37.356 46.0837 35.5104C45.6077 33.816 45.8814 31.9512 46.8215 30.516C47.3856 29.6568 48.4423 28.584 50.2701 28.3512C53.0095 28.0032 56.7532 29.7144 59.2165 32.4312C59.2665 32.5224 59.3451 32.64 59.4593 32.7528C59.9115 33.1992 60.6279 33.2544 61.1396 32.8752C61.6632 32.4912 61.8345 31.7784 61.5323 31.1664C61.4585 31.0176 61.3752 30.912 61.2919 30.8256C59.4783 27.8568 59.2189 23.4312 59.9115 20.556C60.7469 17.0808 64.3502 15.648 67.3514 16.2696C68.8341 16.5768 69.9979 17.352 70.7238 18.5112C71.5854 19.8936 71.7663 21.7152 71.2498 23.784C70.5882 26.4288 68.2272 28.2576 65.9424 30.024C65.3974 30.444 64.8833 30.8448 64.3906 31.2528C64.2645 31.3152 64.0979 31.416 63.9408 31.5984C63.5172 32.0832 63.5886 32.6112 63.6386 32.8152C63.7433 33.24 64.0503 33.5856 64.4621 33.7392C64.8167 33.8736 65.3236 33.8736 65.7615 33.528L65.7972 33.5136C68.8793 32.2968 71.7924 31.1472 75.748 32.4648C77.3212 32.9904 78.4184 33.9456 79.0134 35.3088C79.6345 36.7344 79.6203 38.5128 78.9777 39.948C77.3474 43.5888 74.0178 43.68 71.445 42.552C69.5267 41.7096 68.1844 39.5232 66.8849 37.4088C66.4113 36.6384 65.9234 35.844 65.4117 35.1144C65.107 34.6848 64.5834 34.4832 64.0765 34.5936C63.5672 34.704 63.1745 35.1096 63.0745 35.6232C62.0963 40.6968 62.4176 47.4864 62.6961 51.084C62.727 51.4704 62.9246 51.8232 63.2387 52.0488C63.5505 52.2744 63.948 52.3488 64.3216 52.2528C65.2451 52.0104 66.2185 51.6744 67.2538 51.3144C69.579 50.5056 72.2185 49.5936 74.6009 49.7472C78.2756 49.9848 80.4366 51.7344 80.6889 54.672C80.8079 56.0592 80.4509 57.2136 79.6298 58.104C78.5159 59.3136 76.5715 60 74.2772 60C74.2272 60 74.1748 60 74.1249 60C72.4493 59.9784 69.5695 58.8528 65.3617 53.6016C64.9809 53.124 64.3216 52.9776 63.7742 53.2488C63.2292 53.5176 62.9412 54.1344 63.084 54.732C64.1717 59.3256 64.781 64.9704 65.1903 69.3744C65.226 69.768 65.4379 70.1232 65.7615 70.3416C66.0876 70.5624 66.4922 70.6248 66.8659 70.5072C69.71 69.636 71.9591 68.5104 74.3391 67.3176C74.627 67.1736 74.915 67.0296 75.2078 66.8856C77.0665 65.9616 79.1252 65.9088 80.7174 66.7464C81.6718 67.2504 82.8737 68.292 83.1903 70.4016C83.7424 74.1 81.4576 77.568 77.871 78.468C74.8627 79.2216 70.8595 75.8784 68.6199 72.3504C68.2701 71.8008 67.5751 71.5944 66.9872 71.8632C66.3994 72.132 66.0947 72.7944 66.2732 73.4232C67.8821 79.0656 67.4728 85.5912 65.0951 92.3352C62.8698 92.4984 62.3486 92.0496 61.9202 91.6824C61.8893 91.656 61.8583 91.6272 61.825 91.6008C62.1939 90.2184 62.5723 88.9632 62.9389 87.7416L62.9341 87.732ZM68.9817 103.783C68.8056 105.226 68.0963 105.869 66.685 105.869H53.3903C52.1122 105.869 50.8342 105.859 49.5537 105.852C46.6811 105.833 43.7085 105.811 40.7882 105.905C37.4491 106.013 36.4828 103.697 36.2495 101.741C35.7021 97.092 38.2059 93.6312 42.9445 92.4816C44.4534 92.1168 46.0147 91.9344 47.7092 91.9344C48.9659 91.9344 50.2963 92.0352 51.7291 92.2344C56.263 92.8608 60.0471 93.9912 63.2982 95.6904C65.1832 96.6744 66.5446 97.7472 67.5846 99.0672C68.7294 100.524 69.1863 102.067 68.9793 103.783H68.9817ZM91.3822 102.485C90.8824 104.352 89.9709 105.396 88.512 105.77C88.2692 105.833 87.9907 105.864 87.6909 105.864C83.1379 105.869 78.5826 105.869 74.0297 105.869H70.6191C72.1257 101.882 70.5215 97.9104 66.1828 94.884C66.209 94.872 66.2352 94.8576 66.2613 94.848C66.3066 94.8264 66.3518 94.8072 66.3946 94.788C66.5065 94.7448 66.6231 94.6992 66.735 94.656C71.7472 92.7288 76.4596 91.8528 81.1101 91.98C83.4592 92.0424 85.4489 92.5008 87.1958 93.3744C90.5778 95.0688 92.339 98.9016 91.3822 102.482V102.485Z" fill="#1C211D"/>
<path d="M86.6173 100.32C86.5887 101.023 86.0413 101.556 85.3416 101.556H85.3106C84.5943 101.542 84.0587 100.98 84.0635 100.258C84.0683 99.5473 84.6228 98.9857 85.3249 98.9761H85.3392C85.6962 98.9761 86.027 99.1129 86.265 99.3649C86.503 99.6169 86.6268 99.9553 86.6149 100.32H86.6173Z" fill="#1C211D"/>
<path d="M56.9554 100.632C56.9506 101.33 56.3818 101.906 55.6845 101.916H55.6654C54.9705 101.916 54.404 101.369 54.3779 100.67C54.3517 99.9577 54.8919 99.3745 55.6059 99.3433C55.625 99.3433 55.6464 99.3433 55.6678 99.3433C56.0201 99.3433 56.3509 99.4777 56.5936 99.7249C56.8316 99.9649 56.9625 100.289 56.9578 100.634L56.9554 100.632Z" fill="#1C211D"/>
<path d="M47.06 101.047C46.8291 100.812 46.5102 100.661 46.1651 100.656H46.146C45.4701 100.656 44.8775 101.23 44.8513 101.909C44.8394 102.252 44.9727 102.593 45.2178 102.85C45.463 103.106 45.8033 103.255 46.146 103.255H46.177C46.8624 103.238 47.4408 102.643 47.4431 101.954C47.4431 101.606 47.2932 101.282 47.0623 101.047H47.06ZM46.1437 102.818C45.9985 102.818 45.8628 102.78 45.7414 102.71C45.87 102.78 46.0128 102.821 46.1651 102.816C46.1579 102.816 46.1532 102.816 46.146 102.816L46.1437 102.818ZM46.7553 102.552C46.8148 102.492 46.8624 102.425 46.9029 102.353C46.8648 102.427 46.8148 102.494 46.7553 102.552Z" fill="#1C211D"/>
<path d="M50.0991 95.1768C49.4042 95.1768 48.8282 95.7504 48.8139 96.4536C48.8044 96.7992 48.9448 97.1424 49.19 97.3968C49.4327 97.6488 49.7635 97.7928 50.1015 97.7928C50.1158 97.7928 50.1325 97.7928 50.1491 97.7928C50.8322 97.7664 51.401 97.1592 51.3891 96.4656C51.3796 95.7672 50.7917 95.1792 50.1039 95.1792L50.0991 95.1768ZM50.0968 97.3536C50.0587 97.3536 50.023 97.3488 49.9849 97.344C50.0301 97.3512 50.0777 97.3536 50.1253 97.3512C50.1134 97.3512 50.1039 97.3512 50.0944 97.3512L50.0968 97.3536ZM49.8469 97.3128C49.8921 97.3272 49.9373 97.3368 49.9825 97.344C49.9349 97.3368 49.8897 97.3272 49.8469 97.3128Z" fill="#1C211D"/>
<path d="M81.1526 96.6625C81.1407 97.3657 80.5671 97.9393 79.8745 97.9393C79.1819 97.9393 78.6131 97.3801 78.5988 96.6649C78.5869 95.9497 79.1224 95.3689 79.8245 95.3401H79.8745C80.2172 95.3401 80.5409 95.4745 80.7813 95.7217C81.0264 95.9737 81.1597 96.3049 81.1526 96.6649V96.6625Z" fill="#1C211D"/>
<path d="M77.3564 100.289H77.3398C76.6567 100.289 76.0879 100.86 76.0688 101.558C76.0593 101.921 76.1902 102.262 76.4401 102.518C76.6781 102.768 76.9994 102.905 77.3398 102.905C77.3517 102.905 77.3659 102.905 77.3802 102.905C78.0704 102.886 78.6273 102.293 78.6202 101.587C78.6154 100.891 78.0371 100.298 77.3564 100.291V100.289ZM77.1874 102.454C77.0161 102.42 76.8638 102.336 76.7471 102.211C76.8661 102.334 77.0185 102.42 77.1874 102.454ZM77.3374 102.468C77.2898 102.468 77.2446 102.461 77.2017 102.454C77.2541 102.463 77.3088 102.468 77.3636 102.466C77.354 102.466 77.3469 102.466 77.3374 102.466V102.468Z" fill="#1C211D"/>
<path d="M70.5767 23.3496V23.4168C70.541 23.3664 70.5029 23.316 70.4648 23.2656C70.5029 23.2944 70.541 23.3232 70.5767 23.3496Z" fill="#1C211D"/>
<path d="M74.5014 23.2632C74.4609 23.316 74.4228 23.3688 74.3848 23.4192V23.352C74.4228 23.3232 74.4609 23.2944 74.5014 23.2632Z" fill="#1C211D"/>
<path d="M74.5014 23.2632C74.4609 23.316 74.4228 23.3688 74.3848 23.4192V23.352C74.4228 23.3232 74.4609 23.2944 74.5014 23.2632Z" fill="#1C211D"/>
<path d="M70.5767 23.3496V23.4168C70.541 23.3664 70.5029 23.316 70.4648 23.2656C70.5029 23.2944 70.541 23.3232 70.5767 23.3496Z" fill="#1C211D"/>
</svg>
