<svg width="64" height="58" viewBox="0 0 64 58" fill="none" xmlns="http://www.w3.org/2000/svg">
<g clip-path="url(#clip0_170_5301)">
<path d="M54.3898 10.2918C54.3516 10.2385 54.3121 10.1858 54.264 10.1384C54.2159 10.091 54.1639 10.0508 54.1106 10.0133C48.5253 4.49457 40.854 1.0698 32.3925 1.0191C32.33 1.00922 32.2667 1 32.2015 1C32.1364 1 32.0731 1.00922 32.0106 1.0191C23.5399 1.06914 15.862 4.49984 10.2747 10.0278C10.2286 10.062 10.1812 10.0963 10.1397 10.1384C10.0976 10.1806 10.0634 10.2273 10.0291 10.2741C4.50379 15.8587 1.07375 23.5333 1.02041 31.9987C1.00922 32.0646 1 32.1311 1 32.2002C1 32.8574 1.53271 33.3901 2.18988 33.3901H9.8961C10.5533 33.3901 11.086 32.8574 11.086 32.2002C11.086 31.5431 10.5533 31.0103 9.8961 31.0103H3.42848C3.71558 23.9508 6.53586 17.5556 11.0122 12.6947L15.5874 17.2704C16.0523 17.7353 16.8056 17.7353 17.2705 17.2704C17.7353 16.8056 17.7353 16.0523 17.2705 15.5874L12.6953 11.0116C17.5562 6.5352 23.9514 3.71492 31.0117 3.42782V9.8961C31.0117 10.5533 31.5444 11.086 32.2015 11.086C32.8587 11.086 33.3914 10.5533 33.3914 9.8961V3.42717C40.451 3.71492 46.8462 6.5352 51.7071 11.0122L47.1326 15.5867C46.6678 16.0516 46.6678 16.8049 47.1326 17.2698C47.5975 17.7347 48.3508 17.7347 48.8157 17.2698L53.3902 12.6953C57.8659 17.5562 60.6855 23.9508 60.9726 31.0097H54.5044C53.8472 31.0097 53.3145 31.5424 53.3145 32.1996C53.3145 32.8567 53.8472 33.3894 54.5044 33.3894H62.2126C62.8697 33.3894 63.4024 32.8567 63.4024 32.1996C63.4024 32.1225 63.3939 32.0481 63.38 31.9757C63.3208 23.528 59.8993 15.8699 54.3898 10.2918Z" fill="#1C211D"/>
<path fill-rule="evenodd" clip-rule="evenodd" d="M15.5874 17.2705L11.0122 12.6947C10.967 12.7438 10.922 12.793 10.8771 12.8424C6.52114 17.6386 3.76565 23.9012 3.43729 30.8104C3.43413 30.877 3.43119 30.9437 3.42847 31.0104H9.89609C10.5533 31.0104 11.086 31.5431 11.086 32.2003C11.086 32.8574 10.5533 33.3901 9.89609 33.3901H2.18987C1.5327 33.3901 0.999988 32.8574 0.999988 32.2003C0.999988 32.1311 1.00921 32.0646 1.0204 31.9988C1.07374 23.5333 4.50377 15.8587 10.0291 10.2741C10.0633 10.2274 10.0976 10.1806 10.1397 10.1385C10.1782 10.0994 10.2217 10.0672 10.2645 10.0354C10.2679 10.0329 10.2713 10.0304 10.2747 10.0278C15.8619 4.49988 23.5399 1.06919 32.0106 1.01914C32.0731 1.00927 32.1363 1.00005 32.2015 1.00005C32.2667 1.00005 32.3299 1.00927 32.3925 1.01914C40.854 1.06985 48.5253 4.49462 54.1106 10.0134C54.1639 10.0509 54.2159 10.0911 54.264 10.1385C54.3121 10.1859 54.3516 10.2386 54.3898 10.2919C59.8993 15.8699 63.3208 23.5281 63.38 31.9757C63.3939 32.0482 63.4024 32.1226 63.4024 32.1996C63.4024 32.8568 62.8697 33.3895 62.2125 33.3895H54.5043C53.8472 33.3895 53.3145 32.8568 53.3145 32.1996C53.3145 31.5424 53.8472 31.0097 54.5043 31.0097H60.9726C60.9699 30.943 60.967 30.8763 60.9638 30.8097C60.6355 23.9012 57.8806 17.6393 53.5253 12.8431C53.4804 12.7937 53.4354 12.7444 53.3902 12.6954L48.8157 17.2698C48.3508 17.7347 47.5975 17.7347 47.1326 17.2698C46.6677 16.8049 46.6677 16.0516 47.1326 15.5868L51.7071 11.0123C51.658 10.9671 51.6088 10.922 51.5594 10.8772C46.7632 6.52055 40.5006 3.76505 33.5914 3.43605C33.5248 3.43288 33.4581 3.42994 33.3914 3.42722V9.89615C33.3914 10.5533 32.8587 11.086 32.2015 11.086C31.5444 11.086 31.0117 10.5533 31.0117 9.89615V3.42787C30.9449 3.43059 30.8783 3.43353 30.8117 3.43669C23.9018 3.76505 17.6392 6.52054 12.843 10.8765C12.7936 10.9214 12.7444 10.9664 12.6953 11.0116L17.2704 15.5874C17.7353 16.0523 17.7353 16.8056 17.2704 17.2705C16.8055 17.7354 16.0522 17.7354 15.5874 17.2705ZM17.4119 15.446C17.4119 15.446 17.4119 15.446 17.4119 15.446C17.9549 15.989 17.9548 16.8689 17.4119 17.4119C16.8689 17.9549 15.9889 17.9549 15.4459 17.4119L11.0187 12.984C6.69857 17.7439 3.96551 23.9564 3.63752 30.8104H9.89609C10.6637 30.8104 11.286 31.4326 11.286 32.2003C11.286 32.9679 10.6637 33.5901 9.89609 33.5901H2.18987C1.42224 33.5901 0.799988 32.9679 0.799988 32.2003C0.799988 32.1207 0.809779 32.0467 0.82051 31.9815C0.878374 23.4735 4.32547 15.7599 9.87649 10.144C9.90814 10.1008 9.94829 10.0471 9.99831 9.99705C10.048 9.94679 10.1033 9.90591 10.1442 9.87563M17.4119 15.446L12.9846 11.0181C17.7445 6.69797 23.957 3.9649 30.8117 3.63692V9.89615C30.8117 10.6638 31.4339 11.286 32.2015 11.286C32.9692 11.286 33.5914 10.6638 33.5914 9.89615V3.63628C40.4454 3.9649 46.6579 6.69799 51.4178 11.0187L46.9912 15.4453C46.4482 15.9883 46.4482 16.8683 46.9912 17.4113C47.5342 17.9543 48.4141 17.9543 48.9571 17.4113L53.3837 12.9847C57.7032 17.7446 60.4356 23.9564 60.7636 30.8097H54.5043C53.7367 30.8097 53.1145 31.432 53.1145 32.1996C53.1145 32.9672 53.7367 33.5895 54.5043 33.5895H62.2125C62.9802 33.5895 63.6024 32.9672 63.6024 32.1996C63.6024 32.1145 63.5937 32.0335 63.5799 31.9567C63.5157 23.4675 60.0775 15.7713 54.5431 10.1625C54.5057 10.1108 54.4607 10.0516 54.4044 9.99608C54.3501 9.94248 54.2934 9.89811 54.2395 9.85963C48.6229 4.31561 40.9127 0.874191 32.4087 0.819242C32.3491 0.809968 32.2776 0.800049 32.2015 0.800049C32.1255 0.800049 32.054 0.809967 31.9944 0.819241C23.4804 0.873538 15.763 4.32152 10.1442 9.87563" fill="#1C211D"/>
<path d="M49.1371 23.8145L35.8765 29.3688C35.7541 29.2101 35.6257 29.056 35.4841 28.9151C34.6478 28.0762 33.479 27.5533 32.1996 27.554C30.9208 27.554 29.752 28.0762 28.9151 28.9151C28.0761 29.752 27.554 30.9208 27.5546 32.1996C27.5546 33.4784 28.0761 34.6472 28.9151 35.4841C29.752 36.323 30.9208 36.8452 32.1996 36.8445C33.4783 36.8445 34.6471 36.323 35.4841 35.4841C36.3223 34.6472 36.8445 33.4784 36.8438 32.1996C36.8438 31.9843 36.8241 31.7736 36.7958 31.5648L50.057 26.0099C50.6634 25.7557 50.9485 25.0583 50.695 24.4525C50.4409 23.8461 49.7435 23.561 49.1377 23.8145H49.1371ZM33.801 33.801C33.3875 34.2126 32.8291 34.4635 32.2002 34.4641C31.5707 34.4641 31.0123 34.2126 30.5988 33.801C30.1872 33.3875 29.9364 32.8291 29.9357 32.1996C29.9357 31.5707 30.1872 31.0117 30.5988 30.5982C31.0123 30.1866 31.5707 29.9351 32.2002 29.9344C32.8291 29.9344 33.3875 30.1859 33.801 30.5975C34.2125 31.011 34.4634 31.5701 34.4641 32.1989C34.4641 32.8284 34.2125 33.3868 33.801 33.8004V33.801Z" fill="#1C211D"/>
<path fill-rule="evenodd" clip-rule="evenodd" d="M49.0992 23.6146C49.7975 23.3462 50.588 23.6798 50.8795 24.3753C51.1756 25.0829 50.8426 25.8975 50.1343 26.1944L37.013 31.6908C37.0317 31.8565 37.0439 32.026 37.0439 32.1996C37.0439 32.1996 37.0439 32.1996 37.0439 32.1996L36.8439 32.1997M36.7958 31.5649L50.057 26.0099C50.6634 25.7558 50.9486 25.0584 50.695 24.4526C50.4409 23.8462 49.7435 23.5611 49.1377 23.8146L35.8766 29.3689C35.7541 29.2102 35.6257 29.0561 35.4841 28.9152C34.6478 28.0763 33.479 27.5534 32.1996 27.5541C30.9208 27.5541 29.752 28.0763 28.9151 28.9152C28.0762 29.7521 27.554 30.9209 27.5546 32.1997C27.5546 33.4785 28.0762 34.6473 28.9151 35.4842C29.752 36.3231 30.9208 36.8453 32.1996 36.8446M32.1997 37.0446C33.5334 37.0446 34.7526 36.5006 35.6257 35.6255L32.1997 37.0446ZM27.3546 32.1998C27.3547 33.5334 27.8986 34.7525 28.7736 35.6256L27.3546 32.1998ZM27.3546 32.1998C27.354 30.866 27.8987 29.6468 28.7736 28.7738C29.6467 27.8988 30.8658 27.3541 32.1995 27.3541M35.9395 29.1257L49.0969 23.6146H49.0992M33.801 33.8005C34.2126 33.3869 34.4641 32.8285 34.4641 32.199C34.4634 31.5702 34.2126 31.0111 33.801 30.5976C33.3875 30.186 32.8291 29.9345 32.2002 29.9345C31.5707 29.9352 31.0123 30.1867 30.5988 30.5983C30.1873 31.0118 29.9357 31.5708 29.9357 32.1997C29.9364 32.8292 30.1873 33.3876 30.5988 33.8011C31.0123 34.2127 31.5707 34.4642 32.2002 34.4642C32.8291 34.4636 33.3875 34.212 33.801 33.8005ZM33.6344 33.6844L33.6593 33.6594C34.0353 33.2815 34.2641 32.7732 34.2641 32.1992C34.2635 31.6257 34.0354 31.1167 33.6595 30.739C33.2817 30.3631 32.7735 30.1346 32.2005 30.1345C31.6264 30.1351 31.1181 30.3638 30.7402 30.7397C30.3643 31.1175 30.1357 31.6264 30.1357 32.1997C30.1364 32.7738 30.3645 33.282 30.7402 33.6597C31.1181 34.0356 31.6262 34.2642 32.2 34.2642C32.7608 34.2636 33.2593 34.0455 33.6344 33.6844Z" fill="#1C211D"/>
<path d="M41.4717 41.7437C40.8145 41.7437 40.2818 42.2764 40.2818 42.9335V48.1816H34.6465V42.9335C34.6465 42.2764 34.1138 41.7437 33.4566 41.7437C32.7994 41.7437 32.2667 42.2764 32.2667 42.9335V55.8102C32.2667 56.4673 32.7994 57 33.4566 57C34.1138 57 34.6465 56.4673 34.6465 55.8102V50.5621H40.2818V55.8102C40.2818 56.4673 40.8145 57 41.4717 57C42.1288 57 42.6615 56.4673 42.6615 55.8102V42.9335C42.6615 42.2764 42.1288 41.7437 41.4717 41.7437Z" fill="#1C211D"/>
<path fill-rule="evenodd" clip-rule="evenodd" d="M40.0818 42.9336C40.0818 42.166 40.7041 41.5437 41.4717 41.5437C42.2393 41.5437 42.8616 42.166 42.8616 42.9336V55.8102C42.8616 56.5778 42.2393 57.2001 41.4717 57.2001C40.7041 57.2001 40.0818 56.5778 40.0818 55.8102V50.7621H34.8465V55.8102C34.8465 56.5778 34.2242 57.2001 33.4566 57.2001C32.689 57.2001 32.0667 56.5778 32.0667 55.8102V42.9336C32.0667 42.166 32.689 41.5437 33.4566 41.5437C34.2242 41.5437 34.8465 42.166 34.8465 42.9336V47.9817H40.0818V42.9336ZM40.2818 42.9336C40.2818 42.2764 40.8145 41.7437 41.4717 41.7437C42.1288 41.7437 42.6616 42.2764 42.6616 42.9336V55.8102C42.6616 56.4674 42.1288 57.0001 41.4717 57.0001C40.8145 57.0001 40.2818 56.4674 40.2818 55.8102V50.5621H34.6465V55.8102C34.6465 56.4674 34.1138 57.0001 33.4566 57.0001C32.7995 57.0001 32.2667 56.4674 32.2667 55.8102V42.9336C32.2667 42.2764 32.7995 41.7437 33.4566 41.7437C34.1138 41.7437 34.6465 42.2764 34.6465 42.9336V48.1817H40.2818V42.9336Z" fill="#1C211D"/>
<path d="M26.8204 41.7607H22.9308C22.2736 41.7607 21.7409 42.2934 21.7409 42.9505V55.8094C21.7409 56.4666 22.2736 56.9993 22.9308 56.9993C23.5879 56.9993 24.1207 56.4666 24.1207 55.8094V50.1985H26.8198C27.9813 50.1985 29.0435 49.7244 29.8034 48.9625C30.5652 48.2026 31.0393 47.1405 31.0387 45.9789C31.0387 44.8173 30.5646 43.7552 29.8034 42.9953C29.0435 42.2335 27.9813 41.7594 26.8198 41.76L26.8204 41.7607ZM28.1203 47.2801C27.7838 47.6146 27.3321 47.8181 26.8204 47.8187H24.1213V44.1411H26.8204C27.3321 44.1411 27.7845 44.3452 28.1203 44.6797C28.4548 45.0162 28.6583 45.4679 28.6589 45.9802C28.6589 46.4919 28.4548 46.9442 28.1203 47.2807V47.2801Z" fill="#1C211D"/>
<path fill-rule="evenodd" clip-rule="evenodd" d="M26.8211 41.7601C26.8209 41.7601 26.8213 41.7601 26.8211 41.7601C26.919 41.76 27.0162 41.7634 27.1125 41.77C28.159 41.8417 29.1078 42.298 29.8034 42.9954C30.5646 43.7553 31.0387 44.8174 31.0387 45.979C31.0393 47.1405 30.5652 48.2027 29.8034 48.9625C29.0435 49.7244 27.9813 50.1985 26.8198 50.1985H24.1206V55.8094C24.1206 56.4666 23.5879 56.9993 22.9308 56.9993C22.2736 56.9993 21.7409 56.4666 21.7409 55.8094V42.9506C21.7409 42.2934 22.2736 41.7607 22.9308 41.7607L26.8211 41.7601ZM26.3372 41.5603L26.8197 41.5601C28.0363 41.5594 29.1489 42.056 29.945 42.8541C30.7422 43.6501 31.2386 44.7625 31.2387 45.9788M26.3372 41.5603L22.9308 41.5607C22.1631 41.5607 21.5409 42.183 21.5409 42.9506V55.8094C21.5409 56.5771 22.1631 57.1993 22.9308 57.1993C23.6984 57.1993 24.3206 56.5771 24.3206 55.8094V50.3985H26.8198C28.0363 50.3985 29.1487 49.902 29.9448 49.104M28.1209 47.2801C28.1938 47.2067 28.2605 47.1278 28.3203 47.044C28.5343 46.7436 28.6589 46.38 28.6589 45.9803C28.6583 45.468 28.4548 45.0163 28.1203 44.6798C27.7844 44.3453 27.3321 44.1411 26.8204 44.1411H24.1213V47.8188H26.8204C27.2366 47.8182 27.6132 47.6835 27.9203 47.4532C27.9905 47.4006 28.057 47.3429 28.1196 47.2808C28.1195 47.2809 28.1197 47.2807 28.1196 47.2808C28.1197 47.2807 28.1208 47.2802 28.1209 47.2801ZM28.0004 47.1172L27.9793 47.1383C27.6784 47.4374 27.2765 47.6182 26.8202 47.6188H24.3213V44.3411H26.8204C27.2764 44.3411 27.6786 44.5223 27.9788 44.8211C28.2776 45.1219 28.4583 45.5235 28.4589 45.9803C28.4589 46.4251 28.2865 46.8188 28.0004 47.1172Z" fill="#1C211D"/>
</g>
<defs>
<clipPath id="clip0_170_5301">
<rect width="64" height="58" fill="white"/>
</clipPath>
</defs>
</svg>
