<svg width="54" height="48" viewBox="0 0 54 48" fill="none" xmlns="http://www.w3.org/2000/svg">
<g filter="url(#filter0_d_7932_9011)">
<path fill-rule="evenodd" clip-rule="evenodd" d="M12.4911 16.5763C13.0562 11.197 17.8563 7 23.6902 7C28.0182 7 31.7762 9.31167 33.6586 12.6994C34.5661 12.2798 35.5863 12.0434 36.6645 12.0434C40.4504 12.0434 43.5249 14.946 43.5249 18.5309C43.5249 18.547 43.5248 18.563 43.5247 18.579C47.2015 19.2083 50 22.2029 50 25.9377C50 30.0727 47.3791 34.9195 28.7881 33.5C27.3583 33.3908 27.358 33.0933 27.358 32.5C27.358 31.9067 27.3392 31.1538 28.7881 31.2706C44.0423 32.5 47.7325 28.8813 47.7325 25.9377C47.7325 22.991 45.3067 20.6937 42.2573 20.6081C41.9262 20.5988 41.616 20.4528 41.4081 20.2085C41.2003 19.9641 41.1156 19.6459 41.1763 19.3374C41.2289 19.07 41.2574 18.8023 41.2574 18.5309C41.2574 16.1374 39.2032 14.192 36.6645 14.192C35.6031 14.192 34.6295 14.532 33.8513 15.1031C33.5672 15.3116 33.1956 15.3802 32.8497 15.2879C32.5039 15.1956 32.2246 14.9534 32.0971 14.6351C30.8125 11.4283 27.5313 9.14855 23.6902 9.14855C18.7236 9.14855 14.703 12.9528 14.703 17.6414V17.6698C14.703 17.9702 14.5703 18.2569 14.337 18.4603C14.1037 18.6637 13.7912 18.7653 13.4753 18.7404C13.2796 18.725 13.0916 18.7157 12.9111 18.7157C9.24051 18.7157 6.26751 21.5281 6.26751 24.9931C6.26751 28.4583 10.197 32 23.5444 31.2706C24.9726 31.1925 24.9745 31.9067 24.9745 32.5C24.9745 33.0933 24.9721 33.4119 23.5444 33.5C7.33686 34.5 4 29.6497 4 24.9931C4 20.4696 7.76831 16.7836 12.4911 16.5763Z" fill="#1C211D"/>
</g>
<defs>
<filter id="filter0_d_7932_9011" x="0" y="7" width="54" height="34.7524" filterUnits="userSpaceOnUse" color-interpolation-filters="sRGB">
<feFlood flood-opacity="0" result="BackgroundImageFix"/>
<feColorMatrix in="SourceAlpha" type="matrix" values="0 0 0 0 0 0 0 0 0 0 0 0 0 0 0 0 0 0 127 0" result="hardAlpha"/>
<feOffset dy="4"/>
<feGaussianBlur stdDeviation="2"/>
<feComposite in2="hardAlpha" operator="out"/>
<feColorMatrix type="matrix" values="0 0 0 0 0 0 0 0 0 0 0 0 0 0 0 0 0 0 0.25 0"/>
<feBlend mode="normal" in2="BackgroundImageFix" result="effect1_dropShadow_7932_9011"/>
<feBlend mode="normal" in="SourceGraphic" in2="effect1_dropShadow_7932_9011" result="shape"/>
</filter>
</defs>
</svg>
