<svg width="72" height="56" viewBox="0 0 72 56" fill="none" xmlns="http://www.w3.org/2000/svg">
<path fill-rule="evenodd" clip-rule="evenodd" d="M13.5424 25.047C13.5424 18.6731 18.7219 13.5103 25.1038 13.5103C28.1779 13.5103 30.975 14.7087 33.0455 16.6629C33.5476 17.1368 33.5704 17.9279 33.0965 18.43C32.6227 18.932 31.8316 18.9549 31.3295 18.481C29.7055 16.9482 27.5162 16.0103 25.1038 16.0103C20.097 16.0103 16.0424 20.0594 16.0424 25.047C16.0424 27.4975 17.0185 29.7191 18.6071 31.3466C19.0893 31.8406 19.0798 32.632 18.5858 33.1143C18.0917 33.5965 17.3003 33.5869 16.8181 33.0929C14.7919 31.0171 13.5424 28.1758 13.5424 25.047Z" fill="#1C211D"/>
<path fill-rule="evenodd" clip-rule="evenodd" d="M25.1038 2.10449C25.7942 2.10449 26.3538 2.66414 26.3538 3.35449V9.18095C26.3538 9.8713 25.7942 10.4309 25.1038 10.4309C24.4135 10.4309 23.8538 9.8713 23.8538 9.18095V3.35449C23.8538 2.66414 24.4135 2.10449 25.1038 2.10449Z" fill="#1C211D"/>
<path fill-rule="evenodd" clip-rule="evenodd" d="M41.3638 8.82543C41.8516 9.31404 41.8508 10.1055 41.3622 10.5932L37.2341 14.7137C36.7455 15.2014 35.954 15.2006 35.4663 14.712C34.9786 14.2234 34.9794 13.4319 35.468 12.9442L39.5961 8.82379C40.0847 8.33609 40.8761 8.33682 41.3638 8.82543Z" fill="#1C211D"/>
<path fill-rule="evenodd" clip-rule="evenodd" d="M14.7418 35.3869C15.2292 35.8758 15.2281 36.6673 14.7392 37.1547L10.6089 41.273C10.12 41.7604 9.32858 41.7592 8.84114 41.2704C8.3537 40.7815 8.35486 39.99 8.84373 39.5026L12.974 35.3844C13.4629 34.8969 14.2544 34.8981 14.7418 35.3869Z" fill="#1C211D"/>
<path fill-rule="evenodd" clip-rule="evenodd" d="M2.10721 25.0493C2.10721 24.359 2.66685 23.7993 3.35721 23.7993H9.19761C9.88797 23.7993 10.4476 24.359 10.4476 25.0493C10.4476 25.7397 9.88797 26.2993 9.19761 26.2993H3.35721C2.66685 26.2993 2.10721 25.7397 2.10721 25.0493Z" fill="#1C211D"/>
<path fill-rule="evenodd" clip-rule="evenodd" d="M8.84138 8.82567C9.32895 8.33693 10.1204 8.33599 10.6091 8.82356L14.7395 12.944C15.2282 13.4316 15.2291 14.223 14.7416 14.7118C14.254 15.2005 13.4625 15.2015 12.9738 14.7139L8.84349 10.5934C8.35475 10.1059 8.35381 9.31441 8.84138 8.82567Z" fill="#1C211D"/>
<path fill-rule="evenodd" clip-rule="evenodd" d="M28.2181 30.8083C28.8411 24.549 34.1333 19.6655 40.5654 19.6655C45.3371 19.6655 49.4805 22.3553 51.5558 26.2973C52.5564 25.8089 53.6813 25.5339 54.87 25.5339C59.044 25.5339 62.4338 28.9113 62.4338 33.0827C62.4338 33.1013 62.4337 33.12 62.4336 33.1386C66.4873 33.8708 69.5728 37.3553 69.5728 41.701C69.5728 46.5124 65.6654 50.4062 60.8497 50.4062C60.1594 50.4062 59.5997 49.8465 59.5997 49.1562C59.5997 48.4658 60.1594 47.9062 60.8497 47.9062C64.2903 47.9062 67.0728 45.126 67.0728 41.701C67.0728 38.2722 64.3983 35.5992 61.0362 35.4996C60.6712 35.4888 60.3291 35.3189 60.1 35.0346C59.8708 34.7503 59.7774 34.38 59.8444 34.021C59.9024 33.7099 59.9338 33.3984 59.9338 33.0827C59.9338 30.2976 57.669 28.0339 54.87 28.0339C53.6998 28.0339 52.6263 28.4296 51.7684 29.0941C51.4551 29.3367 51.0454 29.4165 50.6641 29.3091C50.2827 29.2017 49.9749 28.9199 49.8343 28.5495C48.4179 24.8181 44.8003 22.1655 40.5654 22.1655C35.0896 22.1655 30.6567 26.5921 30.6567 32.0476V32.0807C30.6567 32.4302 30.5104 32.7638 30.2532 33.0005C29.996 33.2372 29.6515 33.3554 29.3032 33.3264C29.0874 33.3085 28.8801 33.2976 28.6811 33.2976C24.6342 33.2976 21.3563 36.5701 21.3563 40.6019C21.3563 44.6339 24.6322 47.9062 28.6811 47.9062C29.3714 47.9062 29.9311 48.4658 29.9311 49.1562C29.9311 49.8465 29.3714 50.4062 28.6811 50.4062C23.2571 50.4062 18.8563 46.0202 18.8563 40.6019C18.8563 35.3385 23.011 31.0495 28.2181 30.8083Z" fill="#1C211D"/>
<path fill-rule="evenodd" clip-rule="evenodd" d="M36.852 46.2814C37.4829 46.5617 37.767 47.3004 37.4867 47.9313L35.166 53.153C34.8856 53.7839 34.1469 54.068 33.5161 53.7877C32.8852 53.5073 32.6011 52.7686 32.8814 52.1377L35.2021 46.916C35.4825 46.2851 36.2212 46.001 36.852 46.2814Z" fill="#1C211D"/>
<path fill-rule="evenodd" clip-rule="evenodd" d="M45.4357 46.2814C46.0665 46.5617 46.3507 47.3004 46.0703 47.9313L43.7496 53.153C43.4692 53.7839 42.7305 54.068 42.0997 53.7877C41.4688 53.5073 41.1847 52.7686 41.4651 52.1377L43.7857 46.916C44.0661 46.2851 44.8048 46.001 45.4357 46.2814Z" fill="#1C211D"/>
<path fill-rule="evenodd" clip-rule="evenodd" d="M54.0167 46.2812C54.6476 46.5613 54.932 47.2999 54.6519 47.9309L52.3334 53.1526C52.0533 53.7836 51.3147 54.068 50.6837 53.7878C50.0527 53.5077 49.7684 52.7691 50.0485 52.1381L52.367 46.9164C52.6471 46.2854 53.3857 46.0011 54.0167 46.2812Z" fill="#1C211D"/>
</svg>
