<?xml version="1.0" standalone="no"?>
<!DOCTYPE svg PUBLIC "-//W3C//DTD SVG 1.0//EN" "http://www.w3.org/TR/2001/REC-SVG-20010904/DTD/svg10.dtd">
<svg xmlns="http://www.w3.org/2000/svg" xmlns:xlink="http://www.w3.org/1999/xlink" id="body_1" width="198" height="147">

<g transform="matrix(0.14977309 0 0 0.14977309 -0 0.26096934)">
	<g>
        <path d="M1214.84 338.344C 1273.62 525.206 1107.26 743.999 843.278 827.033C 579.294 910.066 317.645 825.897 258.87 639.035C 200.094 452.173 366.449 233.379 630.434 150.345C 894.418 67.312 1156.07 151.482 1214.84 338.344z" stroke="none" fill="#FFD600" fill-rule="nonzero" />
	</g>
	<g>
        <path d="M81.5351 399.9C 126.566 231.843 374.777 152.333 635.93 222.309C 897.084 292.285 1072.29 485.248 1027.25 653.305C 982.224 821.362 734.013 900.872 472.86 830.896C 211.706 760.92 36.5045 567.957 81.5351 399.9z" stroke="none" fill="#00BAFF" fill-rule="nonzero" />
	</g>
    <path d="M511.816 199.902C 552.327 203.679 593.961 211.063 635.93 222.309C 897.084 292.285 1072.29 485.248 1027.26 653.305C 1006.1 732.24 940.129 791.641 849.043 825.193C 847.127 825.813 845.205 826.427 843.279 827.033C 807.308 838.347 771.38 846.557 736.004 851.825C 655.463 861.661 564.966 855.576 472.86 830.896C 460.328 827.538 447.994 823.897 435.873 819.989C 349.209 782.959 284.6 720.837 258.87 639.035C 209.492 482.05 319.007 302.529 511.816 199.902z" stroke="none" fill="#2BAA74" fill-rule="nonzero" />
</g>
</svg>