<svg width="54" height="40" viewBox="0 0 54 40" fill="none" xmlns="http://www.w3.org/2000/svg">
<path d="M40.8983 34.2983C40.6167 34.4919 40.247 34.703 39.9301 34.8966H39.8245H39.9301C46.3028 36.6564 52.6226 36.6564 53.8373 32.6089C55.404 27.4703 45.2641 21.9621 40.4758 19.3401C39.4372 18.7769 38.9971 19.1289 39.6484 19.868C42.6763 23.3876 46.9717 30.198 40.8983 34.2279V34.2983Z" fill="white"/>
<path d="M39.8422 34.9494C39.8422 34.9494 31.8148 40 17.6436 40C12.1511 40 7.52127 39.1553 5.56723 37.2371C3.46193 34.8855 2.32924 31.822 2.39851 28.6669C2.39851 25.9745 3.50756 23.7219 5.9193 23.7219C11.8871 23.7219 30.5649 33.1896 39.9126 34.9494H39.8422Z" fill="white"/>
<path d="M13.0841 5.63125C13.3834 5.43767 13.7355 5.2089 14.0523 5.03292H14.158H14.0523C7.67969 3.27313 1.35986 3.27313 0.162791 7.32065C-1.40396 12.4592 8.73592 17.9674 13.5242 20.5895C14.5452 21.1526 14.9853 20.8007 14.334 20.0439C11.3061 16.5244 7.01073 9.71396 13.0841 5.70164V5.63125Z" fill="white"/>
<path d="M14.1582 5.033C14.1582 5.033 22.1856 0 36.3568 0C41.8317 0 46.4615 0.844699 48.4155 2.76287C50.5208 5.11448 51.6535 8.17797 51.5843 11.333C51.5843 14.0079 50.4752 16.2781 48.1515 16.2781C42.1661 16.2781 23.5059 6.81039 14.1582 5.033Z" fill="white"/>
</svg>
