<svg width="543" height="542" viewBox="0 0 543 542" fill="none" xmlns="http://www.w3.org/2000/svg">
<path d="M542.5 270.502C542.5 419.618 421.171 540.504 271.5 540.504C121.829 540.504 0.5 419.618 0.5 270.502C0.5 121.386 121.829 0.5 271.5 0.5C421.171 0.5 542.5 121.386 542.5 270.502Z" stroke="black" stroke-opacity="0.25"/>
<path d="M497.5 270.502C497.5 394.856 396.318 495.669 271.5 495.669C146.682 495.669 45.5 394.856 45.5 270.502C45.5 146.147 146.682 45.3345 271.5 45.3345C396.318 45.3345 497.5 146.147 497.5 270.502Z" stroke="black" stroke-opacity="0.12"/>
<path d="M451.5 270.502C451.5 369.545 370.913 449.838 271.5 449.838C172.087 449.838 91.5 369.545 91.5 270.502C91.5 171.459 172.087 91.1655 271.5 91.1655C370.913 91.1655 451.5 171.459 451.5 270.502Z" stroke="black" stroke-opacity="0.12"/>
<path d="M406.5 270.502C406.5 344.783 346.06 405.004 271.5 405.004C196.94 405.004 136.5 344.783 136.5 270.502C136.5 196.22 196.94 136 271.5 136C346.06 136 406.5 196.22 406.5 270.502Z" stroke="black" stroke-opacity="0.12"/>
<path d="M361.5 270.502C361.5 320.022 321.207 360.169 271.5 360.169C221.793 360.169 181.5 320.022 181.5 270.502C181.5 220.982 221.793 180.834 271.5 180.834C321.207 180.834 361.5 220.982 361.5 270.502Z" stroke="black" stroke-opacity="0.12"/>
<path d="M317.5 270.502C317.5 245.193 296.907 224.673 271.5 224.673C246.093 224.673 225.5 245.193 225.5 270.502C225.5 295.811 246.093 316.331 271.5 316.331C296.907 316.331 317.5 295.811 317.5 270.502Z" stroke="black" stroke-opacity="0.12"/>
</svg>
