<svg width="538" height="269" viewBox="0 0 538 269" fill="none" xmlns="http://www.w3.org/2000/svg">
<mask id="path-1-inside-1_1392_20742" fill="white">
<path fill-rule="evenodd" clip-rule="evenodd" d="M0 269H115C115 183.948 183.948 115 269 115C354.052 115 423 183.948 423 269H538C538 120.435 417.565 0 269 0C120.435 0 0 120.435 0 269Z"/>
</mask>
<path d="M0 269H-1V270H0V269ZM115 269V270H116V269H115ZM423 269H422V270H423V269ZM538 269V270H539V269H538ZM0 270H115V268H0V270ZM269 114C183.396 114 114 183.396 114 269H116C116 184.5 184.5 116 269 116V114ZM424 269C424 183.396 354.604 114 269 114V116C353.5 116 422 184.5 422 269H424ZM423 270H538V268H423V270ZM539 269C539 119.883 418.117 -1 269 -1V1C417.012 1 537 120.988 537 269H539ZM269 -1C119.883 -1 -1 119.883 -1 269H1C1 120.988 120.988 1 269 1V-1Z" fill="black" fill-opacity="0.25" mask="url(#path-1-inside-1_1392_20742)"/>
</svg>
